<svg class="animated" id="freepik_stories-hairdresser" xmlns="http://www.w3.org/2000/svg" viewBox="0 0 500 500" version="1.1" xmlns:xlink="http://www.w3.org/1999/xlink" xmlns:svgjs="http://svgjs.com/svgjs"><style>svg#freepik_stories-hairdresser:not(.animated) .animable {opacity: 0;}svg#freepik_stories-hairdresser.animated #freepik--character-2--inject-65 {animation: 1s 1 forwards cubic-bezier(.36,-0.01,.5,1.38) fadeIn;animation-delay: 0s;}svg#freepik_stories-hairdresser.animated #freepik--Chair--inject-65 {animation: 1s 1 forwards cubic-bezier(.36,-0.01,.5,1.38) fadeIn;animation-delay: 0s;}svg#freepik_stories-hairdresser.animated #freepik--character-1--inject-65 {animation: 1.0s 1 forwards cubic-bezier(.36,-0.01,.5,1.38) fadeIn,3s Infinite  linear wind;animation-delay: 0s,1s;}svg#freepik_stories-hairdresser.animated #freepik--Plant--inject-65 {animation: 1.5s Infinite  linear wind;animation-delay: 0s;}            @keyframes fadeIn {                0% {                    opacity: 0;                }                100% {                    opacity: 1;                }            }                    @keyframes wind {                0% {                    transform: rotate( 0deg );                }                25% {                    transform: rotate( 1deg );                }                75% {                    transform: rotate( -1deg );                }            }        </style><g id="freepik--background-complete--inject-65" class="animable" style="transform-origin: 240.035px 159.8px;"><rect x="307.12" y="52.46" width="125.51" height="165.23" style="fill: rgb(235, 235, 235); transform-origin: 369.875px 135.075px;" id="elt3au6erz7i" class="animable"></rect><rect x="324.68" y="70.02" width="90.39" height="130.11" style="fill: rgb(255, 255, 255); transform-origin: 369.875px 135.075px;" id="el4e54bhs1707" class="animable"></rect><g id="el5ao7i2uf3op"><g style="opacity: 0.2; transform-origin: 369.875px 135.075px;" class="animable" id="elxl4rwiomscb"><polygon points="391.98 70.02 324.68 137.33 324.68 104.73 359.39 70.02 391.98 70.02" style="fill: rgb(235, 235, 235); transform-origin: 358.33px 103.675px;" id="els5citudflvf" class="animable"></polygon><polygon points="415.07 132.84 415.07 165.44 380.38 200.13 347.79 200.13 415.07 132.84" style="fill: rgb(235, 235, 235); transform-origin: 381.43px 166.485px;" id="el0ynbmo0c4vi" class="animable"></polygon><polygon points="415.07 174.81 415.07 191.11 406.05 200.13 389.76 200.13 415.07 174.81" style="fill: rgb(235, 235, 235); transform-origin: 402.415px 187.47px;" id="elwzs5ud8tk2i" class="animable"></polygon><polygon points="354.9 70.02 324.68 100.24 324.68 95.61 350.26 70.02 354.9 70.02" style="fill: rgb(235, 235, 235); transform-origin: 339.79px 85.13px;" id="elcu8neuxay3c" class="animable"></polygon><polygon points="415.07 88.36 415.07 93 324.68 183.38 324.68 178.76 415.07 88.36" style="fill: rgb(235, 235, 235); transform-origin: 369.875px 135.87px;" id="elwxta7iudi19" class="animable"></polygon></g></g><path d="M319.12,61.34a3.4,3.4,0,1,1-3.4-3.4A3.4,3.4,0,0,1,319.12,61.34Z" style="fill: rgb(255, 255, 255); transform-origin: 315.72px 61.34px;" id="el2blrqf68ydw" class="animable"></path><path d="M336.88,61.34a3.4,3.4,0,1,1-3.4-3.4A3.4,3.4,0,0,1,336.88,61.34Z" style="fill: rgb(255, 255, 255); transform-origin: 333.48px 61.34px;" id="elly7rylyuiz" class="animable"></path><path d="M354.64,61.34a3.4,3.4,0,1,1-3.4-3.4A3.4,3.4,0,0,1,354.64,61.34Z" style="fill: rgb(255, 255, 255); transform-origin: 351.24px 61.34px;" id="el8k60e6t1v6c" class="animable"></path><path d="M372.4,61.34a3.4,3.4,0,1,1-3.4-3.4A3.4,3.4,0,0,1,372.4,61.34Z" style="fill: rgb(255, 255, 255); transform-origin: 369px 61.34px;" id="elbnjf1i4lgj" class="animable"></path><path d="M390.16,61.34a3.4,3.4,0,1,1-3.4-3.4A3.4,3.4,0,0,1,390.16,61.34Z" style="fill: rgb(255, 255, 255); transform-origin: 386.76px 61.34px;" id="elf77ev907s29" class="animable"></path><path d="M407.92,61.34a3.4,3.4,0,1,1-3.4-3.4A3.4,3.4,0,0,1,407.92,61.34Z" style="fill: rgb(255, 255, 255); transform-origin: 404.52px 61.34px;" id="elnnsp0hls7cj" class="animable"></path><path d="M336.88,208.8a3.4,3.4,0,1,1-3.4-3.4A3.4,3.4,0,0,1,336.88,208.8Z" style="fill: rgb(255, 255, 255); transform-origin: 333.48px 208.8px;" id="el8e3b6ckzsjt" class="animable"></path><path d="M354.64,208.8a3.4,3.4,0,1,1-3.4-3.4A3.4,3.4,0,0,1,354.64,208.8Z" style="fill: rgb(255, 255, 255); transform-origin: 351.24px 208.8px;" id="ell178tsn1mpb" class="animable"></path><path d="M372.4,208.8a3.4,3.4,0,1,1-3.4-3.4A3.4,3.4,0,0,1,372.4,208.8Z" style="fill: rgb(255, 255, 255); transform-origin: 369px 208.8px;" id="elcj2v5d08jzp" class="animable"></path><path d="M390.16,208.8a3.4,3.4,0,1,1-3.4-3.4A3.4,3.4,0,0,1,390.16,208.8Z" style="fill: rgb(255, 255, 255); transform-origin: 386.76px 208.8px;" id="elbi4lny723z" class="animable"></path><path d="M407.92,208.8a3.4,3.4,0,1,1-3.4-3.4A3.4,3.4,0,0,1,407.92,208.8Z" style="fill: rgb(255, 255, 255); transform-origin: 404.52px 208.8px;" id="eltzuwtztvlv" class="animable"></path><path d="M319.12,79.77a3.4,3.4,0,1,1-3.4-3.4A3.4,3.4,0,0,1,319.12,79.77Z" style="fill: rgb(255, 255, 255); transform-origin: 315.72px 79.77px;" id="elexpx6qk00n" class="animable"></path><path d="M319.12,98.21a3.4,3.4,0,1,1-3.4-3.4A3.4,3.4,0,0,1,319.12,98.21Z" style="fill: rgb(255, 255, 255); transform-origin: 315.72px 98.21px;" id="elpoc4qjn2m2o" class="animable"></path><path d="M319.12,116.64a3.4,3.4,0,1,1-3.4-3.4A3.4,3.4,0,0,1,319.12,116.64Z" style="fill: rgb(255, 255, 255); transform-origin: 315.72px 116.64px;" id="elpdqab2883o" class="animable"></path><path d="M319.12,135.07a3.4,3.4,0,1,1-3.4-3.4A3.4,3.4,0,0,1,319.12,135.07Z" style="fill: rgb(255, 255, 255); transform-origin: 315.72px 135.07px;" id="eldei8ytj8u9r" class="animable"></path><path d="M319.12,153.51a3.4,3.4,0,1,1-3.4-3.4A3.4,3.4,0,0,1,319.12,153.51Z" style="fill: rgb(255, 255, 255); transform-origin: 315.72px 153.51px;" id="elg679xul518o" class="animable"></path><path d="M319.12,171.94a3.4,3.4,0,1,1-3.4-3.4A3.4,3.4,0,0,1,319.12,171.94Z" style="fill: rgb(255, 255, 255); transform-origin: 315.72px 171.94px;" id="elvfgk2rxjyk" class="animable"></path><path d="M319.12,190.37a3.4,3.4,0,1,1-3.4-3.4A3.4,3.4,0,0,1,319.12,190.37Z" style="fill: rgb(255, 255, 255); transform-origin: 315.72px 190.37px;" id="elkei0hkhpvf" class="animable"></path><path d="M319.12,208.8a3.4,3.4,0,1,1-3.4-3.4A3.4,3.4,0,0,1,319.12,208.8Z" style="fill: rgb(255, 255, 255); transform-origin: 315.72px 208.8px;" id="eloufx8b2ll2k" class="animable"></path><path d="M427.43,61.34a3.4,3.4,0,1,1-3.4-3.4A3.4,3.4,0,0,1,427.43,61.34Z" style="fill: rgb(255, 255, 255); transform-origin: 424.03px 61.34px;" id="eliizq36t9g" class="animable"></path><path d="M427.43,79.77a3.4,3.4,0,1,1-3.4-3.4A3.4,3.4,0,0,1,427.43,79.77Z" style="fill: rgb(255, 255, 255); transform-origin: 424.03px 79.77px;" id="elnejyi2pvkqr" class="animable"></path><path d="M427.43,98.21a3.4,3.4,0,1,1-3.4-3.4A3.41,3.41,0,0,1,427.43,98.21Z" style="fill: rgb(255, 255, 255); transform-origin: 424.03px 98.21px;" id="el6foeuus5xyx" class="animable"></path><path d="M427.43,116.64a3.4,3.4,0,1,1-3.4-3.4A3.4,3.4,0,0,1,427.43,116.64Z" style="fill: rgb(255, 255, 255); transform-origin: 424.03px 116.64px;" id="elztybnin73jb" class="animable"></path><path d="M427.43,135.07a3.4,3.4,0,1,1-3.4-3.4A3.4,3.4,0,0,1,427.43,135.07Z" style="fill: rgb(255, 255, 255); transform-origin: 424.03px 135.07px;" id="elm5i1e35ooq" class="animable"></path><path d="M427.43,153.51a3.4,3.4,0,1,1-3.4-3.4A3.41,3.41,0,0,1,427.43,153.51Z" style="fill: rgb(255, 255, 255); transform-origin: 424.03px 153.51px;" id="elotngn3hvfhk" class="animable"></path><path d="M427.43,171.94a3.4,3.4,0,1,1-3.4-3.4A3.4,3.4,0,0,1,427.43,171.94Z" style="fill: rgb(255, 255, 255); transform-origin: 424.03px 171.94px;" id="elkbqj5cvrytc" class="animable"></path><path d="M427.43,190.37A3.4,3.4,0,1,1,424,187,3.4,3.4,0,0,1,427.43,190.37Z" style="fill: rgb(255, 255, 255); transform-origin: 424.03px 190.4px;" id="eln75v32d4bz8" class="animable"></path><path d="M427.43,208.8a3.4,3.4,0,1,1-3.4-3.4A3.4,3.4,0,0,1,427.43,208.8Z" style="fill: rgb(255, 255, 255); transform-origin: 424.03px 208.8px;" id="el4px6zw4avsf" class="animable"></path><rect x="50.32" y="52.46" width="125.51" height="165.23" style="fill: rgb(235, 235, 235); transform-origin: 113.075px 135.075px;" id="elyk327aj8l" class="animable"></rect><rect x="67.88" y="70.02" width="90.39" height="130.11" style="fill: rgb(255, 255, 255); transform-origin: 113.075px 135.075px;" id="elg5o0ki8v5yr" class="animable"></rect><path d="M62.33,61.34a3.4,3.4,0,1,1-3.4-3.4A3.4,3.4,0,0,1,62.33,61.34Z" style="fill: rgb(255, 255, 255); transform-origin: 58.93px 61.34px;" id="elpp9vxsx9ez" class="animable"></path><path d="M80.09,61.34a3.4,3.4,0,1,1-3.4-3.4A3.4,3.4,0,0,1,80.09,61.34Z" style="fill: rgb(255, 255, 255); transform-origin: 76.69px 61.34px;" id="elxkv7gv93uo" class="animable"></path><path d="M97.85,61.34a3.4,3.4,0,1,1-3.4-3.4A3.4,3.4,0,0,1,97.85,61.34Z" style="fill: rgb(255, 255, 255); transform-origin: 94.45px 61.34px;" id="eldexau4k44e9" class="animable"></path><path d="M115.61,61.34a3.4,3.4,0,1,1-3.4-3.4A3.4,3.4,0,0,1,115.61,61.34Z" style="fill: rgb(255, 255, 255); transform-origin: 112.21px 61.34px;" id="el5rtc8vzlmuq" class="animable"></path><path d="M133.37,61.34a3.4,3.4,0,1,1-3.4-3.4A3.4,3.4,0,0,1,133.37,61.34Z" style="fill: rgb(255, 255, 255); transform-origin: 129.97px 61.34px;" id="el3lqrc4in5qh" class="animable"></path><path d="M151.13,61.34a3.4,3.4,0,1,1-3.4-3.4A3.4,3.4,0,0,1,151.13,61.34Z" style="fill: rgb(255, 255, 255); transform-origin: 147.73px 61.34px;" id="elxmn4szov9f9" class="animable"></path><path d="M80.09,208.8a3.4,3.4,0,1,1-3.4-3.4A3.4,3.4,0,0,1,80.09,208.8Z" style="fill: rgb(255, 255, 255); transform-origin: 76.69px 208.8px;" id="el3fs6x9gw5re" class="animable"></path><path d="M97.85,208.8a3.4,3.4,0,1,1-3.4-3.4A3.4,3.4,0,0,1,97.85,208.8Z" style="fill: rgb(255, 255, 255); transform-origin: 94.45px 208.8px;" id="elmtdtb1ffvs" class="animable"></path><path d="M115.61,208.8a3.4,3.4,0,1,1-3.4-3.4A3.4,3.4,0,0,1,115.61,208.8Z" style="fill: rgb(255, 255, 255); transform-origin: 112.21px 208.8px;" id="eliamqdu3bd8n" class="animable"></path><path d="M133.37,208.8a3.4,3.4,0,1,1-3.4-3.4A3.4,3.4,0,0,1,133.37,208.8Z" style="fill: rgb(255, 255, 255); transform-origin: 129.97px 208.8px;" id="el3gom3iv8k2j" class="animable"></path><path d="M151.13,208.8a3.4,3.4,0,1,1-3.4-3.4A3.4,3.4,0,0,1,151.13,208.8Z" style="fill: rgb(255, 255, 255); transform-origin: 147.73px 208.8px;" id="elzfp5efj6fx" class="animable"></path><circle cx="58.93" cy="79.77" r="3.4" style="fill: rgb(255, 255, 255); transform-origin: 58.93px 79.77px;" id="elxq2rgkhnmi" class="animable"></circle><circle cx="58.93" cy="98.21" r="3.4" style="fill: rgb(255, 255, 255); transform-origin: 58.93px 98.21px;" id="elxtexiahc4gd" class="animable"></circle><circle cx="58.93" cy="116.64" r="3.4" style="fill: rgb(255, 255, 255); transform-origin: 58.93px 116.64px;" id="elqgqaylulp6" class="animable"></circle><circle cx="58.93" cy="135.07" r="3.4" style="fill: rgb(255, 255, 255); transform-origin: 58.93px 135.07px;" id="ely3fh48kv5k8" class="animable"></circle><circle cx="58.93" cy="153.51" r="3.4" style="fill: rgb(255, 255, 255); transform-origin: 58.93px 153.51px;" id="elvnxz84114ki" class="animable"></circle><circle cx="58.93" cy="171.94" r="3.4" style="fill: rgb(255, 255, 255); transform-origin: 58.93px 171.94px;" id="elr5b8q9d4fqc" class="animable"></circle><path d="M62.33,190.37a3.4,3.4,0,1,1-3.4-3.4A3.4,3.4,0,0,1,62.33,190.37Z" style="fill: rgb(255, 255, 255); transform-origin: 58.93px 190.37px;" id="el5g62y8crdzp" class="animable"></path><path d="M62.33,208.8a3.4,3.4,0,1,1-3.4-3.4A3.4,3.4,0,0,1,62.33,208.8Z" style="fill: rgb(255, 255, 255); transform-origin: 58.93px 208.8px;" id="el6km5f9zidcj" class="animable"></path><path d="M170.63,61.34a3.4,3.4,0,1,1-3.4-3.4A3.4,3.4,0,0,1,170.63,61.34Z" style="fill: rgb(255, 255, 255); transform-origin: 167.23px 61.34px;" id="eluwlnoq459ep" class="animable"></path><circle cx="167.23" cy="79.77" r="3.4" style="fill: rgb(255, 255, 255); transform-origin: 167.23px 79.77px;" id="elhcfh9agpim" class="animable"></circle><circle cx="167.23" cy="98.21" r="3.4" style="fill: rgb(255, 255, 255); transform-origin: 167.23px 98.21px;" id="elpgxepsmg4i" class="animable"></circle><circle cx="167.23" cy="116.64" r="3.4" style="fill: rgb(255, 255, 255); transform-origin: 167.23px 116.64px;" id="elbu3br2lqtko" class="animable"></circle><circle cx="167.23" cy="135.07" r="3.4" style="fill: rgb(255, 255, 255); transform-origin: 167.23px 135.07px;" id="elcqtn7zih0sd" class="animable"></circle><circle cx="167.23" cy="153.51" r="3.4" style="fill: rgb(255, 255, 255); transform-origin: 167.23px 153.51px;" id="elqps87gp80ws" class="animable"></circle><circle cx="167.23" cy="171.94" r="3.4" style="fill: rgb(255, 255, 255); transform-origin: 167.23px 171.94px;" id="elf747ufs2x4q" class="animable"></circle><path d="M170.63,190.37a3.4,3.4,0,1,1-3.4-3.4A3.4,3.4,0,0,1,170.63,190.37Z" style="fill: rgb(255, 255, 255); transform-origin: 167.23px 190.37px;" id="el07z57zp2pi4a" class="animable"></path><path d="M170.63,208.8a3.4,3.4,0,1,1-3.4-3.4A3.4,3.4,0,0,1,170.63,208.8Z" style="fill: rgb(255, 255, 255); transform-origin: 167.23px 208.8px;" id="el6ky4ltmk9ri" class="animable"></path><g id="eloxrrf5owux"><g style="opacity: 0.2; transform-origin: 113.075px 135.075px;" class="animable" id="elm90rdzgrvg"><polygon points="158.27 70.02 158.27 81.57 67.88 171.97 67.88 139.37 137.24 70.02 158.27 70.02" style="fill: rgb(235, 235, 235); transform-origin: 113.075px 120.995px;" id="el04bluc0nk4h2" class="animable"></polygon><polygon points="158.27 179.73 158.27 200.13 137.88 200.13 158.27 179.73" style="fill: rgb(235, 235, 235); transform-origin: 148.075px 189.93px;" id="el2sxu9uwkoqj" class="animable"></polygon><polygon points="158.27 89.8 158.27 106.1 67.88 196.5 67.88 180.2 158.27 89.8" style="fill: rgb(235, 235, 235); transform-origin: 113.075px 143.15px;" id="eluyw58d7zxz" class="animable"></polygon><polygon points="100.48 70.02 67.88 102.62 67.88 97.99 95.85 70.02 100.48 70.02" style="fill: rgb(235, 235, 235); transform-origin: 84.18px 86.32px;" id="el6evkuu4n2z" class="animable"></polygon></g></g><g id="elh3ffp26j449"><rect x="47.44" y="258.11" width="161.81" height="9.03" style="fill: rgb(199, 199, 199); transform-origin: 128.345px 262.625px; transform: rotate(180deg);" class="animable" id="el5s9lp6n4txw"></rect></g><g id="elh88m22r92en"><rect x="47.88" y="240.79" width="31.97" height="1" style="fill: rgb(235, 235, 235); transform-origin: 63.865px 241.29px; transform: rotate(-78.81deg);" class="animable" id="elf86j2agn4j7"></rect></g><g id="elzguxtk2h3n"><rect x="61.46" y="224.94" width="1" height="33.33" style="fill: rgb(235, 235, 235); transform-origin: 61.96px 241.605px; transform: rotate(-12.98deg);" class="animable" id="eln8e0y6vb9m"></rect></g><g id="elxd0wgfhoci"><rect x="59" y="225.3" width="1" height="33.29" style="fill: rgb(235, 235, 235); transform-origin: 59.5px 241.945px; transform: rotate(-17.05deg);" class="animable" id="el696dxdklzep"></rect></g><g id="elcxcj2k0h6gv"><rect x="45.68" y="241.33" width="31.75" height="1" style="fill: rgb(235, 235, 235); transform-origin: 61.555px 241.83px; transform: rotate(-72.47deg);" class="animable" id="elheuo9z04dub"></rect></g><g id="eliyu8kb7cyws"><rect x="44.78" y="240.72" width="32.16" height="1" style="fill: rgb(235, 235, 235); transform-origin: 60.86px 241.22px; transform: rotate(-88.69deg);" class="animable" id="elcab750nmewv"></rect></g><polygon points="55.74 258.11 66.97 258.11 64.74 244.03 57.96 244.03 55.74 258.11" style="fill: rgb(166, 166, 166); transform-origin: 61.355px 251.07px;" id="elhxbtf6bw41c" class="animable"></polygon><g id="eljtch7l4tq2"><rect x="94.77" y="223.99" width="23.09" height="34.12" style="fill: rgb(219, 219, 219); transform-origin: 106.315px 241.05px; transform: rotate(180deg);" class="animable" id="elnism3cuic6o"></rect></g><g id="elg42x7zn1zm8"><rect x="101.61" y="217.09" width="9.42" height="6.9" style="fill: rgb(166, 166, 166); transform-origin: 106.32px 220.54px; transform: rotate(180deg);" class="animable" id="elnu3gdfq1h4"></rect></g><g id="el7yqhhgoy1vk"><rect x="98.07" y="232.64" width="16.58" height="15.86" style="fill: rgb(235, 235, 235); transform-origin: 106.36px 240.57px; transform: rotate(180deg);" class="animable" id="elorla7ofhu1"></rect></g><g id="el4iwisx8a3l"><rect x="73.29" y="219.54" width="19.8" height="38.57" style="fill: rgb(219, 219, 219); transform-origin: 83.19px 238.825px; transform: rotate(180deg);" class="animable" id="eldeimrjdr4z9"></rect></g><g id="elnupaj0mhfx"><rect x="79.15" y="213.63" width="8.07" height="5.91" style="fill: rgb(199, 199, 199); transform-origin: 83.185px 216.585px; transform: rotate(180deg);" class="animable" id="elejg2fxui1eb"></rect></g><g id="elm09dvxkq0x"><rect x="73.29" y="234.25" width="19.8" height="13.6" style="fill: rgb(199, 199, 199); transform-origin: 83.19px 241.05px; transform: rotate(180deg);" class="animable" id="elz946nl9646r"></rect></g></g><g id="freepik--Shadow--inject-65" class="animable" style="transform-origin: 250px 441.93px;"><ellipse cx="250" cy="441.93" rx="184.84" ry="23.33" style="fill: rgb(235, 235, 235); transform-origin: 250px 441.93px;" id="elrhuup07rfmp" class="animable"></ellipse></g><g id="freepik--Floor--inject-65" class="animable" style="transform-origin: 250px 406.76px;"><polygon points="47.44 406.76 98.08 406.51 148.72 406.43 250 406.26 351.28 406.43 401.92 406.51 452.56 406.76 401.92 407 351.28 407.09 250 407.26 148.72 407.09 98.08 407 47.44 406.76" style="fill: rgb(38, 50, 56); transform-origin: 250px 406.76px;" id="elhri0sw23e34" class="animable"></polygon></g><g id="freepik--Furniture--inject-65" class="animable" style="transform-origin: 407.92px 332.285px;"><rect x="362.02" y="257.81" width="91.8" height="148.95" style="fill: rgb(55, 71, 79); transform-origin: 407.92px 332.285px;" id="el06nyhnls98yr" class="animable"></rect><rect x="366.08" y="367.67" width="83.69" height="34.32" style="fill: rgb(69, 90, 100); transform-origin: 407.925px 384.83px;" id="elkhee9j7szni" class="animable"></rect><path d="M419.84,367.67c0,3-5.34,5.35-11.92,5.35S396,370.63,396,367.67Z" style="fill: rgb(55, 71, 79); transform-origin: 407.92px 370.345px;" id="elxlymqhk64gr" class="animable"></path><rect x="366.08" y="332.64" width="83.69" height="34.32" style="fill: rgb(69, 90, 100); transform-origin: 407.925px 349.8px;" id="ell1oubjlq3x7" class="animable"></rect><path d="M419.84,332.64c0,3-5.34,5.35-11.92,5.35S396,335.6,396,332.64Z" style="fill: rgb(55, 71, 79); transform-origin: 407.92px 335.315px;" id="el15c8berffd3" class="animable"></path><rect x="366.08" y="297.61" width="83.69" height="34.32" style="fill: rgb(69, 90, 100); transform-origin: 407.925px 314.77px;" id="elpn3l5l6i9s" class="animable"></rect><path d="M419.84,297.61c0,2.95-5.34,5.34-11.92,5.34S396,300.56,396,297.61Z" style="fill: rgb(55, 71, 79); transform-origin: 407.92px 300.28px;" id="elosl8qgzn9q" class="animable"></path><rect x="366.08" y="262.57" width="83.69" height="34.32" style="fill: rgb(69, 90, 100); transform-origin: 407.925px 279.73px;" id="eloypzmpfpggd" class="animable"></rect><path d="M419.84,262.57c0,3-5.34,5.35-11.92,5.35S396,265.53,396,262.57Z" style="fill: rgb(55, 71, 79); transform-origin: 407.92px 265.245px;" id="el6t9fcf3cobp" class="animable"></path></g><g id="freepik--character-2--inject-65" class="animable" style="transform-origin: 303.391px 284.626px;"><path d="M400.41,391.15c-2.2,1.29-69.91,15.44-72.83,14.35-1.11-.41-3.75-10.15-6.6-22-.62-2.56-1.24-5.21-1.85-7.9-4-17.49-7.87-36.13-7.87-36.13l45.27-9.6,6.62,36.39,1.46,8S393,380.41,396,382,402.61,389.87,400.41,391.15Z" style="fill: rgb(201, 95, 80); transform-origin: 356.174px 367.715px;" id="eluvteg0aylnb" class="animable"></path><path d="M400.64,391.2c-2.22,1.3-70.3,15.53-73.24,14.43-1.36-.5-5-14.86-8.5-30.08l44.27-9.38,1.46,8s28.51,6.21,31.6,7.76S402.85,389.91,400.64,391.2Z" style="fill: #B465C3; transform-origin: 360.116px 385.93px;" id="el1f4ap63x9yzh" class="animable"></path><path d="M399.09,388.68c-11.47,2.11-57.54,11.69-68.72,14.64-.09,0-.08.09,0,.07,11.42-1.84,57.41-11.79,68.75-14.52C399.37,388.81,399.33,388.64,399.09,388.68Z" style="fill: rgb(38, 50, 56); transform-origin: 364.798px 396.033px;" id="elwclmdfm9di" class="animable"></path><path d="M365.71,371.32c-4.67.1-10,1.94-12.78,5.86-.1.15.11.3.25.23a63.86,63.86,0,0,1,12.63-5.51A.3.3,0,0,0,365.71,371.32Z" style="fill: rgb(38, 50, 56); transform-origin: 359.453px 374.374px;" id="elp1osap4s8dc" class="animable"></path><path d="M369.36,372.6c-4.67.1-10,1.94-12.78,5.86-.1.15.11.3.25.22a65.05,65.05,0,0,1,12.63-5.51A.29.29,0,0,0,369.36,372.6Z" style="fill: rgb(38, 50, 56); transform-origin: 363.117px 375.65px;" id="el89v9aelvxri" class="animable"></path><path d="M373,373.88c-4.66.1-10,1.93-12.78,5.85-.1.15.11.3.25.23a63.86,63.86,0,0,1,12.63-5.51A.29.29,0,0,0,373,373.88Z" style="fill: rgb(38, 50, 56); transform-origin: 366.757px 376.928px;" id="elf23js1htost" class="animable"></path><path d="M376.66,375.15c-4.66.1-10,1.94-12.78,5.86-.1.15.11.3.25.22a65.05,65.05,0,0,1,12.63-5.51A.29.29,0,0,0,376.66,375.15Z" style="fill: rgb(38, 50, 56); transform-origin: 370.417px 378.2px;" id="elyqzxy7k2ns" class="animable"></path><path d="M371.84,359.2c-2.28-2.06-5.34-.28-6.88,1.69a24.56,24.56,0,0,0-4.77,11.73.12.12,0,0,0,.14.14.57.57,0,0,0,.82.42c3.43-2.15,7.35-4,10-7.16C372.71,364.19,374,361.15,371.84,359.2Zm-6.17,9.66c-1.65,1.1-3.35,2.11-5,3.26a74,74,0,0,1,2.94-6.79,25.18,25.18,0,0,1,1.84-3.07c1.08-1.49,5.83-5.19,6.07-.09C371.68,365,367.65,367.55,365.67,368.86Z" style="fill: rgb(38, 50, 56); transform-origin: 366.585px 365.762px;" id="eltvukutszom9" class="animable"></path><path d="M348.53,373.84c4,.8,8.27-.17,12.29-.61a.57.57,0,0,0,.39-.83.13.13,0,0,0,0-.2,24.61,24.61,0,0,0-11-6.24c-2.43-.58-5.93-.07-6.43,3C343.29,371.78,346.18,373.37,348.53,373.84Zm-2.7-2.78c-3-4.14,3-4.2,4.82-3.7a26.47,26.47,0,0,1,3.35,1.26c2.28,1,4.37,2.29,6.52,3.5-2,.1-3.95.36-5.93.53C352.23,372.86,347.48,373.34,345.83,371.06Z" style="fill: rgb(38, 50, 56); transform-origin: 352.502px 369.948px;" id="elm082rlpc7we" class="animable"></path><path d="M338.15,428.45c-2.46.68-71.54-2.88-74.08-4.69-1-.67-1.28-28.41-.55-31.07,2.45-9,13.22-36.26,13.22-36.26L323,358.69l-14.5,36.19-.62,8.09s25.84,13.2,28.42,15.47S340.6,427.77,338.15,428.45Z" style="fill: rgb(201, 95, 80); transform-origin: 301.221px 392.483px;" id="elvrusagdvaor" class="animable"></path><path d="M338.35,428.56c-2.46.69-71.93-2.9-74.49-4.71-1.19-.84-1-15.64-.56-31.25l45.2,2.2-.63,8.14s26,13.27,28.58,15.56S340.82,427.87,338.35,428.56Z" style="fill: #B465C3; transform-origin: 301.245px 410.623px;" id="elmzsxifi4vg8" class="animable"></path><path d="M337.5,425.73c-11.63-.89-58.62-3.37-70.18-3.36-.1,0-.1.06,0,.07,11.51,1.13,58.52,3.23,70.18,3.48C337.74,425.93,337.75,425.75,337.5,425.73Z" style="fill: rgb(38, 50, 56); transform-origin: 302.464px 424.145px;" id="eljq7g39i2z7k" class="animable"></path><path d="M309.65,400.44c-4.54-1.1-10.18-.68-13.85,2.4-.14.12,0,.32.18.28A64.49,64.49,0,0,1,309.6,401,.29.29,0,0,0,309.65,400.44Z" style="fill: rgb(38, 50, 56); transform-origin: 302.793px 401.507px;" id="ell5o9wm9dbh" class="animable"></path><path d="M312.85,402.6c-4.54-1.09-10.18-.68-13.85,2.41-.14.12,0,.32.18.28a64.69,64.69,0,0,1,13.62-2.11A.29.29,0,0,0,312.85,402.6Z" style="fill: rgb(38, 50, 56); transform-origin: 306.029px 403.674px;" id="elkyfhvu31q2o" class="animable"></path><path d="M316.06,404.76c-4.54-1.09-10.18-.67-13.85,2.41-.14.12,0,.32.18.28A64.49,64.49,0,0,1,316,405.34.3.3,0,0,0,316.06,404.76Z" style="fill: rgb(38, 50, 56); transform-origin: 309.206px 405.835px;" id="el3lu4t2ghgii" class="animable"></path><path d="M319.26,406.93c-4.54-1.09-10.18-.68-13.85,2.4-.14.12,0,.32.18.29a64.05,64.05,0,0,1,13.62-2.11A.29.29,0,0,0,319.26,406.93Z" style="fill: rgb(38, 50, 56); transform-origin: 312.44px 408.003px;" id="eldwtkg8f379j" class="animable"></path><path d="M318.66,390.28c-1.67-2.58-5.08-1.63-7.08-.13a24.57,24.57,0,0,0-7.6,10.14c0,.09,0,.15.1.17a.57.57,0,0,0,.69.61c3.85-1.21,8.13-2,11.5-4.37C318.24,395.32,320.24,392.71,318.66,390.28ZM310.24,398c-1.88.64-3.78,1.18-5.64,1.89a73.07,73.07,0,0,1,4.57-5.82,26.29,26.29,0,0,1,2.56-2.5c1.43-1.17,7-3.53,5.89,1.46C317,395.82,312.48,397.28,310.24,398Z" style="fill: rgb(38, 50, 56); transform-origin: 311.605px 394.877px;" id="elvthbi2cnan" class="animable"></path><path d="M292.4,398.49c3.69,1.8,8,1.95,12,2.54a.57.57,0,0,0,.59-.71.12.12,0,0,0,.07-.18A24.5,24.5,0,0,0,296,391.3c-2.21-1.18-5.72-1.59-7,1.21S290.24,397.43,292.4,398.49Zm-1.9-3.38c-1.83-4.76,4-3.28,5.59-2.34a26.09,26.09,0,0,1,2.92,2.07,71.81,71.81,0,0,1,5.41,5.05c-1.94-.42-3.9-.66-5.86-1C296.22,398.48,291.5,397.74,290.5,395.11Z" style="fill: rgb(38, 50, 56); transform-origin: 296.866px 395.714px;" id="elabgsc9ajh8m" class="animable"></path><path d="M232.13,289.15c13.77,15.34,60,3.23,62.8,9.33,2.43,5.38-31.43,89.41-31.43,89.41l49,4.46s47.44-92.07,31.85-119.65c-8.42-14.9-45.52-9-67.91-11.68-6.75-.83-9.92-14.75-9.92-14.75h-40S216.4,271.62,232.13,289.15Z" style="fill: rgb(69, 90, 100); transform-origin: 285.405px 319.31px;" id="elf5zpucjyrvi" class="animable"></path><path d="M330.29,264.15l-42.42,32.47c-14.09-.3-44.92,4.58-55.73-7.47-15.75-17.53-5.65-42.88-5.65-42.88h40s3.17,13.93,9.92,14.75C292.13,262.92,315.08,260.58,330.29,264.15Z" style="fill: rgb(38, 50, 56); transform-origin: 276.796px 271.81px;" id="el0m64mxueh51k" class="animable"></path><path d="M315.29,382.82c-1.39-.43-14.49-1.89-17.38-2.21-5.78-.62-24-2.32-27.29-2.31a.08.08,0,0,0,0,.15c2.86.6,14.48,2,17.37,2.26,5.79.59,25.68,2.52,27.29,2.36A.13.13,0,0,0,315.29,382.82Z" style="fill: rgb(38, 50, 56); transform-origin: 292.974px 380.69px;" id="el8mcpx0jnomk" class="animable"></path><path d="M301.45,292.67c-3.25-1.62-19.53-1-26.4-1.14l-10.35-.24c-3.06-.07-6.13-.11-9.18-.34-5.77-.44-11.53-1.77-15.93-5.54a26.39,26.39,0,0,1-7.86-13c-1.7-6-1.52-12.33-1.23-18.52.07-1.52.17-3,.27-4.56,0-.09-.15-.11-.16,0-1.35,11.08-2.37,23.45,4.83,33.05a22.88,22.88,0,0,0,12.88,8.45c5.91,1.49,12.17,1.33,18.24,1.46l20.45.46c3.41.08,12,.19,13.44,1.27,1.68,1.28-8.05,31.35-10.38,37.46q-7,18.4-13.87,36.89c-.55,1.49-2.09,5.78-2.61,7.28-.09.29.4.48.52.2,2.56-6.05,5.86-15,8.25-21.12s4.77-12.18,7.12-18.27C294.23,324.18,304.28,294.08,301.45,292.67Z" style="fill: rgb(38, 50, 56); transform-origin: 265.795px 312.621px;" id="elbm0t4ausjsj" class="animable"></path><path d="M346.14,275.37c-2.68-5.92-7.81-9.81-15.8-11.25-.14,0-.13.17,0,.21,7,2,11.92,4.76,14.82,10.57a25.79,25.79,0,0,1,2.16,11.94c-.35,11.7-4.52,28.63-6.9,36.74s-5.22,16.09-8.26,24-10,24.39-10.5,25.41a.08.08,0,0,0,.14.08c3.17-5.35,13-29.24,18.55-46.63C343,318.18,351.91,288.06,346.14,275.37Z" style="fill: rgb(38, 50, 56); transform-origin: 334.848px 318.615px;" id="elv1zn4yh0l8c" class="animable"></path><path d="M364.41,363.94l-42.7,9.1s34.62-91,20.45-102.66c-3.93-3.22-12.49-4.34-22.67.05-15.2,6.57-32.79,19.95-49.38,24.85-15.53,4.58-34,.36-40.31-6.62-13.33-14.67-3.31-42.41-3.31-42.41L274,244.19s-1,2.11,1.64,4.44c0,0,40.05-8.78,54.1-.19C355,263.92,364.41,363.94,364.41,363.94Z" style="fill: rgb(69, 90, 100); transform-origin: 293.643px 308.615px;" id="elxms8wx3of9k" class="animable"></path><path d="M250.26,249.47a.1.1,0,0,0-.19,0,31.07,31.07,0,0,1-.48,6.17,10.75,10.75,0,0,1-2.77,5.13c-3,3.05-7.34,4.08-11.29,5.33-.21.07-.17.43.06.4,4.39-.68,9-1.79,12.21-5.08a10.62,10.62,0,0,0,2.83-5.52A13.22,13.22,0,0,0,250.26,249.47Z" style="fill: rgb(38, 50, 56); transform-origin: 243.129px 257.951px;" id="el064t06pnnvgs" class="animable"></path><path d="M341.21,268.66c-5.88-3.69-15.07-.88-19.47.8-.1,0-.05.19,0,.15,4.05-1.46,14.12-3.66,19.51.16,12.45,8.81-7.12,66.67-19.58,102.78-.18.52.24.38.47-.11,1.8-3.94,20.13-52.57,23.19-75.62C345.93,292.55,349.69,274,341.21,268.66Z" style="fill: rgb(38, 50, 56); transform-origin: 334.151px 319.863px;" id="elnc9n3p0mjt" class="animable"></path><path d="M359.17,355.15c-1.16,0-11.07,2.16-13.26,2.65-4.36,1-18,4.33-20.39,5.23-.06,0,0,.15.05.15,2.27-.22,11.08-2.1,13.26-2.6,4.36-1,19.31-4.61,20.41-5.19C359.33,355.34,359.28,355.15,359.17,355.15Z" style="fill: rgb(38, 50, 56); transform-origin: 342.391px 359.165px;" id="elikyzhb4z28a" class="animable"></path><path d="M339.34,267.1c-4-2.17-8.67-2.52-13.06-2a45.68,45.68,0,0,0-13.35,4.18c-8.95,4.09-17.47,9.09-26.43,13.16s-18.42,7.21-28.23,7.51c-8.4.26-19-1.22-24.41-8.77-8.32-11.63-3.47-31.68-3.38-33,0-.1-.13-.09-.15,0-6.45,24.65,1.85,34.22,7.45,38.25,4.45,3.2,10.84,4,15.06,4.36,9.76.82,19.55-1.57,28.61-5.17,9.27-3.7,18-8.67,26.86-13.22,8.52-4.36,18-8.85,27.76-6.36a24.62,24.62,0,0,1,3.23,1.11C339.36,267.21,339.39,267.12,339.34,267.1Z" style="fill: rgb(38, 50, 56); transform-origin: 283.674px 269.53px;" id="elsfqa76qzbup" class="animable"></path><path d="M255,218.77a42.27,42.27,0,0,1-9.16,2.91c6.13-6.15,9.65-22.69,8.53-20.49-5.35,10.52-15.48,21-18.31,20.89,0,0,0,0,0,0a31.84,31.84,0,0,1-18.1-8.91l0,0c7.62-6.79,11.63-23.49,11-22.57-6.83,9.82-16.84,14-18.29,13.64h0c-4.08-6.53-5.88-14.78-5-15.11,6.56-2.37,14.06-8.58,21-17.84h0c6.84-9.13,11.46-18.29,19.74-25.89,7.59-7,18.91-5.75,24,.09C283.76,160.75,259.14,216.94,255,218.77Z" style="fill: rgb(38, 50, 56); transform-origin: 239.895px 181.349px;" id="el859ek8dq1xv" class="animable"></path><path d="M257.62,140.63a17.69,17.69,0,0,0-4.28.94,22.15,22.15,0,0,0-3.9,1.94,38.84,38.84,0,0,0-6.83,5.37,93.83,93.83,0,0,0-11.18,13.48,136.64,136.64,0,0,1-11.18,13.86,50.39,50.39,0,0,1-6.7,5.93,30,30,0,0,1-7.89,4.15,33.87,33.87,0,0,0,7.28-4.92,60.29,60.29,0,0,0,6.16-6.22c3.82-4.42,7.24-9.21,10.72-14,1.76-2.35,3.5-4.78,5.45-7.05a60.33,60.33,0,0,1,6.29-6.4,35.16,35.16,0,0,1,7.41-5.08,23.89,23.89,0,0,1,4.22-1.59A14.76,14.76,0,0,1,257.62,140.63Z" style="fill: rgb(38, 50, 56); transform-origin: 231.64px 163.452px;" id="elm0hyaz12qg" class="animable"></path><path d="M255.18,197.52c10.14,19.25,23.49,30.29,30.21,32.87,5.42,2.08,53.31,5.49,54.69,5.29,3.4-.52,5.78-24,2.81-26.17-.68-.5-48.86,1.37-50.35.46s-16.08-9.7-27.6-19.26C257,184.09,248.7,185.21,255.18,197.52Z" style="fill: rgb(201, 95, 80); transform-origin: 298.547px 211.195px;" id="elir2cdxlor2" class="animable"></path><path d="M248.71,190.45c1.88,5.65,8.4,16,8.4,16l21.25-6.57S263.87,187.09,254,183.27C250.08,181.74,246.81,184.74,248.71,190.45Z" style="fill: #B465C3; transform-origin: 263.257px 194.662px;" id="elklth8vjryn" class="animable"></path><path d="M256.37,203.48c3.09-1.18,6.19-2.32,9.35-3.32,1.57-.5,3.15-1,4.74-1.43s3.22-.74,4.8-1.21c.09,0,.12.12,0,.14-1.6.39-3.16,1-4.74,1.47l-4.74,1.46c-3.14,1-6.3,2-9.42,3C256.31,203.65,256.28,203.52,256.37,203.48Z" style="fill: rgb(38, 50, 56); transform-origin: 265.826px 200.563px;" id="eld59180lb5no" class="animable"></path><path d="M257,190.12a7.56,7.56,0,0,0-3.53-1.1,6.81,6.81,0,0,0,1.7.76A7,7,0,0,0,257,190.12Z" style="fill: rgb(255, 255, 255); transform-origin: 255.235px 189.57px;" id="el2f9k4rtpcxe" class="animable"></path><path d="M260.16,200.92a6.88,6.88,0,0,0,1.74-.66,6.61,6.61,0,0,0,1.54-1.06,7,7,0,0,0-1.75.66A7.48,7.48,0,0,0,260.16,200.92Z" style="fill: rgb(255, 255, 255); transform-origin: 261.8px 200.06px;" id="elkxx6lj5mjy" class="animable"></path><path d="M263.38,188.24A7.73,7.73,0,0,0,264,190a7.54,7.54,0,0,0,1.06,1.54,7,7,0,0,0-.66-1.75A6.77,6.77,0,0,0,263.38,188.24Z" style="fill: rgb(255, 255, 255); transform-origin: 264.22px 189.89px;" id="elqntpg48ausa" class="animable"></path><path d="M248.71,190.45c.1.32.22.65.35,1s.21.52.34.8a101.75,101.75,0,0,0,7.71,14.18l.85-.26.82-.25,6.68-2.07,1-.3,6.66-2.07.85-.26,2.45-.77L254,183.27C249.87,182.47,246.83,184.73,248.71,190.45Z" style="fill: rgb(38, 50, 56); transform-origin: 262.281px 194.772px;" id="elkcam5t5v2x9" class="animable"></path><path d="M280.74,245.1s-20,7.08-59.35,7.9c0,0,10-50.25,20.87-64.67,4.94-6.57,10.49-6.24,15.53-2.9,1.26.83,17.51,17.45,19.4,23.65,1.67,5.47-2.21,12.17-2.21,12.17Z" style="fill: #B465C3; transform-origin: 251.065px 218.05px;" id="ele0qbfvmygmk" class="animable"></path><path d="M238.71,230.12a6.5,6.5,0,0,0,.77-1.7,6.58,6.58,0,0,0,.33-1.83,7.88,7.88,0,0,0-1.1,3.53Z" style="fill: rgb(255, 255, 255); transform-origin: 239.26px 228.355px;" id="eltmjeezuac6" class="animable"></path><path d="M253.24,207.48a7.41,7.41,0,0,0,.77-1.7,7,7,0,0,0,.33-1.83,7.56,7.56,0,0,0-1.1,3.53Z" style="fill: rgb(255, 255, 255); transform-origin: 253.79px 205.715px;" id="eljz6l3ktrvx" class="animable"></path><path d="M227.49,250.4a6.65,6.65,0,0,0,.77-1.7,6.58,6.58,0,0,0,.33-1.83,6.81,6.81,0,0,0-.76,1.7A7,7,0,0,0,227.49,250.4Z" style="fill: rgb(255, 255, 255); transform-origin: 228.04px 248.635px;" id="eln949fnrw9xf" class="animable"></path><path d="M263.24,232.48a7.47,7.47,0,0,0,1.1-3.53,7.15,7.15,0,0,0-.76,1.7A7,7,0,0,0,263.24,232.48Z" style="fill: rgb(255, 255, 255); transform-origin: 263.79px 230.715px;" id="el8n5jn1fjoqy" class="animable"></path><path d="M246.18,188.22a7.47,7.47,0,0,0,1.1-3.53,7.15,7.15,0,0,0-.76,1.7A7,7,0,0,0,246.18,188.22Z" style="fill: rgb(255, 255, 255); transform-origin: 246.73px 186.455px;" id="elzilunko8rhk" class="animable"></path><path d="M253.35,225.75a6.91,6.91,0,0,0-1.69-.76,7,7,0,0,0-1.84-.34,6.81,6.81,0,0,0,1.7.77A7,7,0,0,0,253.35,225.75Z" style="fill: rgb(255, 255, 255); transform-origin: 251.585px 225.2px;" id="elx384a4u925a" class="animable"></path><path d="M271.88,213.86a7.15,7.15,0,0,0-1.7-.76,6.58,6.58,0,0,0-1.83-.33,6.91,6.91,0,0,0,1.69.76A6.71,6.71,0,0,0,271.88,213.86Z" style="fill: rgb(255, 255, 255); transform-origin: 270.115px 213.315px;" id="elf4v452l3yv7" class="animable"></path><path d="M257,190.12a7.56,7.56,0,0,0-3.53-1.1,6.81,6.81,0,0,0,1.7.76A7,7,0,0,0,257,190.12Z" style="fill: rgb(255, 255, 255); transform-origin: 255.235px 189.57px;" id="elg811vrpgzmw" class="animable"></path><path d="M263.76,244.74a7.41,7.41,0,0,0-1.7-.77,7,7,0,0,0-1.83-.33,7.56,7.56,0,0,0,3.53,1.1Z" style="fill: rgb(255, 255, 255); transform-origin: 261.995px 244.19px;" id="el9bebxjmma0e" class="animable"></path><path d="M237.91,204.65a6.81,6.81,0,0,0-1.7-.76,7,7,0,0,0-1.83-.34,6.65,6.65,0,0,0,1.7.77A7,7,0,0,0,237.91,204.65Z" style="fill: rgb(255, 255, 255); transform-origin: 236.145px 204.1px;" id="el6p2z7ythbnf" class="animable"></path><path d="M238.45,242.17a6.84,6.84,0,0,0-1.7-.77,7,7,0,0,0-1.83-.33,7.88,7.88,0,0,0,3.53,1.1Z" style="fill: rgb(255, 255, 255); transform-origin: 236.685px 241.62px;" id="el0bn1i2a0ljbv" class="animable"></path><path d="M247.59,236.54a7,7,0,0,0,1.75-.66,6.77,6.77,0,0,0,1.53-1.06,6.88,6.88,0,0,0-1.74.66A7.54,7.54,0,0,0,247.59,236.54Z" style="fill: rgb(255, 255, 255); transform-origin: 249.23px 235.68px;" id="el611za4a93ps" class="animable"></path><path d="M271.37,225.52a7,7,0,0,0,1.75-.66,6.77,6.77,0,0,0,1.53-1.06,6.74,6.74,0,0,0-1.74.66A7.28,7.28,0,0,0,271.37,225.52Z" style="fill: rgb(255, 255, 255); transform-origin: 273.01px 224.66px;" id="elrbp1h956xfk" class="animable"></path><path d="M242.63,214.26a7,7,0,0,0,1.74-.66,7.22,7.22,0,0,0,1.53-1.06,6.88,6.88,0,0,0-1.74.66A6.55,6.55,0,0,0,242.63,214.26Z" style="fill: rgb(255, 255, 255); transform-origin: 244.265px 213.4px;" id="elp4zo4de23y" class="animable"></path><path d="M260.16,200.92a6.88,6.88,0,0,0,1.74-.66,6.61,6.61,0,0,0,1.54-1.06,7,7,0,0,0-1.75.66A7.48,7.48,0,0,0,260.16,200.92Z" style="fill: rgb(255, 255, 255); transform-origin: 261.8px 200.06px;" id="eldnk8cdn74yu" class="animable"></path><path d="M226.52,234.6a6.88,6.88,0,0,0,1.74-.66,7.28,7.28,0,0,0,1.54-1.06,7,7,0,0,0-1.75.66A6.77,6.77,0,0,0,226.52,234.6Z" style="fill: rgb(255, 255, 255); transform-origin: 228.16px 233.74px;" id="el0fwbsv5e7otq" class="animable"></path><path d="M231.34,216.34a7,7,0,0,0,.66,1.74,6.87,6.87,0,0,0,1.06,1.53,6.88,6.88,0,0,0-.66-1.74A7.22,7.22,0,0,0,231.34,216.34Z" style="fill: rgb(255, 255, 255); transform-origin: 232.2px 217.975px;" id="elwv6eldk31o" class="animable"></path><path d="M259.25,215.92a6.88,6.88,0,0,0,.66,1.74,6.55,6.55,0,0,0,1.06,1.53,7,7,0,0,0-.66-1.74A7.22,7.22,0,0,0,259.25,215.92Z" style="fill: rgb(255, 255, 255); transform-origin: 260.11px 217.555px;" id="elcj0ot2tckd7" class="animable"></path><path d="M272.23,238.78a7,7,0,0,0,.66,1.74,6.55,6.55,0,0,0,1.06,1.53,6.88,6.88,0,0,0-.66-1.74A7.22,7.22,0,0,0,272.23,238.78Z" style="fill: rgb(255, 255, 255); transform-origin: 273.09px 240.415px;" id="ellwwnsvi4k" class="animable"></path><path d="M246,245.53a7.8,7.8,0,0,0,1.71,3.27,6.86,6.86,0,0,0-.65-1.74A7.22,7.22,0,0,0,246,245.53Z" style="fill: rgb(255, 255, 255); transform-origin: 246.855px 247.165px;" id="elhreve8pzgzt" class="animable"></path><path d="M243.36,195.06a6.88,6.88,0,0,0,.66,1.74,6.55,6.55,0,0,0,1.06,1.53,7,7,0,0,0-.66-1.74A7.48,7.48,0,0,0,243.36,195.06Z" style="fill: rgb(255, 255, 255); transform-origin: 244.22px 196.695px;" id="elcps9ph67d9o" class="animable"></path><path d="M270.87,201.66a7,7,0,0,0,.66,1.74,6.87,6.87,0,0,0,1.06,1.53,7.67,7.67,0,0,0-1.72-3.27Z" style="fill: rgb(255, 255, 255); transform-origin: 271.73px 203.295px;" id="el7p6c65frwkx" class="animable"></path><path d="M248.7,185.21c.16,1.07,4.67,8.28,9.49,8.42,1.57,0,2.19-8.52,2.19-8.52l.19-.62,2.65-8.71-9.9-7.47-1.43-1s-.57,2.43-1.25,5.47c0,.14-.06.28-.1.43s-.08.33-.11.49c-.11.45-.22.91-.32,1.38s-.15.69-.21,1.06-.14.74-.22,1.11A57,57,0,0,0,248.7,185.21Z" style="fill: rgb(201, 95, 80); transform-origin: 255.96px 180.47px;" id="elzpk5gasnmy" class="animable"></path><path d="M250.64,172.78a18.26,18.26,0,0,0,9.93,11.71l2.65-8.71-9.9-7.47-1.43-1S251.32,169.74,250.64,172.78Z" style="fill: rgb(38, 50, 56); transform-origin: 256.93px 175.9px;" id="elfm6jhgwi5es" class="animable"></path><path d="M275.69,163.56c-1.3,15.92-11,16.94-14.42,16.66-3.11-.26-13.69-1.54-14-17.51s7.46-20.4,14.62-20.18S277,147.64,275.69,163.56Z" style="fill: rgb(201, 95, 80); transform-origin: 261.547px 161.389px;" id="elitimd450eb" class="animable"></path><path d="M273.66,160.63c-.36-.09-.69-.22-1.05-.34a1.81,1.81,0,0,1-1-.55.56.56,0,0,1,.07-.69,1.39,1.39,0,0,1,1.42-.18,2,2,0,0,1,1.21.86A.61.61,0,0,1,273.66,160.63Z" style="fill: rgb(38, 50, 56); transform-origin: 272.956px 159.697px;" id="elz84o2o4w4j" class="animable"></path><path d="M262.77,159.46a10,10,0,0,0,1.1-.11A1.79,1.79,0,0,0,265,159a.57.57,0,0,0,.07-.69,1.43,1.43,0,0,0-1.35-.47,2.08,2.08,0,0,0-1.37.6A.6.6,0,0,0,262.77,159.46Z" style="fill: rgb(38, 50, 56); transform-origin: 263.667px 158.637px;" id="el1bd7qb0os4m" class="animable"></path><path d="M264.89,163.62s-.09,0-.1.09c-.05,1.09-.29,2.32-1.3,2.6,0,0,0,.07,0,.07C264.7,166.3,265,164.66,264.89,163.62Z" style="fill: rgb(38, 50, 56); transform-origin: 264.201px 165px;" id="elbvfhbf8ee1n" class="animable"></path><path d="M264,162.41c-1.73-.27-2.15,3.22-.55,3.47S265.46,162.64,264,162.41Z" style="fill: rgb(38, 50, 56); transform-origin: 263.675px 164.144px;" id="el1hv9lxzx5hm" class="animable"></path><path d="M263.3,162.51c-.33.17-.67.48-1,.47s-.7-.41-.94-.8c0,0-.06,0-.06,0-.09.66.08,1.38.78,1.56s1.19-.36,1.43-1C263.52,162.65,263.43,162.45,263.3,162.51Z" style="fill: rgb(38, 50, 56); transform-origin: 262.394px 162.978px;" id="eld4sh3expikv" class="animable"></path><path d="M270.92,164.11s.07.06.07.11c-.17,1.07-.19,2.33.74,2.82a0,0,0,1,1,0,.05C270.54,166.77,270.58,165.1,270.92,164.11Z" style="fill: rgb(38, 50, 56); transform-origin: 271.221px 165.6px;" id="eldgq25340glk" class="animable"></path><path d="M272,163.11c1.76.09,1.45,3.59-.18,3.5S270.55,163,272,163.11Z" style="fill: rgb(38, 50, 56); transform-origin: 271.967px 164.86px;" id="elf9o0cliavqm" class="animable"></path><path d="M272.73,163.4c.26.21.51.57.83.62s.7-.29,1-.63c0,0,0,0,0,0,0,.67-.32,1.35-1,1.42s-1-.55-1.07-1.23C272.52,163.5,272.63,163.32,272.73,163.4Z" style="fill: rgb(38, 50, 56); transform-origin: 273.525px 164.098px;" id="elrvw3epc4e9o" class="animable"></path><path d="M263.7,172.47c.22.3.42.68.8.78a2.72,2.72,0,0,0,1.2-.08,0,0,0,0,1,0,.07,1.46,1.46,0,0,1-1.45.35,1.13,1.13,0,0,1-.69-1.09C263.58,172.44,263.67,172.43,263.7,172.47Z" style="fill: rgb(38, 50, 56); transform-origin: 264.629px 173.05px;" id="elvwuorlk6ame" class="animable"></path><path d="M268.64,169.05s.05,1.64,0,2.4c0,.07-.2.09-.46.07h0a3.63,3.63,0,0,1-3.37-1.73.08.08,0,0,1,.13-.09,5.51,5.51,0,0,0,3.2,1.3c.08-.2-.18-2.8-.05-2.8a6.47,6.47,0,0,1,1.68.58c0-3.42-.55-6.81-.5-10.21,0-.12.18-.14.2,0a55.66,55.66,0,0,1,1,11C270.44,170,268.93,169.21,268.64,169.05Z" style="fill: rgb(38, 50, 56); transform-origin: 267.637px 165.001px;" id="el3334f0nw3aa" class="animable"></path><path d="M268.08,171.15a4.42,4.42,0,0,1-1.82,1.31,2,2,0,0,1-1.21,0c-.87-.26-.87-1.06-.68-1.75a4.59,4.59,0,0,1,.43-1A5.76,5.76,0,0,0,268.08,171.15Z" style="fill: rgb(38, 50, 56); transform-origin: 266.174px 171.132px;" id="eldyhzovfkks5" class="animable"></path><path d="M266.26,172.46a2,2,0,0,1-1.21,0c-.87-.26-.87-1.06-.68-1.75A2.07,2.07,0,0,1,266.26,172.46Z" style="fill: rgb(255, 155, 188); transform-origin: 265.264px 171.632px;" id="eldqjge2z76yd" class="animable"></path><path d="M248.31,164c1.73,0,6.47-4.59,7-13,0,0-1,7.48-1.6,8.56s2.64-2.57,3.16-9.32a27.41,27.41,0,0,0,6.77,3.91c3.15,1,5.1,1.1,5.34.88s-4.39-1.92-5.59-3.44c0,0,8.31,4.33,12.2,4.81.46.05,1.42-9.23-4.45-13.45s-15.65-.4-18.34,2c0,0-3,.29-6.53,4.62S246.43,164.07,248.31,164Z" style="fill: rgb(38, 50, 56); transform-origin: 260.372px 152.529px;" id="elavqhvgg5ev9" class="animable"></path><path d="M246.72,168.58a3.43,3.43,0,0,0,.69.31,2.32,2.32,0,0,0,.74.15,2.11,2.11,0,0,0,1-.14,2.67,2.67,0,0,0,.67-.36,3.14,3.14,0,0,0,.75-.78l-.16-4.36s-2.61-5.5-5-4.65S244.26,167.17,246.72,168.58Z" style="fill: rgb(201, 95, 80); transform-origin: 247.348px 163.856px;" id="ellwsdqjlhyr" class="animable"></path><path d="M245.77,160.91s-.05.05,0,.07c1.71,1.05,2.39,2.92,2.76,4.8a1.5,1.5,0,0,0-2.13-.78s0,.11,0,.11a1.65,1.65,0,0,1,1.7.88,8.16,8.16,0,0,1,.62,1.6c.06.18.37.14.34-.06v0C249.51,165.15,248.25,161.57,245.77,160.91Z" style="fill: rgb(38, 50, 56); transform-origin: 247.449px 164.307px;" id="elm4hcarvrwm8" class="animable"></path><path d="M247.05,168a.73.73,0,0,0,.76.71.74.74,0,0,0,.72-.76.75.75,0,0,0-.77-.72A.75.75,0,0,0,247.05,168Z" style="fill: rgb(255, 255, 255); transform-origin: 247.79px 167.97px;" id="elvn9fo7rqu6" class="animable"></path><path d="M245.73,166.6a.53.53,0,1,0,.51-.54A.53.53,0,0,0,245.73,166.6Z" style="fill: rgb(255, 255, 255); transform-origin: 246.26px 166.59px;" id="elyd7rzaeahuc" class="animable"></path><path d="M240,191.46c-8.67,18.1-19.33,47.89-10.91,52.27,13.84,7.2,49.48,5.55,57.6,4.84,3.5-.3,6.9-30,3.2-29.38-4.89.83-40.2,6.12-40.93,3.94-.41-1.24.27-12.74,1-27C250.75,179.62,242.45,186.28,240,191.46Z" style="fill: rgb(201, 95, 80); transform-origin: 258.757px 217.447px;" id="eltgoyedefgoj" class="animable"></path><path d="M319.28,219.25c.13,3.8-10.68,3.23-13.35,3.66s-3.05,1.13-1.67,1.87a3.9,3.9,0,0,0,.89.28c-4.21-.71-18.22-5-18.22-5s8.21-3.05,12.57-4.09S319.16,215.43,319.28,219.25Z" style="fill: rgb(201, 95, 80); transform-origin: 303.106px 220.279px;" id="elfgegriz1o8b" class="animable"></path><path d="M338.31,203.58s-1.14-3.41,1.47-4.69,8.39-3.47,9.4-4.2l1.78-.3-8.1,43.72-11.38,7.13-31.1-6.36,6.1-41.4,1.81-.34s3.44.87,6.26,1.26S331.05,199,338.31,203.58Z" style="fill: rgb(255, 255, 255); transform-origin: 325.67px 219.815px;" id="el0p2yeo1l9m7" class="animable"></path><polygon points="329.22 246.59 336.23 204.56 305.32 197.19 298.93 240 329.22 246.59" style="fill: rgb(55, 71, 79); transform-origin: 317.58px 221.89px;" id="elsbwaxrx5a8d" class="animable"></polygon><polygon points="329.22 246.59 333.04 246.43 340.08 204.4 336.23 204.56 329.22 246.59" style="fill: rgb(38, 50, 56); transform-origin: 334.65px 225.495px;" id="eluh0zkm91l4s" class="animable"></polygon><polygon points="333.04 246.43 340.08 204.4 351.69 193.93 343.31 238.47 333.04 246.43" style="fill: rgb(55, 71, 79); transform-origin: 342.365px 220.18px;" id="elhe2am9btvfn" class="animable"></polygon><path d="M328.07,234.05c0,3.37-5.22,4.67-5.58,4.76.32-.05,4.94-.68,4.65,2.67s-4.82,5.42-4.82,5.42,1.58.74.27,3.1c-1.89,3.37-10.13,4.67-14.6,4.33s-20.56-4.88-23-5.63l2-28.68s14,4.33,18.22,5h.06a70.94,70.94,0,0,0,8.83,1.18c4.7.17,11-3.48,11.93-.11.81,3-3.82,5.12-3.82,5.12S328.14,230.57,328.07,234.05Z" style="fill: rgb(201, 95, 80); transform-origin: 306.53px 237.201px;" id="elzc2ywoxxfhr" class="animable"></path><path d="M321.89,231.25c-6.66,2.48-10,2.42-16.85,1-.13,0-.2.16-.06.2,6.57,2,10.75,2.7,17-.87C322.33,231.39,322.2,231.13,321.89,231.25Z" style="fill: rgb(38, 50, 56); transform-origin: 313.546px 232.662px;" id="elyuip2593ht" class="animable"></path><path d="M322.74,238.64c-7.14,2-10.76,1.93-18,1-.1,0-.14.16,0,.18,7.06,1.55,11.24,2.14,18.12-.76C323.1,238.88,323.07,238.55,322.74,238.64Z" style="fill: rgb(38, 50, 56); transform-origin: 313.833px 239.867px;" id="ely0are1zwhuh" class="animable"></path><path d="M322.23,246.86c-7.05,1.41-11,1.54-18-.31a.13.13,0,0,0-.08.25c6.9,2.58,11.86,2.46,18.07.28C322.67,246.93,322.67,246.77,322.23,246.86Z" style="fill: rgb(38, 50, 56); transform-origin: 313.309px 247.635px;" id="elkcy9w7kt7ym" class="animable"></path><path d="M351.71,203.31c2.1,3.33,6.86,7.19,7.55,10a3.35,3.35,0,0,1-1.41,3.74s3,1.08,3.26,3.76c.1,1.38-2,2.76-2,2.76a4,4,0,0,1,2.45,3.37c0,1.91-2.09,3-2.09,3s1.88,2,1.29,4c-1.2,4-17.46,5.95-20.71.27-1.51-2.64,2.49-2.92,2.49-2.92s-5.84-1-6.34-4.34,4.72-3.38,4.72-3.38-5.66-1-5.82-4.53,5.05-2.8,5.05-2.8-3.92-2-3.43-4.73c.81-4.5,8.33.11,11.79-1.18l1.25-6.13Z" style="fill: rgb(201, 95, 80); transform-origin: 348.328px 220.531px;" id="elvdnnlm71ym7" class="animable"></path><path d="M355.6,208c-1.72-3.32,2.06-8.14.87-11.55-1.61-4.61-6.37.68-6.72,7.71l.7,5.5Z" style="fill: rgb(201, 95, 80); transform-origin: 353.228px 202.189px;" id="elb3km2fdaf7n" class="animable"></path><path d="M359.15,230.2c.06,0,.08.06,0,.08a28.45,28.45,0,0,1-16.87,1.06c-.18-.05-.17-.36,0-.34A58.15,58.15,0,0,0,359.15,230.2Z" style="fill: rgb(38, 50, 56); transform-origin: 350.676px 231.174px;" id="elzy6kfglrgqj" class="animable"></path><path d="M359.19,223.63c.06,0,.08.09,0,.11a26.62,26.62,0,0,1-18.48,0c-.2-.09-.3-.37-.06-.29C344.79,224.77,354,224.71,359.19,223.63Z" style="fill: rgb(38, 50, 56); transform-origin: 349.876px 224.415px;" id="el5k6hiystwo3" class="animable"></path><path d="M339.76,215.92c5.84,2.1,11.78,2.11,17.87,1.25.08,0,.09.1,0,.13-2.86,1.23-6.8,1.38-9.88,1.23a16.45,16.45,0,0,1-8.09-2.4C339.59,216.07,339.63,215.88,339.76,215.92Z" style="fill: rgb(38, 50, 56); transform-origin: 348.66px 217.246px;" id="elug5uoxfvzjl" class="animable"></path><path d="M302.61,215.29a17.41,17.41,0,0,0-6.82,1.26c-2.24.78-4.42,1.61-6.73,2.17s-11.61,2.15-14.08,2.54c-.09,0-.09.19,0,.18,2.43-.33,11.61-1.55,13.9-2.06a58.61,58.61,0,0,0,6.88-2.08,27.79,27.79,0,0,1,6.78-1.74C302.67,215.55,302.71,215.3,302.61,215.29Z" style="fill: rgb(38, 50, 56); transform-origin: 288.789px 218.364px;" id="el5xxi2pbrpar" class="animable"></path><path d="M228.86,214.44l22.19-4.77s.34-11.4-.37-17.74c-.93-8.38-4.26-10-10.17-1.51C236.56,196.1,228.86,214.44,228.86,214.44Z" style="fill: #B465C3; transform-origin: 239.996px 199.617px;" id="elrhsau4rboua" class="animable"></path><path d="M246.18,188.22a7.47,7.47,0,0,0,1.1-3.53,7.15,7.15,0,0,0-.76,1.7A7,7,0,0,0,246.18,188.22Z" style="fill: rgb(255, 255, 255); transform-origin: 246.73px 186.455px;" id="el5lsbinqno1p" class="animable"></path><path d="M237.91,204.65a6.81,6.81,0,0,0-1.7-.76,7,7,0,0,0-1.83-.34,6.65,6.65,0,0,0,1.7.77A7,7,0,0,0,237.91,204.65Z" style="fill: rgb(255, 255, 255); transform-origin: 236.145px 204.1px;" id="eln2fqq2bhmjl" class="animable"></path><path d="M243.36,195.06a6.88,6.88,0,0,0,.66,1.74,6.55,6.55,0,0,0,1.06,1.53,7,7,0,0,0-.66-1.74A7.48,7.48,0,0,0,243.36,195.06Z" style="fill: rgb(255, 255, 255); transform-origin: 244.22px 196.695px;" id="el315x33m37pm" class="animable"></path><path d="M248.35,210.26c.23-.09,2.49-.66,2.66-.65,0-1.35,0-2.69,0-4q0-1,.06-2c0-.74,0-1.58.07-2.24,0-.1.13-.1.14,0,0,.85,0,1.49.08,2.23s.05,1.32.05,2c0,1.4.06,2.89,0,4.29a22.91,22.91,0,0,1-3.06.51S248.31,210.28,248.35,210.26Z" style="fill: rgb(38, 50, 56); transform-origin: 249.884px 205.847px;" id="elm5071gme999" class="animable"></path><path d="M230.66,211.86c3.18-.92,6.37-1.79,9.6-2.52,1.61-.37,3.23-.71,4.85-1s3.27-.46,4.89-.8c.09,0,.11.12,0,.14-1.63.25-3.23.73-4.84,1.07s-3.24.69-4.85,1.05c-3.22.71-6.44,1.43-9.64,2.22C230.6,212,230.58,211.88,230.66,211.86Z" style="fill: rgb(38, 50, 56); transform-origin: 240.342px 209.78px;" id="elkmnfz3ho0y" class="animable"></path></g><g id="freepik--Chair--inject-65" class="animable" style="transform-origin: 255.905px 320.255px;"><path d="M200.09,200.12c1.4-1,25.76-4.19,25.76-4.19l4.21,95.41h69.56l-3,14.62H214.34Z" style="fill: rgb(219, 219, 219); transform-origin: 249.855px 250.945px;" id="el8p03kb3fpfv" class="animable"></path><rect x="251.88" y="305.96" width="8.52" height="6.05" style="fill: rgb(166, 166, 166); transform-origin: 256.14px 308.985px;" id="elksjc7eckspg" class="animable"></rect><rect x="248.44" y="312.01" width="15.41" height="73.37" style="fill: rgb(199, 199, 199); transform-origin: 256.145px 348.695px;" id="elwy2srytdv2" class="animable"></rect><rect x="241.66" y="342.39" width="6.77" height="2.86" style="fill: rgb(166, 166, 166); transform-origin: 245.045px 343.82px;" id="el9y6vfds8nba" class="animable"></rect><rect x="227.88" y="340.89" width="13.78" height="5.88" style="fill: rgb(199, 199, 199); transform-origin: 234.77px 343.83px;" id="el2hunhi6a4uq" class="animable"></rect><rect x="245.97" y="385.39" width="19.87" height="17.92" style="fill: rgb(199, 199, 199); transform-origin: 255.905px 394.35px;" id="elocnru2282x" class="animable"></rect><polygon points="258.16 444.58 254.01 444.58 251.69 393.23 260.48 393.23 258.16 444.58" style="fill: rgb(166, 166, 166); transform-origin: 256.085px 418.905px;" id="elm3pxyc4pj2o" class="animable"></polygon><polygon points="201.78 435.69 198.1 432.88 245.97 390.57 245.97 403.31 201.78 435.69" style="fill: rgb(166, 166, 166); transform-origin: 222.035px 413.13px;" id="elol00jyfs9fn" class="animable"></polygon><polygon points="310.03 435.69 313.71 432.88 265.84 390.57 265.84 403.31 310.03 435.69" style="fill: rgb(166, 166, 166); transform-origin: 289.775px 413.13px;" id="elt6dwkre1hi" class="animable"></polygon><rect x="248.44" y="380.69" width="15.41" height="4.7" style="fill: rgb(166, 166, 166); transform-origin: 256.145px 383.04px;" id="elws2l1uf7pj" class="animable"></rect><polygon points="227.3 247.59 300.79 241.62 282.93 291.34 275.94 291.34 284.54 251.92 227.7 254.02 227.3 247.59" style="fill: rgb(166, 166, 166); transform-origin: 264.045px 266.48px;" id="elkqvxvzexcb" class="animable"></polygon></g><g id="freepik--character-1--inject-65" class="animable animator-active" style="transform-origin: 182.625px 253.532px;"><path d="M223.43,440.81c-2.42.78-71.26-.11-73.86-1.81-1-.63-1.45-10.67-1.65-22.81,0-.13,0-.26,0-.38,0-2.51-.08-5.08-.08-7.7,0-.36,0-.72,0-1.07l44.85.12-.06,1.4-.27,7.33,0,.75s26.2,12.13,28.86,14.3S225.84,440.05,223.43,440.81Z" style="fill: rgb(235, 235, 235); transform-origin: 186.181px 424.068px;" id="elnicqpntyjt" class="animable"></path><path d="M223.43,440.81c-1.24.4-19.94.36-38.23,0-3.67-.07-7.32-.16-10.81-.25-13-.36-23.81-.9-24.81-1.55s-1.45-10.39-1.65-22.31c0-.17,0-.34,0-.5s0-.27,0-.39H148l44.36.08,0,.76s26.21,12.12,28.86,14.29S225.85,440,223.43,440.81Z" style="fill: #B465C3; transform-origin: 186.227px 428.453px;" id="ela5j7eos39lj" class="animable"></path><path d="M222.68,438.13c-11.6-.43-58.43-1.09-69.93-.64-.1,0-.1.07,0,.07,11.49.68,58.32,1,69.93.76C222.93,438.32,222.93,438.14,222.68,438.13Z" style="fill: rgb(38, 50, 56); transform-origin: 187.771px 437.869px;" id="elhngml510je6" class="animable"></path><path d="M197.28,416.08c-4.56-.91-10.15-.29-13.68,2.92-.14.13,0,.32.19.27a64.75,64.75,0,0,1,13.46-2.62A.29.29,0,0,0,197.28,416.08Z" style="fill: rgb(38, 50, 56); transform-origin: 190.523px 417.488px;" id="eljje9x9ntk4a" class="animable"></path><path d="M200.55,418.11c-4.56-.92-10.15-.29-13.68,2.92-.14.13,0,.32.19.27a64.11,64.11,0,0,1,13.46-2.62A.29.29,0,0,0,200.55,418.11Z" style="fill: rgb(38, 50, 56); transform-origin: 193.793px 419.516px;" id="el4znnkpurai9" class="animable"></path><path d="M203.82,420.14c-4.56-.92-10.15-.29-13.68,2.92-.14.13,0,.32.19.27a64.11,64.11,0,0,1,13.46-2.62A.29.29,0,0,0,203.82,420.14Z" style="fill: rgb(38, 50, 56); transform-origin: 197.063px 421.546px;" id="eloj0hj5lvugq" class="animable"></path><path d="M185.2,440.8c-3.67-.07-7.32-.16-10.81-.25-13-.36-23.81-.9-24.81-1.55s-1.45-10.39-1.65-22.31c0-.17,0-.34,0-.5s0-.27,0-.39H148C154,420.06,175.46,434.32,185.2,440.8Z" style="fill: rgb(38, 50, 56); transform-origin: 166.565px 428.3px;" id="elxuycof3our" class="animable"></path><path d="M195.36,416H145.77s10-115.81,9.6-117.83c-.5-2.59-3.42-14.31-7.32-29.62-1.22-4.8-2.54-9.93-3.91-15.26-3.69-14.41-7.77-30.16-11.32-43.86C127.49,189,123.33,173,123.33,173h42s4.9,15.53,11.07,35.72c10.06,32.83,23.5,78,24.82,89C203.39,315.45,195.36,416,195.36,416Z" style="fill: rgb(38, 50, 56); transform-origin: 162.461px 294.5px;" id="elmgvmif8jpbm" class="animable"></path><path d="M193.16,407.58c-7.57-.16-5.4-.22-13-.29-3.71,0-28.06-.25-31.52.32a.08.08,0,0,0,0,.16c3.46.57,27.81.36,31.52.32,7.57-.07,5.4-.13,13-.29A.11.11,0,0,0,193.16,407.58Z" style="fill: rgb(55, 71, 79); transform-origin: 170.915px 407.698px;" id="elosdjdw34aq" class="animable"></path><path d="M164.7,291.13c-1.63-7.16-4.06-14.19-6.17-21.22q-6.45-21.45-13-42.86-3.26-10.73-6.54-21.42-1.67-5.4-3.35-10.8c-1.1-3.52-2.35-7-3.35-10.56-.41-1.44-.63-.65-.11,1.19,1,3.69,2.08,7.4,3.16,11.08q3.19,11,6.45,21.91,6.44,21.8,13,43.55l6.57,21.82a91.05,91.05,0,0,1,2.68,10.55,48.49,48.49,0,0,1,.43,11.29c-.47,7.59-1.35,15.16-2.05,22.73s-1.4,15.17-2.11,22.75q-2.09,22.65-4.15,45.29c-.17,1.91-.34,3.82-.49,5.74,0,.64.41.72.47.1,1.64-14.92,3.41-30,4.81-45s2.79-29.75,4.18-44.62c.35-3.74.74-7.48.75-11.23A46.57,46.57,0,0,0,164.7,291.13Z" style="fill: rgb(55, 71, 79); transform-origin: 148.878px 293.111px;" id="el12iqc5hxecwf" class="animable"></path><path d="M160.58,173c-2.92,22.57-8.48,64.89-12.53,95.59-9.48-37.2-24.72-95.59-24.72-95.59Z" style="fill: rgb(55, 71, 79); transform-origin: 141.955px 220.795px;" id="eljkfjxp0ovza" class="animable"></path><path d="M170.9,441.48c-2.41.79-71.26.14-73.86-1.55-1-.62-1.49-10.66-1.74-22.8v-.38c-.06-2.51-.1-5.09-.11-7.7,0-.36,0-.72,0-1.08l44.85,0-.05,1.4-.25,7.32,0,.76s26.24,12,28.91,14.19S173.32,440.7,170.9,441.48Z" style="fill: rgb(235, 235, 235); transform-origin: 133.589px 424.892px;" id="elqj9wzo2ledl" class="animable"></path><path d="M170.9,441.48c-2.41.79-71.26.14-73.86-1.55-1-.62-1.49-10.66-1.74-22.8v-.38l44.42-.09,0,.76s26.24,12,28.91,14.19S173.32,440.7,170.9,441.48Z" style="fill: #B465C3; transform-origin: 133.642px 429.237px;" id="el6gx3vvbf4l4" class="animable"></path><path d="M170.15,438.8c-11.6-.39-58.44-.88-69.94-.39-.09,0-.09.07,0,.07,11.49.64,58.33.75,69.94.51C170.39,439,170.39,438.81,170.15,438.8Z" style="fill: rgb(38, 50, 56); transform-origin: 135.236px 438.656px;" id="elva759862r3c" class="animable"></path><path d="M144.66,416.84c-4.56-.9-10.15-.25-13.67,3-.13.13,0,.32.19.27a64.19,64.19,0,0,1,13.46-2.67A.29.29,0,0,0,144.66,416.84Z" style="fill: rgb(38, 50, 56); transform-origin: 137.944px 418.294px;" id="elp5osq14anom" class="animable"></path><path d="M147.94,418.85c-4.56-.89-10.15-.24-13.67,3-.14.12,0,.32.19.27a64.19,64.19,0,0,1,13.46-2.67A.29.29,0,0,0,147.94,418.85Z" style="fill: rgb(38, 50, 56); transform-origin: 141.222px 420.307px;" id="el8wyvmusyo64" class="animable"></path><path d="M151.22,420.87c-4.56-.89-10.15-.25-13.67,3-.14.12,0,.31.19.27a64.07,64.07,0,0,1,13.46-2.67A.29.29,0,0,0,151.22,420.87Z" style="fill: rgb(38, 50, 56); transform-origin: 144.502px 422.325px;" id="elokyn02iycz8" class="animable"></path><path d="M164,173s-1,20.11-5.57,36c-.37,1.32-.77,2.61-1.2,3.85a74.84,74.84,0,0,0-12.11,6.23s-.48,16.18-1,34.22c-.53,20.16-1.09,42.66-1,47.43.42,17.85-2.23,116-2.23,116l-49.57.2s9-109.62,8.9-116.16c-.1-10.51,2.4-57,4.33-90.84,1.18-20.88,2.14-37,2.14-37Z" style="fill: rgb(38, 50, 56); transform-origin: 127.66px 294.93px;" id="elm3f9i4wbm5q" class="animable"></path><path d="M139.23,408c-7.57-.13-5.4-.2-13-.24-3.71,0-28.06-.13-31.52.46a.08.08,0,0,0,0,.15c3.46.56,27.82.25,31.52.2,7.58-.11,5.4-.16,13-.35A.11.11,0,0,0,139.23,408Z" style="fill: rgb(55, 71, 79); transform-origin: 116.999px 408.224px;" id="elhwchx4t4c48" class="animable"></path><path d="M110.9,180.19c-.91,27.65-1.88,55.31-3.12,83s-7.75,127-9.42,142.45c0,.11.15.14.16,0,3.61-27.44,5.62-68.05,7.4-95.65s3-55.26,3.92-82.9c.53-15.64.94-31.28,1.4-46.92C111.25,179.94,110.91,180,110.9,180.19Z" style="fill: rgb(55, 71, 79); transform-origin: 104.8px 292.878px;" id="elcpo54tsabou" class="animable"></path><path d="M159.28,211.69a91.86,91.86,0,0,0-14.17,7.42.16.16,0,0,0,.15.29c4.78-2.32,9.67-4.56,14.31-7.14A.32.32,0,0,0,159.28,211.69Z" style="fill: rgb(55, 71, 79); transform-origin: 152.378px 215.539px;" id="elluwrzxj1rub" class="animable"></path><path d="M159.56,194.63c-.33,1.76-.75,3.51-1.13,5.26s-.62,3.32-1.06,4.94a8.42,8.42,0,0,1-2.3,4.15c-.65.59-1.36,1.12-2,1.67-.37.3-.77.58-1.16.88,0-.23.09-.47.13-.71.12-.66.23-1.33.35-2,.25-1.49.48-3,.71-4.46.45-2.92.86-5.88,1.47-8.77a.09.09,0,0,0-.18-.05c-.73,2.87-1.54,5.71-2.17,8.6-.31,1.42-1.42,8.42-1.47,8.92s-.09,1-.11,1.54a5.89,5.89,0,0,0,0,1.57.12.12,0,0,0,.23,0h0a6.18,6.18,0,0,0,.45-1.52c.13-.5.24-1,.33-1.52,0-.18.06-.37.08-.56.69-.42,1.33-1,2-1.44s1.4-1,2.06-1.55a7.9,7.9,0,0,0,2.52-3.93,29.48,29.48,0,0,0,.82-5c.22-2,.39-4,.66-6C159.76,194.56,159.58,194.51,159.56,194.63Z" style="fill: rgb(55, 71, 79); transform-origin: 155.189px 205.407px;" id="elcldi8auctp4" class="animable"></path><path d="M140,118.58c2.61,13,17.26,39.86,26.75,43.88,6.87,2.9,38-8.86,46.89-13.29,8.64-4.27-7.41-27.67-12.56-25.31-8.33,3.82-23.69,14-26.57,13.46-2-.36-11.55-9.12-25.44-23.64C140.55,104.81,138.42,110.79,140,118.58Z" style="fill: rgb(235, 148, 129); transform-origin: 177.833px 136.089px;" id="elqww1jvrfcnj" class="animable"></path><path d="M227.17,143.9c-4.87,3.49-17.61,6.72-21,6.31s-9.59-21.88-7.53-24.7,19.35-13.27,25.45-12.94S232.21,140.29,227.17,143.9Z" style="fill: rgb(235, 148, 129); transform-origin: 214.126px 131.404px;" id="el71cd32ymk8" class="animable"></path><path d="M201.29,123.21a49.52,49.52,0,0,0,5.92-13.16C208.59,104.45,210,96,213,96.6c6.24,1.29,2.71,22.42,2.71,22.42s-3.06,9.07-9.36,8.34A6.31,6.31,0,0,1,201.29,123.21Z" style="fill: rgb(235, 148, 129); transform-origin: 208.997px 111.986px;" id="elubswmevkc8s" class="animable"></path><path d="M218.73,107c-8.73,13.11-7.23,28.53-7.23,28.53l8.62,3a45.36,45.36,0,0,1,8.82-25Z" style="fill: #B465C3; transform-origin: 220.171px 122.765px;" id="el09txtf2eu5zr" class="animable"></path><g id="elidh0yke03j"><path d="M229,113.63a40.67,40.67,0,0,0-3,4.55l-11.47-2.79a40.27,40.27,0,0,1,4.23-8.35Z" style="opacity: 0.1; transform-origin: 221.765px 112.61px;" class="animable" id="eljn0eoc80w49"></path></g><path d="M258.51,106.24l-6.32,13.37c-32.05-4.21-48.18-14.38-41.69-28.1S234.9,84.17,258.51,106.24Z" style="fill: #B465C3; transform-origin: 233.797px 101.955px;" id="el3o0fa9jylcq" class="animable"></path><g id="elt9qvy57h9wb"><rect x="251.16" y="110.9" width="14.79" height="7.08" style="fill: rgb(55, 71, 79); transform-origin: 258.555px 114.44px; transform: rotate(-64.7deg);" class="animable" id="eldub6er49p2t"></rect></g><path d="M273.93,109.88l-9.14,19.33c-.08,0-1.65-.83-6.2-6.57l6.32-13.37C272.3,109.15,273.87,109.86,273.93,109.88Z" style="fill: rgb(69, 90, 100); transform-origin: 266.26px 119.233px;" id="elsh0iw5j1kw" class="animable"></path><path d="M225.48,84.77,214.4,107.26c-5.25-4.44-6.73-9.75-3.9-15.75S218.55,83.28,225.48,84.77Z" style="fill: rgb(55, 71, 79); transform-origin: 217.283px 95.7914px;" id="elw2ihs8adhnj" class="animable"></path><path d="M214.63,114c-1.25,2.91,2.9,2.72,2.9,2.72s-5.91,1.71-6,5.22,4.89,3,5.25,2.94c-.31.09-5.7,1.81-5.47,5.35s5.2,2.4,5.52,2.31c-.26.18-3.75,2.63-3,5.28,1.35,4.54,10.44-1.48,14.17-.56,0,0-.84,6.5-.83,6.69,0,0,8.76-5.55,9.72-10.64a3.31,3.31,0,0,0-1.9-3.69s3-1.48,2.93-4.27c0-1.43-2.39-2.62-2.39-2.62a4.14,4.14,0,0,0,2.13-3.76c-.18-2-2.5-2.86-2.5-2.86s1.71-2.28.86-4.24C234.33,107.87,217.31,107.71,214.63,114Z" style="fill: rgb(235, 148, 129); transform-origin: 224.612px 126.495px;" id="elk0grumeyix9" class="animable"></path><path d="M234.82,115.87a0,0,0,0,0,0-.09,29.5,29.5,0,0,0-17.54.87c-.18.07-.14.39.07.35A60.48,60.48,0,0,1,234.82,115.87Z" style="fill: rgb(38, 50, 56); transform-origin: 225.993px 115.923px;" id="elddq4ldua7el" class="animable"></path><path d="M235.62,122.65c.06,0,.07-.1,0-.12a27.59,27.59,0,0,0-19.06,2.14c-.21.11-.28.41,0,.3C220.62,123.15,230.14,122.13,235.62,122.65Z" style="fill: rgb(38, 50, 56); transform-origin: 226.022px 123.356px;" id="el7ciw1ix4d63" class="animable"></path><path d="M216.46,132.86c5.79-2.85,11.91-3.55,18.3-3.37.08,0,.08-.11,0-.13-3.1-.94-7.19-.64-10.35-.13a17,17,0,0,0-8.06,3.43C216.26,132.73,216.33,132.92,216.46,132.86Z" style="fill: rgb(38, 50, 56); transform-origin: 225.565px 130.81px;" id="el8d9etpz9fwn" class="animable"></path><path d="M217.44,116.61c-.22.08.14.3-.07.39-.88.38-6,3.14-5.58,5.17.33,1.63,2.74,2.32,3.77,2.22l2.59-.25-2.35,1.14a10.87,10.87,0,0,0-2.84,2,3.81,3.81,0,0,0-1.32,2.82,2.18,2.18,0,0,0,1.7,2.14,6.61,6.61,0,0,0,3.29-.19l3-.83-2.52,1.75a9.88,9.88,0,0,0-1.89,1.71,4.11,4.11,0,0,0-1.05,2.14,2,2,0,0,0,.88,1.87,4.25,4.25,0,0,0,2.39.35,34.73,34.73,0,0,0,5.24-1.05c.87-.22,1.75-.44,2.64-.62a6.7,6.7,0,0,1,2.71-.11,6.84,6.84,0,0,0-2.65.36c-.86.24-1.72.52-2.57.8a28.42,28.42,0,0,1-5.3,1.36,5,5,0,0,1-2.88-.33,2.8,2.8,0,0,1-1.4-2.71,5,5,0,0,1,1.23-2.69,10.6,10.6,0,0,1,2.08-1.93l.44.91a7.48,7.48,0,0,1-3.88.26,3.2,3.2,0,0,1-1.8-1.15,3.53,3.53,0,0,1-.67-2,4.79,4.79,0,0,1,1.67-3.56,11.54,11.54,0,0,1,3.16-2.1l.24.88c-1.31.08-4.09-.4-4.91-2.85C210.17,119.09,216.29,116.93,217.44,116.61Z" style="fill: rgb(38, 50, 56); transform-origin: 219.33px 128.235px;" id="el789ha533i38" class="animable"></path><path d="M217.53,116.67a6.34,6.34,0,0,1-1.86-.58,1.48,1.48,0,0,1-.86-1.22,3,3,0,0,1,.58-1.6c.36-.54.76-1.08,1.19-1.62a5,5,0,0,0-1.73,1.19,2.93,2.93,0,0,0-.92,2.07,2,2,0,0,0,.46,1.17,2.28,2.28,0,0,0,1,.65A3.43,3.43,0,0,0,217.53,116.67Z" style="fill: rgb(38, 50, 56); transform-origin: 215.73px 114.261px;" id="eluv37vjlmuqc" class="animable"></path><path d="M169.64,133.13l-16.18,20.74s-8.34-17-12.84-29.93-2.92-21.46,7.55-12S169.64,133.13,169.64,133.13Z" style="fill: #B465C3; transform-origin: 153.944px 130.893px;" id="elpk735fyvu2f" class="animable"></path><path d="M164.94,130.51c-1.29,1.39-2.42,2.94-3.57,4.44s-2.25,3-3.36,4.44c-2.25,3-4.51,6-6.52,9.18a.08.08,0,0,0,.12.1c2.47-2.84,4.69-5.87,6.93-8.89,1.1-1.49,2.2-3,3.29-4.49s2.26-3.06,3.23-4.69C165.11,130.51,165,130.43,164.94,130.51Z" style="fill: rgb(38, 50, 56); transform-origin: 158.277px 139.582px;" id="elbe4ljmit7f" class="animable"></path><path d="M101.57,202.87c.18.18,72.81-4.79,73.42-5.58.85-1.12-22.14-74.93-27.9-85.78-2.45-4.62-14.2-5.28-18.84-.92-11.63,10.94-19.72,46.28-21.42,56.88C104,184.94,100.92,202.23,101.57,202.87Z" style="fill: #B465C3; transform-origin: 138.248px 155.266px;" id="elpygispb5z8n" class="animable"></path><path d="M128.64,110.05c-.46,1-6.62,58.73-7.24,61.15s-16.67,7.08-17,7.28-.85,3.06-.85,3.06,15.72.5,16.55.57S113.63,276,114,277s37.3,7.34,48.44,5.72,33.09-13.18,33.26-14.13-22.12-80.71-25.94-94.45-21.63-61.59-21.92-62.42a3.24,3.24,0,0,0-1.15-1.42s1.7,13,1.49,13.43-13,2.07-13.57,1.53-3.11-16.66-3.43-16.66A3.16,3.16,0,0,0,128.64,110.05Z" style="fill: rgb(69, 90, 100); transform-origin: 149.625px 195.792px;" id="elnp7uto5fl0c" class="animable"></path><g id="eludw6j5mau2"><rect x="136.17" y="187.06" width="11.86" height="6.31" style="fill: rgb(38, 50, 56); transform-origin: 142.1px 190.215px; transform: rotate(1.47deg);" class="animable" id="elahzu1ydj1uw"></rect></g><polygon points="148.28 193.53 148.21 196.55 143.63 200.98 140.02 200.89 135.68 196.23 135.76 193.21 148.28 193.53" style="fill: rgb(219, 219, 219); transform-origin: 141.98px 197.095px;" id="elrom8bp6pqx" class="animable"></polygon><polygon points="141.88 230.53 140.27 230.49 140.02 200.89 143.63 200.98 141.88 230.53" style="fill: rgb(219, 219, 219); transform-origin: 141.825px 215.71px;" id="elznx7pzyjwk" class="animable"></polygon><polygon points="160.08 186.27 150.94 185.11 151.15 183.88 160.14 185.92 160.08 186.27" style="fill: #B465C3; transform-origin: 155.54px 185.075px;" id="elgzqm8xif3ep" class="animable"></polygon><polygon points="159.87 187.49 150.73 186.33 150.94 185.11 159.93 187.15 159.87 187.49" style="fill: #B465C3; transform-origin: 155.33px 186.3px;" id="elv1qub6b2u6l" class="animable"></polygon><polygon points="159.66 188.72 150.52 187.56 150.73 186.33 159.72 188.37 159.66 188.72" style="fill: #B465C3; transform-origin: 155.12px 187.525px;" id="elpdcfh4cqb" class="animable"></polygon><polygon points="159.45 189.94 150.31 188.78 150.52 187.56 159.51 189.6 159.45 189.94" style="fill: #B465C3; transform-origin: 154.91px 188.75px;" id="el28xmdtx1dhb" class="animable"></polygon><polygon points="159.24 191.17 150.1 190.01 150.31 188.78 159.3 190.82 159.24 191.17" style="fill: #B465C3; transform-origin: 154.7px 189.975px;" id="el9sb2kqztnl" class="animable"></polygon><polygon points="159.03 192.39 149.89 191.24 150.1 190.01 159.09 192.05 159.03 192.39" style="fill: #B465C3; transform-origin: 154.49px 191.2px;" id="els3zod7497p" class="animable"></polygon><polygon points="158.82 193.62 149.68 192.46 149.89 191.24 158.88 193.27 158.82 193.62" style="fill: #B465C3; transform-origin: 154.28px 192.43px;" id="ele3ei9js65jr" class="animable"></polygon><polygon points="158.61 194.84 149.47 193.69 149.68 192.46 158.67 194.5 158.61 194.84" style="fill: #B465C3; transform-origin: 154.07px 193.65px;" id="elfcyzgf9qnyg" class="animable"></polygon><polygon points="158.4 196.07 149.26 194.91 149.47 193.69 158.46 195.72 158.4 196.07" style="fill: #B465C3; transform-origin: 153.86px 194.88px;" id="ell32oa6u7t1b" class="animable"></polygon><polygon points="158.19 197.29 149.05 196.14 149.26 194.91 158.25 196.95 158.19 197.29" style="fill: #B465C3; transform-origin: 153.65px 196.1px;" id="el36zb21t2e2" class="animable"></polygon><polygon points="157.98 198.52 148.84 197.36 149.05 196.14 158.04 198.17 157.98 198.52" style="fill: #B465C3; transform-origin: 153.44px 197.33px;" id="eldqg3bokxegc" class="animable"></polygon><polygon points="157.77 199.75 148.63 198.59 148.84 197.36 157.83 199.4 157.77 199.75" style="fill: #B465C3; transform-origin: 153.23px 198.555px;" id="elt0y3rv8zdkp" class="animable"></polygon><polygon points="157.56 200.97 148.42 199.81 148.63 198.59 157.62 200.62 157.56 200.97" style="fill: #B465C3; transform-origin: 153.02px 199.78px;" id="el813u42m3ufw" class="animable"></polygon><polygon points="157.35 202.19 148.21 201.04 148.42 199.81 157.41 201.85 157.35 202.19" style="fill: #B465C3; transform-origin: 152.81px 201px;" id="elhdcieca581" class="animable"></polygon><polygon points="157.14 203.42 148 202.26 148.21 201.04 157.2 203.07 157.14 203.42" style="fill: #B465C3; transform-origin: 152.6px 202.23px;" id="el3g36gc5fqj3" class="animable"></polygon><polygon points="156.93 204.65 147.79 203.49 148 202.26 156.99 204.3 156.93 204.65" style="fill: #B465C3; transform-origin: 152.39px 203.455px;" id="elytk0vhs5b7" class="animable"></polygon><polygon points="156.72 205.87 147.58 204.71 147.79 203.49 156.78 205.53 156.72 205.87" style="fill: #B465C3; transform-origin: 152.18px 204.68px;" id="el6cnhs2jb14f" class="animable"></polygon><polygon points="156.51 207.1 147.37 205.94 147.58 204.71 156.57 206.75 156.51 207.1" style="fill: #B465C3; transform-origin: 151.97px 205.905px;" id="elfzh6iwk630i" class="animable"></polygon><polygon points="144.86 227.21 143.31 226.95 149.57 183.61 152.25 184.07 144.86 227.21" style="fill: #B465C3; transform-origin: 147.78px 205.41px;" id="elwdufp155rp" class="animable"></polygon><g id="elbj0ut1m9dqf"><rect x="124.17" y="185.95" width="11.86" height="6.31" style="fill: rgb(38, 50, 56); transform-origin: 130.1px 189.105px; transform: rotate(-8.3deg);" class="animable" id="el0i0tdlz9a1lj"></rect></g><polygon points="136.75 191.32 137.19 194.31 133.44 199.45 129.86 199.97 124.79 196.12 124.36 193.13 136.75 191.32" style="fill: #B465C3; transform-origin: 130.775px 195.645px;" id="elb1y8w38io2" class="animable"></polygon><polygon points="136.72 228.87 135.12 229.1 129.86 199.97 133.44 199.45 136.72 228.87" style="fill: #B465C3; transform-origin: 133.29px 214.275px;" id="elxu8zqjzf7j" class="animable"></polygon><path d="M128,207.48s10.28,2.61,24.54,0c0,0,1.06,21.39.45,22.6s-8.89,4.6-11.91,4.91-12.71-2.48-14.12-4.31S128,207.48,128,207.48Z" style="fill: rgb(55, 71, 79); transform-origin: 139.851px 221.247px;" id="elr3r5dwri0h" class="animable"></path><path d="M121.42,131.79c0,13.55,6.13,55.64,16.55,60.54,9.23,4.34,34.95,2,46.63,1.21,4.25-.3,3.11-36-1.21-34.57-5.19,1.75-32.16,3.06-33.36,2.27s-8.81-16.58-18.05-35.68C123.26,107.54,121.42,123.31,121.42,131.79Z" style="fill: rgb(235, 148, 129); transform-origin: 154.344px 156.081px;" id="elwacj7ci92l" class="animable"></path><path d="M179.1,160.9s11.81-5.38,19.69-8.53c4.4-1.75,12.21-4.09,16-3.91,5.71.28,29.45,5.11,28.4,10.88-.94,5.24-20.81-1.5-20.81-1.5s20.65,5,18.35,11.12-23.73-4.5-23.73-4.5,21.1,5.63,17.73,11.54c-2.54,4.46-22.49-4-22.49-4s18.1,5,15.68,9.67c-2.67,5.2-21.58-1.49-21.58-1.49-8.15,10.92-16.22,13.37-22.59,13.4C182.3,193.55,179.1,160.9,179.1,160.9Z" style="fill: rgb(235, 148, 129); transform-origin: 211.162px 171.015px;" id="elsf50qlmhzn9" class="animable"></path><path d="M216.36,155.92c15.49,2.54,22.31,8.53,22.1,8.4-5.05-2.89-13.57-5.59-16-6.31s-3.77-1.28-6.16-2C216.27,156,216.3,155.91,216.36,155.92Z" style="fill: rgb(38, 50, 56); transform-origin: 227.376px 160.121px;" id="elcz8i9gwknp5" class="animable"></path><path d="M212.64,164.25a53.29,53.29,0,0,1,18.1,5.5c.21.12.11.18-.12.1-3-1-15-4.69-18-5.53C212.57,164.31,212.6,164.24,212.64,164.25Z" style="fill: rgb(38, 50, 56); transform-origin: 221.724px 167.068px;" id="elg9hglla9bt8" class="animable"></path><path d="M209,171.2a39.56,39.56,0,0,1,13.88,4.67c.22.11.06.2-.18.12-4.58-1.64-8.17-3-13.74-4.62C208.84,171.34,208.86,171.18,209,171.2Z" style="fill: rgb(38, 50, 56); transform-origin: 215.933px 173.609px;" id="el69s416teilg" class="animable"></path><path d="M216.05,148.45a19.55,19.55,0,0,0-9.8,1.17c-3.37,1.15-6.69,2.39-10,3.75s-6.47,2.75-9.82,3.85a61.44,61.44,0,0,1-10.3,2.34c-2,.28-8.52,1.23-10.5,1.37a.08.08,0,0,0,0,.16c1.73-.12,7.37-.45,9.1-.65a64.21,64.21,0,0,0,10.1-1.9,89.21,89.21,0,0,0,9.88-3.63c3.24-1.33,6.5-2.62,9.81-3.8,1.84-.66,3.69-1.32,5.59-1.81a24.46,24.46,0,0,1,6-.69C216.29,148.61,216.23,148.47,216.05,148.45Z" style="fill: rgb(38, 50, 56); transform-origin: 190.884px 154.679px;" id="eljr0anz4wre" class="animable"></path><path d="M144.66,150.1l-22.22,14.07s-2.11-18.85-2-32.5,4.49-21.19,11.17-8.77S144.66,150.1,144.66,150.1Z" style="fill: #B465C3; transform-origin: 132.548px 140.385px;" id="el07v5tn7wifky" class="animable"></path><path d="M141.67,146.27c-1.7.82-3.32,1.85-4.94,2.82S133.55,151,132,152c-3.19,2-6.4,3.94-9.44,6.16a.08.08,0,0,0,.09.13c3.33-1.73,6.51-3.74,9.7-5.73q2.35-1.47,4.71-3c1.59-1,3.23-2,4.72-3.18A.08.08,0,0,0,141.67,146.27Z" style="fill: rgb(38, 50, 56); transform-origin: 132.163px 152.278px;" id="elo5brcks3wjb" class="animable"></path><path d="M122.06,158.07c-.15-1.94-.32-3.89-.5-5.83-.37-3.93-.59-7.87-1-11.8a0,0,0,0,0-.09,0c0,2.35.14,4.71.29,7.06-.26-1.07-.5-2.15-.78-3.22,0-.06-.13,0-.12,0a23,23,0,0,0,.46,2.34c.16.63.33,1.25.5,1.88l.24,3.72c.13,1.95.33,3.89.49,5.84.09,1.06.63,5.22.76,5.94,0,.1.16.1.15,0C122.35,162.92,122.13,159.06,122.06,158.07Z" style="fill: rgb(38, 50, 56); transform-origin: 121.16px 152.258px;" id="elf2nsdg0m7cj" class="animable"></path><path d="M142.91,121.53c-3.74.18-9.59-7-11.2-11.92-.11-.34.95-3.46,2.06-7.31.66-2.34,1.35-5,1.8-7.41.09-.5,1.62.74,1.62.74l3,1.34,10,4.46a39.64,39.64,0,0,0-3.21,9.09,5.28,5.28,0,0,0-.08,1,1.16,1.16,0,0,1,0,.17C146.84,113.67,146.53,121.35,142.91,121.53Z" style="fill: rgb(235, 148, 129); transform-origin: 140.946px 108.152px;" id="ellismt66z2q" class="animable"></path><path d="M146.89,111.55a1.16,1.16,0,0,1,0,.17,10.88,10.88,0,0,1-1.59-.21C135,109.38,136.17,96,136.17,96l4,.93,10,4.46a39.64,39.64,0,0,0-3.21,9.09A5.28,5.28,0,0,0,146.89,111.55Z" style="fill: rgb(38, 50, 56); transform-origin: 143.15px 103.86px;" id="elkm4vvjq65s" class="animable"></path><path d="M136,78.18c-2.38,5.25-1.56,21.42,1.86,25.45,5,5.85,14.14,7.55,19.37,1.34,5.06-6,3.62-27.08-.3-30.85C151.15,68.57,139.52,70.42,136,78.18Z" style="fill: rgb(235, 148, 129); transform-origin: 147.559px 89.9041px;" id="el8wioyblfey8" class="animable"></path><path d="M137.49,103.43h0" style="fill: none; stroke: rgb(220, 106, 87); stroke-linecap: round; stroke-linejoin: round; stroke-width: 0px; transform-origin: 137.49px 103.43px;" id="elb5tlqcrz5mh" class="animable"></path><path d="M150.21,90.47s-.08.06-.08.1c.09,1.09,0,2.35-1,2.75,0,0,0,.07,0,.07C150.37,93.16,150.47,91.49,150.21,90.47Z" style="fill: rgb(38, 50, 56); transform-origin: 149.728px 91.93px;" id="elk3yitwjdbai" class="animable"></path><path d="M149.19,89.38c-1.76-.06-1.74,3.46-.11,3.51S150.66,89.42,149.19,89.38Z" style="fill: rgb(38, 50, 56); transform-origin: 149.081px 91.1349px;" id="ellmibmzqds1l" class="animable"></path><path d="M156.4,90.22s.09.06.09.1c0,1.09.12,2.35,1.11,2.7,0,0,0,.07,0,.06C156.39,92.92,156.2,91.25,156.4,90.22Z" style="fill: rgb(38, 50, 56); transform-origin: 156.966px 91.6505px;" id="elhewy9jmwgxg" class="animable"></path><path d="M157.37,89.08c1.75-.15,1.91,3.37.29,3.51S155.9,89.2,157.37,89.08Z" style="fill: rgb(38, 50, 56); transform-origin: 157.568px 90.8347px;" id="el0pfz67iiyxbi" class="animable"></path><path d="M147.79,87.78c.48-.13.9-.32,1.36-.49a2.38,2.38,0,0,0,1.29-.77.74.74,0,0,0-.13-.9,1.87,1.87,0,0,0-1.86-.18,2.72,2.72,0,0,0-1.55,1.19A.8.8,0,0,0,147.79,87.78Z" style="fill: rgb(38, 50, 56); transform-origin: 148.673px 86.5365px;" id="eltgubllzmcfs" class="animable"></path><path d="M158.72,87.3a13.05,13.05,0,0,1-1.4-.36,2.38,2.38,0,0,1-1.37-.63.75.75,0,0,1,0-.91,1.87,1.87,0,0,1,1.84-.36,2.71,2.71,0,0,1,1.66,1A.79.79,0,0,1,158.72,87.3Z" style="fill: rgb(38, 50, 56); transform-origin: 157.703px 86.1221px;" id="el9k2xvejembo" class="animable"></path><path d="M148.85,100.19c.26.25.53.6.92.63a2.83,2.83,0,0,0,1.17-.28s.07,0,.05.06a1.47,1.47,0,0,1-1.38.6,1.17,1.17,0,0,1-.87-1A.06.06,0,0,1,148.85,100.19Z" style="fill: rgb(38, 50, 56); transform-origin: 149.867px 100.685px;" id="el7kc4evpdcwn" class="animable"></path><path d="M150,96.92a3.72,3.72,0,0,0,2.49,1.63,4.3,4.3,0,0,0,1.34,0,1.09,1.09,0,0,0,.26,0l.23,0a.26.26,0,0,0,.22-.24h0a.41.41,0,0,0,0-.11h0v-.09c0-.84-.07-2.12-.07-2.12.3.15,1.87.84,1.84.41a55.65,55.65,0,0,0-1.51-11.24.1.1,0,0,0-.2,0c.09,3.5.8,7,.95,10.47a6.81,6.81,0,0,0-1.76-.52c-.11,0,.22,2.47.18,2.84a0,0,0,0,1,0,0,5.12,5.12,0,0,1-3.85-1.16C150,96.76,149.91,96.83,150,96.92Z" style="fill: rgb(38, 50, 56); transform-origin: 153.137px 91.8313px;" id="eljmor6lwqhbk" class="animable"></path><path d="M153.3,98.18a4.44,4.44,0,0,1-1.75,1.38,2,2,0,0,1-1.21.08c-.87-.22-.9-1-.74-1.7a4.37,4.37,0,0,1,.38-1A5.7,5.7,0,0,0,153.3,98.18Z" style="fill: rgb(38, 50, 56); transform-origin: 151.412px 98.3191px;" id="el5agfidrfthr" class="animable"></path><path d="M151.55,99.56a2,2,0,0,1-1.21.08c-.87-.22-.9-1-.74-1.7A2.05,2.05,0,0,1,151.55,99.56Z" style="fill: rgb(255, 152, 185); transform-origin: 150.537px 98.8191px;" id="elarcjjcdm5p6" class="animable"></path><path d="M134.88,91.92s-3.85-9.77-2.47-14.81c.62-2.28,4-3.3,4-3.3a5.32,5.32,0,0,1,2.56-5c3.17-2.1,9.71-.39,9.71-.39s5.35-5.48,11-2,.52,9.72.52,9.72,1.69,3.55-4.18,5.09c-5.72,1.51-16.16-2.72-16.16-2.72a38.56,38.56,0,0,1-2.09,11.21A3.5,3.5,0,0,1,134.88,91.92Z" style="fill: rgb(38, 50, 56); transform-origin: 147.222px 78.5915px;" id="elfmnfg3zsv48" class="animable"></path><path d="M149.75,68.7a10.89,10.89,0,0,0-4.14-1.52,12,12,0,0,0-4-.05,6.48,6.48,0,0,0-5.32,4,4.56,4.56,0,0,0,.27,3.51s.09,0,.07,0c-1.11-2,.09-4.56,1.8-5.77a9.82,9.82,0,0,1,6.82-1.27,19.35,19.35,0,0,1,4.4,1.24A.07.07,0,0,0,149.75,68.7Z" style="fill: rgb(38, 50, 56); transform-origin: 142.923px 70.8131px;" id="elbkrhhfcadz9" class="animable"></path><path d="M163.58,70.14a5.26,5.26,0,0,0-3-3.93,9,9,0,0,0-5.79-.79,11.3,11.3,0,0,0-5.31,2.69s0,.09.05.06a10,10,0,0,1,10-1.89A4.88,4.88,0,0,1,162,74.1a10.27,10.27,0,0,1-4.58,3.25s0,.07,0,.06a10.42,10.42,0,0,0,4.47-2.66A5.92,5.92,0,0,0,163.58,70.14Z" style="fill: rgb(38, 50, 56); transform-origin: 156.539px 71.3302px;" id="elyv7e4l9npvd" class="animable"></path><path d="M157.34,81.79a18.69,18.69,0,0,1-7.88,0,37.59,37.59,0,0,1-7.86-2.48c-1.47-.63-2.92-1.32-4.35-2-.05,0-.08,0,0,.07a41.71,41.71,0,0,0,7.8,4,21,21,0,0,0,8,1.29,18.2,18.2,0,0,0,4.39-.76S157.37,81.78,157.34,81.79Z" style="fill: rgb(38, 50, 56); transform-origin: 147.32px 79.9962px;" id="eldmtgli321or" class="animable"></path><path d="M147.86,96.85A4.7,4.7,0,1,1,153,91.48h0a4.7,4.7,0,0,1-4,5.34A4.59,4.59,0,0,1,147.86,96.85Zm.9-8.73a3.81,3.81,0,0,0-1,0,4.08,4.08,0,1,0,1,0Z" style="fill: #B465C3; transform-origin: 148.351px 92.174px;" id="el2qazsrtimp" class="animable"></path><path d="M158.65,96.63c-1.79-.18-3.22-2.18-3.26-4.63a5.61,5.61,0,0,1,1-3.31,2.93,2.93,0,0,1,5-.07,5.64,5.64,0,0,1,1,3.27c0,2.59-1.5,4.73-3.43,4.75A1.61,1.61,0,0,1,158.65,96.63Zm.42-8.75h-.24a2.49,2.49,0,0,0-2,1.19A5,5,0,0,0,156,92c0,2.24,1.34,4.05,2.93,4s2.84-1.87,2.81-4.12a4.93,4.93,0,0,0-.91-2.9A2.62,2.62,0,0,0,159.07,87.88Z" style="fill: #B465C3; transform-origin: 158.89px 91.9479px;" id="elbtv6xjufy2s" class="animable"></path><path d="M152.85,92l-.42-.48c.71-.61,2.34-1.44,3.51-.23l-.45.44C154.44,90.67,152.91,92,152.85,92Z" style="fill: #B465C3; transform-origin: 154.185px 91.3351px;" id="el5mllmsq1klr" class="animable"></path><path d="M131.92,93.55l-.57-.28c.14-.27,1.32-2.57,2.72-2.82s9.75.43,10.11.46l-.05.63c-2.42-.19-8.94-.65-9.95-.47S132.23,92.91,131.92,93.55Z" style="fill: #B465C3; transform-origin: 137.765px 91.9725px;" id="elmdmse6uv0f" class="animable"></path><path d="M137.69,91.49s-3-5.51-5.48-4.49-.59,8.74,2,10.06A2.8,2.8,0,0,0,138.12,96Z" style="fill: rgb(235, 148, 129); transform-origin: 134.585px 92.1691px;" id="eldwh14fa92sa" class="animable"></path><path d="M132.8,89.2s-.05,0,0,.07c1.83,1,2.64,2.87,3.14,4.79a1.54,1.54,0,0,0-2.24-.68c-.06,0,0,.12,0,.11a1.72,1.72,0,0,1,1.81.81,7.79,7.79,0,0,1,.73,1.61c.07.19.39.13.35-.08v0C136.91,93.35,135.4,89.73,132.8,89.2Z" style="fill: rgb(38, 50, 56); transform-origin: 134.705px 92.6123px;" id="ela0drbrlyg35" class="animable"></path></g><g id="freepik--Plant--inject-65" class="animable" style="transform-origin: 399.273px 214.767px;"><path d="M387.45,194.87c10.39,10.18,12.13,25.91,9.94,39.7-.06.31-.54.23-.54-.07,0-3.14.1-6.24.09-9.35-.06-.14-.11-.27-.16-.41a20.87,20.87,0,0,1-6.76-7.25c-1.73-3.42-2.41-7.27-3.74-10.83-.12-.34.24-.24.48-.07,6.32,4.66,8.33,9.68,10.15,16.38a56,56,0,0,0-1.1-10.43c-1.37-6.37-4.07-12.67-8.64-17.39C387,195,387.27,194.69,387.45,194.87Z" style="fill: rgb(38, 50, 56); transform-origin: 392.239px 214.791px;" id="elnexkfviic9p" class="animable"></path><path d="M385.49,196.06c-1.78.06-2.9,2.92-4.3,3.75a1.34,1.34,0,0,1-2-.31c-1.38-1.93.51-4.3,2.29-5.63-1.27.52-2.33,1.44-3.7,1.7a1.29,1.29,0,0,1-1.67-1c-.61-2.63,2.69-3.79,4.95-3.85-1.1-.76-4.24-2.83-2.57-3.85s5.38,1.94,6.58,2.91c1.77,1.44,3.87,3.58,3.95,5.82C389.16,198.22,386.87,196.61,385.49,196.06Z" style="fill: #B465C3; transform-origin: 382.531px 193.393px;" id="el9bdc5c954qt" class="animable"></path><g id="elzsc4tieqork"><path d="M385.49,196.06c-1.78.06-2.9,2.92-4.3,3.75a1.34,1.34,0,0,1-2-.31c-1.38-1.93.51-4.3,2.29-5.63-1.27.52-2.33,1.44-3.7,1.7a1.29,1.29,0,0,1-1.67-1c-.61-2.63,2.69-3.79,4.95-3.85-1.1-.76-4.24-2.83-2.57-3.85s5.38,1.94,6.58,2.91c1.77,1.44,3.87,3.58,3.95,5.82C389.16,198.22,386.87,196.61,385.49,196.06Z" style="opacity: 0.1; transform-origin: 382.531px 193.393px;" class="animable" id="elbeogpyayvaw"></path></g><path d="M386,196.5c-2.28-1-6.68.46-7.05-.41-.76-1.76,2.75-3,4.65-3.2-1.75-.47-5.09-1.23-5-2.91.13-2,5.13-.29,7.66,1.66,3.19,2.44,3.17,4.8,2.64,5.27C388.2,197.56,386.39,196.67,386,196.5Z" style="fill: #B465C3; transform-origin: 383.882px 193.115px;" id="elgef0sbh6hgp" class="animable"></path><path d="M411.11,193.87c-10.77,9.77-13.11,25.43-11.45,39.29,0,.31.53.24.55,0,.11-3.14.14-6.25.27-9.34l.17-.42a20.68,20.68,0,0,0,7-7c1.87-3.34,2.7-7.16,4.16-10.67.13-.34-.23-.25-.48-.09-6.49,4.42-8.7,9.36-10.76,16a55.14,55.14,0,0,1,1.49-10.39c1.61-6.31,4.55-12.5,9.29-17C411.55,194,411.3,193.69,411.11,193.87Z" style="fill: rgb(38, 50, 56); transform-origin: 405.507px 213.592px;" id="elyz4nzteuvj9" class="animable"></path><path d="M413,195.13c1.78.12,2.79,3,4.15,3.91a1.35,1.35,0,0,0,2-.24c1.45-1.87-.35-4.32-2.08-5.71,1.25.57,2.27,1.53,3.63,1.84a1.29,1.29,0,0,0,1.71-.94c.71-2.6-2.54-3.89-4.8-4,1.13-.72,4.34-2.67,2.71-3.75s-5.44,1.73-6.68,2.66c-1.82,1.36-4,3.43-4.17,5.66C409.27,197.15,411.62,195.62,413,195.13Z" style="fill: #B465C3; transform-origin: 415.984px 192.687px;" id="elziu6sw5ve9p" class="animable"></path><g id="eltj4vdrlurg"><path d="M413,195.13c1.78.12,2.79,3,4.15,3.91a1.35,1.35,0,0,0,2-.24c1.45-1.87-.35-4.32-2.08-5.71,1.25.57,2.27,1.53,3.63,1.84a1.29,1.29,0,0,0,1.71-.94c.71-2.6-2.54-3.89-4.8-4,1.13-.72,4.34-2.67,2.71-3.75s-5.44,1.73-6.68,2.66c-1.82,1.36-4,3.43-4.17,5.66C409.27,197.15,411.62,195.62,413,195.13Z" style="opacity: 0.1; transform-origin: 415.984px 192.687px;" class="animable" id="elnejkrf0vg19"></path></g><path d="M412.48,195.55c2.33-1,6.66.71,7.06-.14.83-1.73-2.63-3.07-4.52-3.38,1.76-.41,5.13-1,5.09-2.72,0-2.05-5.11-.48-7.71,1.36-3.28,2.33-3.35,4.68-2.84,5.18C410.26,196.52,412.1,195.7,412.48,195.55Z" style="fill: #B465C3; transform-origin: 414.718px 192.226px;" id="eljuwyqnlvqv" class="animable"></path><path d="M400.1,219.67a105.8,105.8,0,0,1-3.35,15.45A.38.38,0,0,1,396,235c.71-4.76,2-9.44,2.7-14.2a71.05,71.05,0,0,0,.83-14.57c-.45-8-2.63-16.55-7.86-22.83-.12-.15.12-.36.24-.22,10.48,12.22,8.82,27.2,8.81,28.54,1.48-5.06,3-10.86,8.62-16,.24-.22.43-.11.39.26-1,9.39-3.61,14.29-9.05,19.3C400.52,216.73,400.33,218.21,400.1,219.67Z" style="fill: rgb(38, 50, 56); transform-origin: 400.686px 209.281px;" id="ele759lqg73v9" class="animable"></path><path d="M391.57,184.77c-1.88-.83-4.49,1.57-6.35,1.73a1.54,1.54,0,0,1-1.89-1.31c-.46-2.7,2.7-4.21,5.22-4.69-1.59-.1-3.15.32-4.71-.1a1.49,1.49,0,0,1-1.23-1.88c.7-3,4.7-2.58,7.08-1.5-.76-1.35-3-5.08-.73-5.29s4.6,4.72,5.36,6.33c1.11,2.38,2.22,5.66,1.17,8C394.28,188.86,392.72,186,391.57,184.77Z" style="fill: #B465C3; transform-origin: 389.233px 179.486px;" id="elmdj1r9xz2vj" class="animable"></path><g id="elxgzakk8lx4h"><path d="M391.57,184.77c-1.88-.83-4.49,1.57-6.35,1.73a1.54,1.54,0,0,1-1.89-1.31c-.46-2.7,2.7-4.21,5.22-4.69-1.59-.1-3.15.32-4.71-.1a1.49,1.49,0,0,1-1.23-1.88c.7-3,4.7-2.58,7.08-1.5-.76-1.35-3-5.08-.73-5.29s4.6,4.72,5.36,6.33c1.11,2.38,2.22,5.66,1.17,8C394.28,188.86,392.72,186,391.57,184.77Z" style="opacity: 0.1; transform-origin: 389.233px 179.486px;" class="animable" id="elxwfzd1vv4u"></path></g><path d="M391.89,185.49c-1.85-2.23-7.16-2.89-7.11-4,.1-2.21,4.35-1.7,6.43-1-1.57-1.36-4.66-3.83-3.71-5.52,1.17-2.07,5.46,2.28,7.11,5.57,2.08,4.14.87,6.58.09,6.8C393.62,187.69,392.19,185.86,391.89,185.49Z" style="fill: #B465C3; transform-origin: 390.273px 180.908px;" id="el3ynhsywqlzd" class="animable"></path><path d="M407,222.49l4.62,35.32H383.49c.58-3.13,5.81-35.36,5.81-35.36Z" style="fill: #B465C3; transform-origin: 397.555px 240.13px;" id="elyky6l11dpk" class="animable"></path></g><defs>     <filter id="active" height="200%">         <feMorphology in="SourceAlpha" result="DILATED" operator="dilate" radius="2"></feMorphology>                <feFlood flood-color="#32DFEC" flood-opacity="1" result="PINK"></feFlood>        <feComposite in="PINK" in2="DILATED" operator="in" result="OUTLINE"></feComposite>        <feMerge>            <feMergeNode in="OUTLINE"></feMergeNode>            <feMergeNode in="SourceGraphic"></feMergeNode>        </feMerge>    </filter>    <filter id="hover" height="200%">        <feMorphology in="SourceAlpha" result="DILATED" operator="dilate" radius="2"></feMorphology>                <feFlood flood-color="#ff0000" flood-opacity="0.5" result="PINK"></feFlood>        <feComposite in="PINK" in2="DILATED" operator="in" result="OUTLINE"></feComposite>        <feMerge>            <feMergeNode in="OUTLINE"></feMergeNode>            <feMergeNode in="SourceGraphic"></feMergeNode>        </feMerge>            <feColorMatrix type="matrix" values="0   0   0   0   0                0   1   0   0   0                0   0   0   0   0                0   0   0   1   0 "></feColorMatrix>    </filter></defs></svg>