<svg class="animated" id="freepik_stories-hairdresser-team" xmlns="http://www.w3.org/2000/svg" viewBox="0 0 500 500" version="1.1" xmlns:xlink="http://www.w3.org/1999/xlink" xmlns:svgjs="http://svgjs.com/svgjs"><style>svg#freepik_stories-hairdresser-team:not(.animated) .animable {opacity: 0;}svg#freepik_stories-hairdresser-team.animated #freepik--Shadows--inject-2 {animation: 3s Infinite  linear wind;animation-delay: 0s;}svg#freepik_stories-hairdresser-team.animated #freepik--character-2--inject-2 {animation: 1s 1 forwards cubic-bezier(.36,-0.01,.5,1.38) zoomIn,3s Infinite  linear floating;animation-delay: 0s,1s;}svg#freepik_stories-hairdresser-team.animated #freepik--character-1--inject-2 {animation: 1s 1 forwards cubic-bezier(.36,-0.01,.5,1.38) zoomIn,3s Infinite  linear floating;animation-delay: 0s,1s;}svg#freepik_stories-hairdresser-team.animated #freepik--Sparkles--inject-2 {animation: 1s 1 forwards cubic-bezier(.36,-0.01,.5,1.38) zoomIn;animation-delay: 0s;}            @keyframes wind {                0% {                    transform: rotate( 0deg );                }                25% {                    transform: rotate( 1deg );                }                75% {                    transform: rotate( -1deg );                }            }                    @keyframes zoomIn {                0% {                    opacity: 0;                    transform: scale(0.5);                }                100% {                    opacity: 1;                    transform: scale(1);                }            }                    @keyframes floating {                0% {                    opacity: 1;                    transform: translateY(0px);                }                50% {                    transform: translateY(-10px);                }                100% {                    opacity: 1;                    transform: translateY(0px);                }            }        </style><g id="freepik--Floor--inject-2" class="animable" style="transform-origin: 250px 348.502px;"><path id="freepik--floor--inject-2" d="M77.66,249c-95.18,54.95-95.17,144.05,0,199S327.16,503,422.34,448s95.17-144,0-199S172.84,194.06,77.66,249Z" style="fill: rgb(245, 245, 245); transform-origin: 250px 348.502px;" class="animable"></path></g><g id="freepik--Shadows--inject-2" class="animable" style="transform-origin: 250.23px 384.297px;"><path id="freepik--Shadow--inject-2" d="M133.28,323.73c-1.55.89,1.91,4.33,7.72,7.68l16.31,9.41c5.81,3.36,9.28,6.8,7.76,7.69s-7.47-1.11-13.28-4.47l-16.31-9.41c-5.81-3.36-11.77-5.35-13.32-4.47s1.92,4.33,7.73,7.69l16.31,9.41c5.81,3.35,9.27,6.78,7.72,7.65s-7.5-1.14-13.31-4.49l-16.24-9.36c-5.82-3.35-11.78-5.35-13.32-4.46s1.92,4.33,7.73,7.68L135,353.64c5.81,3.35,9.29,6.79,7.76,7.68s-7.47-1.11-13.29-4.46l-16.24-9.36c-5.81-3.35-11.77-5.35-13.31-4.46s1.91,4.32,7.73,7.67l16.24,9.37c5.81,3.35,9.28,6.79,7.76,7.67s-7.47-1.11-13.28-4.46l-16.26-9.4c-5.8-3.36-11.76-5.35-13.31-4.44s1.92,4.35,7.73,7.7l16.24,9.37c5.82,3.35,9.29,6.78,7.76,7.67s-7.47-1.11-13.27-4.47L91,360.32C85.21,357,79.25,355,77.71,355.85s1.91,4.33,7.72,7.69l16.26,9.4c5.81,3.36,9.28,6.79,7.75,7.66s-7.47-1.14-13.28-4.5L80,366.75c-5.81-3.35-11.77-5.35-13.31-4.46s1.91,4.33,7.72,7.69l16.2,9.39c5.81,3.36,9.27,6.79,7.75,7.67s-7.47-1.14-13.28-4.5l-16.19-9.35c-5.81-3.35-11.77-5.35-13.31-4.46s1.91,4.33,7.72,7.68l16.19,9.35c5.81,3.35,9.28,6.79,7.75,7.68s-7.47-1.11-13.28-4.46l-16.19-9.35c-5.81-3.36-11.76-5.35-13.31-4.47s1.92,4.33,7.73,7.69l16.19,9.35c5.81,3.35,9.28,6.78,7.75,7.65s-7.47-1.14-13.29-4.48l-16.17-9.32c-5.81-3.34-11.78-5.34-13.32-4.45s1.92,4.33,7.72,7.68l16.19,9.35C63,402,66.52,405.41,65,406.29s-7.47-1.14-13.28-4.49L23.37,385.45c-5.81-3.35-5.81-8.79,0-12.14L119.18,318c5.8-3.35,15.22-3.36,21,0l28.34,16.34c5.81,3.35,9.25,6.8,7.69,7.71s-7.53-1.08-13.34-4.44l-16.31-9.41C140.78,324.84,134.82,322.84,133.28,323.73Z" style="fill: rgb(224, 224, 224); transform-origin: 97.7991px 360.99px;" class="animable"></path><path id="freepik--shadow--inject-2" d="M367.2,323.73c1.54.89-1.92,4.33-7.73,7.68l-16.31,9.41c-5.81,3.36-9.28,6.8-7.75,7.69s7.47-1.11,13.28-4.47L365,334.63c5.81-3.36,11.77-5.35,13.31-4.47s-1.92,4.33-7.73,7.69l-16.31,9.41c-5.8,3.35-9.26,6.78-7.72,7.65s7.5-1.14,13.31-4.49l16.25-9.36c5.81-3.35,11.77-5.35,13.31-4.46s-1.91,4.33-7.73,7.68l-16.24,9.36c-5.81,3.35-9.28,6.79-7.76,7.68s7.48-1.11,13.29-4.46l16.24-9.36c5.81-3.35,11.77-5.35,13.32-4.46s-1.92,4.32-7.73,7.67l-16.25,9.37c-5.81,3.35-9.28,6.79-7.75,7.67s7.47-1.11,13.27-4.46l16.26-9.4c5.81-3.36,11.77-5.35,13.31-4.44s-1.92,4.35-7.73,7.7l-16.24,9.37c-5.81,3.35-9.29,6.78-7.76,7.67s7.47-1.11,13.28-4.47l16.25-9.4c5.81-3.35,11.77-5.36,13.31-4.47s-1.91,4.33-7.72,7.69l-16.26,9.4c-5.8,3.36-9.27,6.79-7.75,7.66s7.47-1.14,13.28-4.5l16.19-9.35c5.81-3.35,11.77-5.35,13.31-4.46s-1.91,4.33-7.71,7.69l-16.21,9.39c-5.8,3.36-9.27,6.79-7.75,7.67s7.48-1.14,13.29-4.5l16.19-9.35c5.8-3.35,11.76-5.35,13.31-4.46s-1.92,4.33-7.73,7.68L421,385.76c-5.81,3.35-9.28,6.79-7.75,7.68s7.47-1.11,13.28-4.46l16.19-9.35c5.81-3.36,11.77-5.35,13.31-4.47s-1.92,4.33-7.72,7.69l-16.2,9.35c-5.8,3.35-9.28,6.78-7.75,7.65s7.48-1.14,13.29-4.48l16.17-9.32c5.82-3.34,11.78-5.34,13.32-4.45s-1.91,4.33-7.72,7.68l-16.19,9.35c-5.81,3.36-9.28,6.78-7.76,7.66s7.48-1.14,13.29-4.49l28.33-16.35c5.81-3.35,5.81-8.79,0-12.14L381.3,318c-5.81-3.35-15.23-3.36-21,0l-28.33,16.34c-5.81,3.35-9.26,6.8-7.7,7.71s7.54-1.08,13.35-4.44l16.3-9.41C359.69,324.84,365.65,322.84,367.2,323.73Z" style="fill: rgb(224, 224, 224); transform-origin: 402.671px 360.99px;" class="animable"></path><ellipse id="freepik--shadow--inject-2" cx="175.62" cy="409.99" rx="74.68" ry="43.12" style="fill: rgb(224, 224, 224); transform-origin: 175.62px 409.99px;" class="animable"></ellipse><ellipse id="freepik--shadow--inject-2" cx="308.55" cy="409.99" rx="74.68" ry="43.12" style="fill: rgb(224, 224, 224); transform-origin: 308.55px 409.99px;" class="animable"></ellipse><ellipse id="freepik--shadow--inject-2" cx="383.83" cy="407.44" rx="33.39" ry="19.28" style="fill: rgb(224, 224, 224); transform-origin: 383.83px 407.44px;" class="animable"></ellipse></g><g id="freepik--hair-combs--inject-2" class="animable" style="transform-origin: 250.235px 356.683px;"><path id="freepik--hair-comb--inject-2" d="M133.28,319.43c-1.55.88,1.91,4.32,7.72,7.68l16.31,9.41c5.81,3.36,9.28,6.79,7.76,7.68s-7.47-1.11-13.28-4.46l-16.31-9.42c-5.81-3.35-11.77-5.35-13.32-4.46s1.92,4.33,7.73,7.68L146.2,343c5.81,3.35,9.27,6.78,7.72,7.65s-7.5-1.14-13.31-4.49l-16.24-9.36c-5.82-3.35-11.78-5.35-13.32-4.46s1.92,4.32,7.73,7.68L135,349.34c5.81,3.35,9.29,6.79,7.76,7.68s-7.47-1.11-13.29-4.46l-16.24-9.37c-5.81-3.35-11.77-5.34-13.31-4.45s1.91,4.32,7.73,7.67l16.24,9.37c5.81,3.35,9.28,6.78,7.76,7.67s-7.47-1.11-13.28-4.47l-16.26-9.4c-5.8-3.35-11.76-5.34-13.31-4.44s1.92,4.36,7.73,7.71l16.24,9.36c5.82,3.35,9.29,6.79,7.76,7.68s-7.47-1.11-13.27-4.47L91,356c-5.81-3.36-11.77-5.36-13.31-4.47s1.91,4.33,7.72,7.69l16.26,9.4c5.81,3.36,9.28,6.78,7.75,7.66s-7.47-1.14-13.28-4.5L80,362.45C74.16,359.1,68.2,357.1,66.66,358s1.91,4.33,7.72,7.69l16.2,9.39c5.81,3.36,9.27,6.79,7.75,7.66s-7.47-1.14-13.28-4.49l-16.19-9.35c-5.81-3.36-11.77-5.35-13.31-4.47s1.91,4.33,7.72,7.69l16.19,9.35c5.81,3.35,9.28,6.79,7.75,7.68s-7.47-1.11-13.28-4.46l-16.19-9.35C51.93,372,46,370,44.43,370.86s1.92,4.33,7.73,7.68l16.19,9.35c5.81,3.36,9.28,6.79,7.75,7.66s-7.47-1.14-13.29-4.49l-16.17-9.31c-5.81-3.35-11.78-5.34-13.32-4.45S35.24,381.63,41,385l16.19,9.35C63,397.69,66.52,401.11,65,402s-7.47-1.13-13.28-4.49L23.37,381.15c-5.81-3.35-5.81-8.79,0-12.14l95.81-55.32c5.8-3.36,15.22-3.36,21,0L168.55,330c5.81,3.35,9.25,6.8,7.69,7.7s-7.53-1.07-13.34-4.43l-16.31-9.41C140.78,320.53,134.82,318.54,133.28,319.43Z" style="fill: rgb(250, 250, 250); transform-origin: 97.8141px 356.69px;" class="animable"></path><path d="M64,402.68c-2.77,0-8.12-2.23-12.49-4.75L23.12,381.58c-3-1.71-4.6-4-4.6-6.5s1.63-4.79,4.6-6.5l95.81-55.33c5.93-3.42,15.59-3.43,21.53,0l28.33,16.34c3.84,2.22,8.32,5.51,8.33,7.51a1.2,1.2,0,0,1-.63,1.07c-2,1.16-8.62-1.42-13.84-4.43l-16.31-9.42c-6.05-3.49-11.61-5.15-12.81-4.46h0c-.1.06-.12.1-.12.18,0,.88,2.43,3.51,7.84,6.63l16.31,9.42c3.86,2.22,8.36,5.52,8.37,7.5a1.16,1.16,0,0,1-.61,1c-2,1.14-8.56-1.44-13.78-4.46l-16.31-9.41c-6.06-3.5-11.62-5.16-12.82-4.46a.16.16,0,0,0-.11.18c0,.87,2.43,3.51,7.84,6.63l16.31,9.42c3.85,2.22,8.35,5.51,8.34,7.48a1.14,1.14,0,0,1-.62,1c-2,1.12-8.59-1.47-13.81-4.49l-16.24-9.36c-6.06-3.49-11.62-5.15-12.82-4.46a.19.19,0,0,0-.12.19c0,.87,2.44,3.5,7.85,6.62l16.24,9.37c3.86,2.22,8.37,5.52,8.37,7.49a1.16,1.16,0,0,1-.61,1.05c-1.95,1.14-8.56-1.45-13.78-4.46L113,343.63c-6-3.49-11.61-5.15-12.81-4.46-.1.06-.12.1-.12.18,0,.88,2.43,3.51,7.85,6.63l16.24,9.36c3.86,2.23,8.36,5.53,8.37,7.5a1.16,1.16,0,0,1-.61,1c-2,1.14-8.56-1.45-13.78-4.46L101.88,350c-6-3.5-11.6-5.15-12.8-4.45a.2.2,0,0,0-.12.2c0,.88,2.44,3.53,7.84,6.65L113,361.78c3.86,2.22,8.37,5.52,8.37,7.5a1.17,1.17,0,0,1-.6,1c-2,1.14-8.56-1.45-13.78-4.47l-16.26-9.4C84.72,353,79.16,351.29,78,352a.19.19,0,0,0-.12.19c0,.87,2.43,3.51,7.84,6.64l16.26,9.4c3.86,2.23,8.37,5.53,8.36,7.49a1.15,1.15,0,0,1-.61,1c-2,1.12-8.56-1.48-13.78-4.5l-16.19-9.34c-6-3.5-11.61-5.16-12.81-4.47-.1.06-.12.11-.12.18,0,.88,2.43,3.52,7.84,6.65l16.2,9.39c3.86,2.23,8.36,5.53,8.36,7.5a1.16,1.16,0,0,1-.61,1c-2,1.12-8.56-1.48-13.78-4.5l-16.19-9.35c-6-3.49-11.61-5.15-12.81-4.46-.1.06-.12.1-.12.18,0,.88,2.43,3.51,7.84,6.63L79.71,381c3.86,2.23,8.36,5.53,8.36,7.51a1.17,1.17,0,0,1-.6,1c-2,1.14-8.56-1.45-13.79-4.46l-16.19-9.35c-6.05-3.5-11.6-5.16-12.81-4.47a.18.18,0,0,0-.11.19c0,.87,2.43,3.51,7.84,6.63l16.19,9.35C72.46,389.69,77,393,77,395a1.15,1.15,0,0,1-.61,1c-1.95,1.12-8.56-1.47-13.79-4.48l-16.17-9.32c-6.06-3.48-11.62-5.14-12.82-4.45a.19.19,0,0,0-.12.19c0,.87,2.43,3.5,7.84,6.63l16.19,9.35c3.87,2.23,8.37,5.53,8.37,7.49a1.16,1.16,0,0,1-.61,1A2.67,2.67,0,0,1,64,402.68Zm65.75-91a21,21,0,0,0-10.27,2.45L23.62,369.44c-2.65,1.53-4.1,3.53-4.1,5.64s1.46,4.11,4.1,5.64L52,397.06c6,3.49,11.59,5.17,12.78,4.49.1-.06.11-.1.11-.17,0-.86-2.44-3.48-7.87-6.62l-16.19-9.35c-3.84-2.22-8.34-5.52-8.34-7.49a1.17,1.17,0,0,1,.62-1.05c2-1.14,8.6,1.44,13.82,4.45l16.17,9.31c6.06,3.49,11.6,5.16,12.79,4.48.1-.05.11-.1.11-.16,0-.87-2.44-3.49-7.86-6.62L51.91,379c-3.85-2.23-8.35-5.52-8.34-7.5a1.18,1.18,0,0,1,.61-1.05c2-1.14,8.59,1.45,13.81,4.46l16.19,9.35c6.06,3.5,11.59,5.16,12.78,4.47.1-.06.11-.1.11-.18,0-.87-2.44-3.51-7.86-6.64L63,372.54c-3.85-2.22-8.34-5.52-8.34-7.5A1.17,1.17,0,0,1,55.3,364c2-1.14,8.59,1.45,13.81,4.47l16.19,9.35c6,3.49,11.59,5.17,12.78,4.49.1-.06.11-.1.11-.17,0-.86-2.44-3.49-7.86-6.63l-16.2-9.38c-3.85-2.23-8.34-5.53-8.34-7.52a1.18,1.18,0,0,1,.62-1.05c2-1.13,8.59,1.46,13.81,4.47l16.19,9.35c6,3.49,11.59,5.17,12.78,4.49.1-.05.11-.1.11-.16,0-.87-2.43-3.49-7.86-6.63l-16.26-9.4c-3.85-2.22-8.34-5.52-8.34-7.5a1.17,1.17,0,0,1,.62-1.05c2-1.14,8.59,1.45,13.81,4.47l16.26,9.4c6,3.49,11.58,5.16,12.77,4.47.1-.06.11-.1.11-.18,0-.87-2.44-3.51-7.87-6.63L96.3,353.28c-3.84-2.21-8.34-5.51-8.34-7.51a1.19,1.19,0,0,1,.61-1.06c2-1.16,8.59,1.42,13.81,4.44l16.26,9.4c6,3.5,11.59,5.16,12.78,4.47a.18.18,0,0,0,.11-.18c0-.87-2.45-3.5-7.87-6.63l-16.24-9.36c-3.85-2.22-8.35-5.52-8.35-7.5a1.18,1.18,0,0,1,.62-1.05c2-1.13,8.59,1.45,13.81,4.46l16.24,9.36c6.06,3.5,11.6,5.16,12.79,4.46a.17.17,0,0,0,.11-.17c0-.88-2.44-3.51-7.87-6.64l-16.24-9.36c-3.85-2.22-8.35-5.52-8.35-7.49a1.17,1.17,0,0,1,.62-1.05c2-1.14,8.59,1.44,13.82,4.45l16.24,9.37c6,3.49,11.61,5.16,12.82,4.48.1-.06.11-.1.11-.17,0-.86-2.43-3.48-7.84-6.61L129.64,334c-3.85-2.22-8.34-5.52-8.34-7.5a1.18,1.18,0,0,1,.61-1.05c2-1.14,8.6,1.45,13.82,4.46L152,339.31c6.05,3.49,11.59,5.15,12.78,4.46a.18.18,0,0,0,.11-.18c0-.87-2.45-3.51-7.87-6.64l-16.31-9.41c-3.85-2.22-8.34-5.52-8.34-7.5A1.17,1.17,0,0,1,133,319c2-1.14,8.59,1.45,13.81,4.47l16.31,9.41c6,3.49,11.62,5.14,12.84,4.43.11-.06.13-.11.13-.2,0-.88-2.43-3.53-7.83-6.64L140,314.12A20.9,20.9,0,0,0,129.7,311.67Z" style="fill: rgb(224, 224, 224); transform-origin: 97.82px 356.682px;" id="elq57281p72di" class="animable"></path><path id="freepik--hair-comb--inject-2" d="M367.2,319.43c1.54.88-1.92,4.32-7.73,7.68l-16.31,9.41c-5.81,3.36-9.28,6.79-7.75,7.68s7.47-1.11,13.28-4.46L365,330.32c5.81-3.35,11.77-5.35,13.31-4.46s-1.92,4.33-7.73,7.68L354.27,343c-5.8,3.35-9.26,6.78-7.72,7.65s7.5-1.14,13.31-4.49l16.25-9.36c5.81-3.35,11.77-5.35,13.31-4.46s-1.91,4.32-7.73,7.68l-16.24,9.36c-5.81,3.35-9.28,6.79-7.76,7.68s7.48-1.11,13.29-4.46l16.24-9.37c5.81-3.35,11.77-5.34,13.32-4.45s-1.92,4.32-7.73,7.67l-16.25,9.37c-5.81,3.35-9.28,6.78-7.75,7.67s7.47-1.11,13.27-4.47l16.26-9.4c5.81-3.35,11.77-5.34,13.31-4.44s-1.92,4.36-7.73,7.71l-16.24,9.36c-5.81,3.35-9.29,6.79-7.76,7.68s7.47-1.11,13.28-4.47l16.25-9.4c5.81-3.36,11.77-5.36,13.31-4.47s-1.91,4.33-7.72,7.69l-16.26,9.4c-5.8,3.36-9.27,6.78-7.75,7.66s7.47-1.14,13.28-4.5l16.19-9.35c5.81-3.35,11.77-5.35,13.31-4.46s-1.91,4.33-7.71,7.69l-16.21,9.39c-5.8,3.36-9.27,6.79-7.75,7.66s7.48-1.14,13.29-4.49l16.19-9.35c5.8-3.36,11.76-5.35,13.31-4.47s-1.92,4.33-7.73,7.69L421,381.46c-5.81,3.35-9.28,6.79-7.75,7.68s7.47-1.11,13.28-4.46l16.19-9.35C448.54,372,454.5,370,456,370.86s-1.92,4.33-7.72,7.68l-16.2,9.35c-5.8,3.36-9.28,6.79-7.75,7.66s7.48-1.14,13.29-4.49l16.17-9.31c5.82-3.35,11.78-5.34,13.32-4.45s-1.91,4.33-7.72,7.68l-16.19,9.35c-5.81,3.36-9.28,6.78-7.76,7.65s7.48-1.13,13.29-4.49l28.33-16.34c5.81-3.35,5.81-8.79,0-12.14l-95.8-55.32c-5.81-3.36-15.23-3.36-21,0L331.93,330c-5.81,3.35-9.26,6.8-7.7,7.7s7.54-1.07,13.35-4.43l16.3-9.41C359.69,320.53,365.65,318.54,367.2,319.43Z" style="fill: rgb(250, 250, 250); transform-origin: 402.636px 356.677px;" class="animable"></path><path d="M436.53,402.68a2.61,2.61,0,0,1-1.29-.26,1.17,1.17,0,0,1-.62-1c0-2,4.51-5.26,8.37-7.49l16.19-9.35c5.41-3.13,7.84-5.76,7.84-6.63a.19.19,0,0,0-.12-.19c-1.19-.69-6.76,1-12.82,4.45l-16.17,9.32c-5.22,3-11.83,5.6-13.79,4.48a1.15,1.15,0,0,1-.61-1c0-2,4.5-5.26,8.37-7.49l16.19-9.35c5.41-3.12,7.84-5.76,7.84-6.63a.19.19,0,0,0-.12-.19c-1.2-.69-6.76,1-12.81,4.47l-16.19,9.35c-5.22,3-11.83,5.6-13.78,4.46a1.16,1.16,0,0,1-.61-1c0-2,4.51-5.28,8.36-7.51L437,371.67c5.41-3.12,7.84-5.75,7.84-6.63,0-.08,0-.12-.11-.18-1.21-.69-6.76,1-12.81,4.46l-16.2,9.35c-5.21,3-11.81,5.62-13.77,4.5a1.17,1.17,0,0,1-.62-1c0-2,4.5-5.27,8.36-7.5l16.21-9.39c5.4-3.13,7.83-5.77,7.83-6.65,0-.07,0-.12-.12-.18-1.2-.69-6.76,1-12.81,4.47l-16.19,9.34c-5.22,3-11.82,5.62-13.78,4.5a1.15,1.15,0,0,1-.61-1c0-2,4.5-5.26,8.36-7.49l16.26-9.4c5.41-3.13,7.84-5.77,7.84-6.64a.19.19,0,0,0-.12-.19c-1.2-.69-6.76,1-12.81,4.47l-16.25,9.4c-5.22,3-11.82,5.61-13.78,4.47a1.16,1.16,0,0,1-.61-1c0-2,4.51-5.28,8.37-7.5l16.24-9.36c5.41-3.12,7.84-5.77,7.85-6.65a.2.2,0,0,0-.12-.2c-1.21-.7-6.76.95-12.81,4.45l-16.26,9.4c-5.22,3-11.82,5.6-13.78,4.46a1.15,1.15,0,0,1-.6-1c0-2,4.51-5.27,8.36-7.5L392.56,346c5.41-3.12,7.84-5.75,7.84-6.63,0-.08,0-.12-.11-.18-1.21-.69-6.77,1-12.82,4.46L371.23,353c-5.23,3-11.83,5.6-13.79,4.46a1.18,1.18,0,0,1-.61-1.05c0-2,4.51-5.27,8.37-7.49l16.24-9.37c5.42-3.12,7.85-5.75,7.85-6.62a.19.19,0,0,0-.12-.19c-1.2-.69-6.76,1-12.81,4.46l-16.25,9.36c-5.22,3-11.83,5.61-13.81,4.49a1.16,1.16,0,0,1-.62-1c0-2,4.49-5.26,8.34-7.48l16.31-9.42c5.41-3.12,7.85-5.76,7.85-6.63a.17.17,0,0,0-.12-.18c-1.2-.7-6.76,1-12.81,4.46l-16.31,9.41c-5.22,3-11.83,5.61-13.79,4.46a1.13,1.13,0,0,1-.6-1c0-2,4.51-5.28,8.36-7.5l16.31-9.42c5.41-3.12,7.84-5.75,7.84-6.63,0-.08,0-.12-.11-.18h0c-1.21-.69-6.76,1-12.82,4.46l-16.3,9.42c-5.23,3-11.86,5.59-13.85,4.43a1.21,1.21,0,0,1-.62-1.07c0-2,4.48-5.29,8.32-7.51L360,313.25c5.94-3.43,15.6-3.42,21.54,0l95.8,55.33c3,1.71,4.61,4,4.61,6.5s-1.64,4.79-4.61,6.5L449,397.93C444.64,400.45,439.3,402.68,436.53,402.68Zm29.54-26.09a2.66,2.66,0,0,1,1.33.28,1.17,1.17,0,0,1,.62,1.05c0,2-4.49,5.27-8.34,7.49l-16.19,9.35c-5.43,3.14-7.87,5.76-7.87,6.62,0,.07,0,.11.11.17,1.19.68,6.73-1,12.79-4.49l28.33-16.34c2.65-1.53,4.11-3.53,4.11-5.64s-1.46-4.11-4.11-5.64l-95.8-55.32c-5.66-3.27-14.88-3.27-20.54,0l-28.33,16.34c-5.39,3.11-7.82,5.76-7.82,6.64a.2.2,0,0,0,.12.2c1.22.71,6.79-.94,12.85-4.43l16.3-9.41c5.23-3,11.84-5.6,13.82-4.47a1.18,1.18,0,0,1,.61,1.05c0,2-4.49,5.28-8.34,7.5L343.41,337c-5.42,3.13-7.86,5.77-7.86,6.64a.16.16,0,0,0,.11.18c1.19.69,6.73-1,12.78-4.46l16.31-9.42c5.22-3,11.83-5.6,13.81-4.46a1.17,1.17,0,0,1,.62,1.05c0,2-4.5,5.27-8.35,7.5l-16.31,9.41c-5.41,3.13-7.84,5.75-7.84,6.61,0,.07,0,.11.12.17,1.2.68,6.76-1,12.81-4.48l16.25-9.37c5.22-3,11.84-5.59,13.81-4.45a1.17,1.17,0,0,1,.62,1.05c0,2-4.5,5.27-8.35,7.49l-16.24,9.36c-5.42,3.13-7.87,5.76-7.87,6.64a.17.17,0,0,0,.11.17c1.19.69,6.73-1,12.79-4.46L387,342.76c5.22-3,11.84-5.59,13.82-4.46a1.19,1.19,0,0,1,.61,1.05c0,2-4.49,5.28-8.34,7.5l-16.25,9.36c-5.42,3.13-7.86,5.76-7.86,6.63a.16.16,0,0,0,.11.18c1.18.69,6.72-1,12.77-4.47l16.26-9.4c5.22-3,11.83-5.6,13.81-4.44a1.2,1.2,0,0,1,.62,1.06c0,2-4.51,5.3-8.35,7.51l-16.24,9.37c-5.43,3.12-7.87,5.76-7.87,6.63,0,.08,0,.12.11.18,1.19.69,6.73-1,12.78-4.47l16.25-9.4c5.22-3,11.84-5.61,13.81-4.47a1.17,1.17,0,0,1,.62,1.05c0,2-4.49,5.28-8.34,7.5L399,369.07c-5.42,3.14-7.86,5.76-7.86,6.63,0,.06,0,.11.11.16,1.19.68,6.73-1,12.78-4.49L420.25,362c5.22-3,11.84-5.6,13.81-4.47a1.18,1.18,0,0,1,.62,1.05c0,2-4.49,5.29-8.33,7.52l-16.21,9.38c-5.42,3.14-7.86,5.77-7.86,6.63a.18.18,0,0,0,.11.17c1.19.68,6.74-1,12.78-4.49l16.2-9.35c5.22-3,11.83-5.61,13.81-4.47a1.18,1.18,0,0,1,.61,1.05c0,2-4.49,5.28-8.34,7.5l-16.19,9.35c-5.42,3.13-7.86,5.77-7.86,6.64,0,.08,0,.12.11.18,1.19.69,6.73-1,12.78-4.47l16.19-9.35c5.22-3,11.83-5.6,13.81-4.46a1.17,1.17,0,0,1,.62,1.05c0,2-4.49,5.27-8.34,7.5l-16.19,9.35c-5.43,3.13-7.87,5.75-7.87,6.62,0,.06,0,.11.11.16,1.19.68,6.73-1,12.79-4.48l16.17-9.31C458,378.81,463.28,376.59,466.07,376.59Z" style="fill: rgb(224, 224, 224); transform-origin: 402.655px 356.683px;" id="elzunkgwjr23" class="animable"></path></g><g id="freepik--character-2--inject-2" class="animable" style="transform-origin: 351.747px 247.363px;"><g id="freepik--Character--inject-2" class="animable" style="transform-origin: 351.747px 247.363px;"><g id="freepik--Arm--inject-2" class="animable" style="transform-origin: 383.207px 160.126px;"><path d="M425.54,156.69c-.7-.06-1.25.3-2.65.66a13.44,13.44,0,0,0,4.85-3.86,2.24,2.24,0,0,0,.36-1c0-.3-.13-1.16-.6-1.36,0,0,.78-.79,1.47-1.46s1.74-1.9.69-2.49c-.83-.47-2-.11-3.37.57a3.28,3.28,0,0,0,1.16-1.66c.05-1.24-.73-1.91-3.17-.8s-8.53,4.16-13.38,4.14c-.87,0-2.62.22-3.33-.37h0c-1-.81.47-2.13,1.08-2.7a19.16,19.16,0,0,0,1.64-1.73,6.72,6.72,0,0,0,1.36-2.28,3,3,0,0,0-.28-2.56c-.27-.4-.7-.71-1.13-.39-1.71,1.27-3.45,2.48-5.16,3.74a33.17,33.17,0,0,0-4.75,3.83c-1.6,1.69-2.9,4-5.22,6.37s-4.79,4.43-10.55,8.25c-3.18,2.1-11.62,7.77-11.62,7.77s-11.75-19.86-16.42-26.89c-8.74-13.15-11.81-15-19.14-15.64l4.12,33.92s10.49,15.57,15.39,22.43c7.8,10.91,10,11,12.8,10.91h0c8.9-.29,16.43-11,30.29-26.4a10.77,10.77,0,0,1,8-3.65c1.65,0,3.5-.12,4.59-.17a29.08,29.08,0,0,0,5-.88c2.69-.73,2.71-.53,6.61-3.15.48-.32,2.43-1.79,2.32-2.36A1,1,0,0,0,425.54,156.69Z" style="fill: rgb(177, 102, 104); transform-origin: 383.742px 160.466px;" id="elerlcoia4vrq" class="animable"></path><path d="M422.89,157.35a24.25,24.25,0,0,1-3.72,1.17c-1.26.34-2.55.52-3.83.85a15,15,0,0,0,3.94-.37A9.73,9.73,0,0,0,422.89,157.35Z" style="fill: rgb(154, 74, 77); transform-origin: 419.115px 158.366px;" id="eldehwmxjd6yt" class="animable"></path><path d="M399.52,158.19a3,3,0,0,1,.2-.74,5.12,5.12,0,0,1,.8-1.25,6.54,6.54,0,0,1,2.36-1.71,6.34,6.34,0,0,1,6.14.73c.05,0,.09.24,0,.21-1.94-.54-3.9-1-5.85-.18a6.61,6.61,0,0,0-3.35,3.78c-.06.14-.22.08-.23-.06A2.27,2.27,0,0,1,399.52,158.19Z" style="fill: rgb(154, 74, 77); transform-origin: 404.293px 156.561px;" id="elbzez39iosxa" class="animable"></path><path d="M414.08,152.42a46,46,0,0,0,6.14-2c1.91-.73,3.77-1.61,5.64-2.45,0,0,0,0,0,.06a25.45,25.45,0,0,1-5.9,3,37.16,37.16,0,0,1-5.88,1.46S414.06,152.42,414.08,152.42Z" style="fill: rgb(154, 74, 77); transform-origin: 419.966px 150.23px;" id="elbsa7ggr6wy6" class="animable"></path><path d="M413.88,156a46,46,0,0,0,6.14-2c.77-.29,1.52-.61,2.27-.94s1.5-.62,2.2-1l.65-.37a5.5,5.5,0,0,1,.83-.44,2.66,2.66,0,0,1,1-.15s.08,0,.06,0a3.25,3.25,0,0,0-1.17.4c-.24.14-.47.29-.7.45s-.41.26-.62.39a22.23,22.23,0,0,1-2,1.1c-.88.43-1.77.8-2.68,1.14a37.27,37.27,0,0,1-5.89,1.46S413.86,156,413.88,156Z" style="fill: rgb(154, 74, 77); transform-origin: 420.455px 153.569px;" id="elct1qlmlh4k9" class="animable"></path><path d="M372.94,169.33c-4.68,2.36-7.26,6.88-8,12.25-.68-5.2-.33-10.42,6.93-14.33Z" style="fill: rgb(154, 74, 77); transform-origin: 368.821px 174.415px;" id="elfvh51bourl" class="animable"></path><path d="M336.31,126.15c5.18,0,9.64,1.38,14.52,7.23s15.23,23.86,15.23,23.86a22.32,22.32,0,0,1-6.49,8.79,37.82,37.82,0,0,1-10.39,6.25l-8.79-12.11Z" style="fill: #B465C3; transform-origin: 351.185px 149.215px;" id="el2zvo51b0ojq" class="animable"></path></g><g id="freepik--hair-curler--inject-2" class="animable" style="transform-origin: 373.804px 236.684px;"><path d="M377.63,411.53a10.66,10.66,0,0,1-5.3-1.42L312.4,375.54a1.44,1.44,0,0,1,1.44-2.49l59.92,34.57a7.74,7.74,0,0,0,11.55-5.77l1-8.58a1.44,1.44,0,1,1,2.85.35l-1,8.58a10.61,10.61,0,0,1-10.53,9.33Z" style="fill: rgb(38, 50, 56); transform-origin: 350.465px 392.211px;" id="el8kmy0hvjy6a" class="animable"></path><path d="M383.13,399.13a8.7,8.7,0,0,0,7.84,1,3,3,0,0,0,1.77-1.59h0l3-14.48-13.52-1.65-.48,14.84h0A3.15,3.15,0,0,0,383.13,399.13Z" style="fill: rgb(69, 90, 100); transform-origin: 388.74px 391.526px;" id="eley7rdlxhqlr" class="animable"></path><path d="M380.24,386.84c4.48,3.39,12.3,4.36,17.48,2.17a6.85,6.85,0,0,0,3.94-3.56h0l4-8.54-30.15-3.69,1.76,9.34h0A7,7,0,0,0,380.24,386.84Z" style="fill: rgb(38, 50, 56); transform-origin: 390.585px 381.701px;" id="elp80ium0c2a" class="animable"></path><path d="M379.17,378.46c5.55,4.19,15.23,5.39,21.63,2.69s7.1-8.3,1.56-12.49-15.23-5.4-21.63-2.69S373.63,374.27,379.17,378.46Z" style="fill: rgb(55, 71, 79); transform-origin: 390.765px 373.558px;" id="eluh8knyhz4fb" class="animable"></path><path d="M375.43,377.41c7.17,5.42,19.69,7,28,3.48,4.11-1.74,6.37-4.39,6.74-7.29.17-1.33.38-3,.54-4.36.37-2.91-1.18-6.05-4.75-8.75-7.17-5.42-19.69-7-28-3.47-4.12,1.74-6.38,4.4-6.74,7.3-.17,1.32-.38,3-.54,4.36C370.32,371.58,371.86,374.72,375.43,377.41Z" id="elj0talh4vkzf" class="animable" style="transform-origin: 390.696px 368.951px;"></path><path d="M376,373.17c7.17,5.42,19.7,7,28,3.47s9.17-10.73,2-16.15-19.69-7-28-3.47S368.78,367.75,376,373.17Z" style="fill: rgb(55, 71, 79); transform-origin: 390.988px 366.83px;" id="elsrf10ijwtz" class="animable"></path><path d="M377.64,371c6.37,4.81,17.48,6.19,24.83,3.08,3.65-1.54,5.66-3.9,6-6.47.15-1.17,12.05-96.94,12.19-98.11.33-2.58-1-5.36-4.21-7.76-6.37-4.81-17.48-6.19-24.83-3.09-3.66,1.55-5.67,3.91-6,6.49-.14,1.17-12.05,96.93-12.19,98.1C373.11,365.84,374.48,368.63,377.64,371Z" style="fill: rgb(38, 50, 56); transform-origin: 397.047px 316.369px;" id="el79o4l1zolmk" class="animable"></path><path d="M422.24,253.4l-16.61-2.05-1.1-.13-16.62-2.05c-7.36,15.39-8.61,34.92-6.41,49.14h0c0,2.37,1.41,4.87,4.29,7,6.37,4.81,17.48,6.18,24.83,3.07,3.31-1.4,5.28-3.48,5.88-5.78h0C422.1,289.38,425.64,270.12,422.24,253.4Z" style="fill: rgb(55, 71, 79); transform-origin: 402.047px 279.608px;" id="elcfg5s281p5s" class="animable"></path><path d="M390.76,260.08c6.79,5.13,18.64,6.61,26.48,3.29,3.89-1.64,6-4.16,6.38-6.9.16-1.25.36-2.88.52-4.13.34-2.75-1.12-5.72-4.5-8.28-6.79-5.13-18.64-6.6-26.48-3.29-3.9,1.65-6,4.17-6.39,6.92-.15,1.25-.35,2.87-.51,4.12C385.92,254.56,387.38,257.53,390.76,260.08Z" id="elu5493ghtq1d" class="animable" style="transform-origin: 405.2px 252.072px;"></path><path d="M391.26,256.06c6.79,5.13,18.64,6.61,26.48,3.29s8.69-10.16,1.9-15.29-18.64-6.6-26.48-3.29S384.47,250.93,391.26,256.06Z" style="fill: rgb(55, 71, 79); transform-origin: 405.45px 250.062px;" id="elwdctwyxukcj" class="animable"></path><path d="M393.52,255.1c5.71,4.32,15.67,5.55,22.26,2.77,3.38-1.43,5.19-3.65,5.4-6.05h0L435,87.83l-18.73-2.26L389.76,247.79h.05C389.36,250.21,390.54,252.85,393.52,255.1Z" style="fill: #B465C3; transform-origin: 412.359px 172.463px;" id="eld6mov6nywzu" class="animable"></path><g id="elgj513ds7jw"><path d="M393.52,255.1c5.71,4.32,15.67,5.55,22.26,2.77,3.38-1.43,5.19-3.65,5.4-6.05h0L435,87.83l-18.73-2.26L389.76,247.79h.05C389.36,250.21,390.54,252.85,393.52,255.1Z" style="fill: rgb(255, 255, 255); opacity: 0.7; transform-origin: 412.359px 172.463px;" class="animable" id="elal7zbucfbbb"></path></g><g id="elsilekuxrs8m"><path d="M432.2,93.8a9.72,9.72,0,0,1-6.41.76S413.18,223.5,411.62,236.13s6.47,15.16,8-.07C421.57,217,432.2,93.8,432.2,93.8Z" style="fill: rgb(255, 255, 255); opacity: 0.3; transform-origin: 421.81px 170.181px;" class="animable" id="elm0enq7rel4g"></path></g><g id="elk0qccor8t4m"><path d="M393.52,255.1c3.67,2.77,9.08,4.26,14.24,4.25-5.07-3.2-9.43-9-8.43-15.14,1.58-9.65,14.53-102,22.88-155.82l-.06-2.11-5.88-.71L389.76,247.79h.05C389.36,250.21,390.54,252.85,393.52,255.1Z" style="fill: #B465C3; opacity: 0.2; transform-origin: 405.964px 172.46px;" class="animable" id="el292pv6xn1hr"></path></g><path d="M418.51,89.93a14.76,14.76,0,0,0,13.26,1.65c3.92-1.66,4.34-5.08,1-7.65a14.76,14.76,0,0,0-13.26-1.65C415.54,83.94,415.12,87.37,418.51,89.93Z" style="fill: #B465C3; transform-origin: 425.621px 86.93px;" id="elojfxc32fyai" class="animable"></path><g id="eladlte4t320q"><path d="M418.51,89.93a14.76,14.76,0,0,0,13.26,1.65c3.92-1.66,4.34-5.08,1-7.65a14.76,14.76,0,0,0-13.26-1.65C415.54,83.94,415.12,87.37,418.51,89.93Z" style="fill: rgb(255, 255, 255); opacity: 0.4; transform-origin: 425.621px 86.93px;" class="animable" id="elmc2p5iyk8zl"></path></g><path d="M408,281.67a10.64,10.64,0,0,1,5.8-7.68,3.36,3.36,0,0,1,3.4.08l2.14,1.62a3.35,3.35,0,0,1,1,3.25,10.66,10.66,0,0,1-5.81,7.68,3.36,3.36,0,0,1-3.39-.09L409,284.91A3.34,3.34,0,0,1,408,281.67Z" style="fill: #B465C3; transform-origin: 414.17px 280.301px;" id="elzgkxfpv8pr" class="animable"></path><g id="elszpcpiowhur"><path d="M408,281.67a10.64,10.64,0,0,1,5.8-7.68,3.36,3.36,0,0,1,3.4.08l2.14,1.62a3.35,3.35,0,0,1,1,3.25,10.66,10.66,0,0,1-5.81,7.68,3.36,3.36,0,0,1-3.39-.09L409,284.91A3.34,3.34,0,0,1,408,281.67Z" style="opacity: 0.2; transform-origin: 414.17px 280.301px;" class="animable" id="elk15z5djev9l"></path></g><path d="M410.11,283.27a10.66,10.66,0,0,1,5.81-7.69c2.82-1.19,4.81.31,4.43,3.36a10.66,10.66,0,0,1-5.81,7.68C411.72,287.81,409.73,286.31,410.11,283.27Z" style="fill: #B465C3; transform-origin: 415.23px 281.1px;" id="elfgdgjiyp94u" class="animable"></path><path d="M395.69,333.16a10.66,10.66,0,0,1,5.81-7.69,3.36,3.36,0,0,1,3.39.09c.37.27,1.78,1.35,2.14,1.62a3.34,3.34,0,0,1,1,3.24,10.66,10.66,0,0,1-5.81,7.69,3.36,3.36,0,0,1-3.39-.09l-2.15-1.62A3.39,3.39,0,0,1,395.69,333.16Z" style="fill: #B465C3; transform-origin: 401.862px 331.79px;" id="elonf4rze9dxb" class="animable"></path><g id="elzw4x0127p7"><path d="M395.69,333.16a10.66,10.66,0,0,1,5.81-7.69,3.36,3.36,0,0,1,3.39.09c.37.27,1.78,1.35,2.14,1.62a3.34,3.34,0,0,1,1,3.24,10.66,10.66,0,0,1-5.81,7.69,3.36,3.36,0,0,1-3.39-.09l-2.15-1.62A3.39,3.39,0,0,1,395.69,333.16Z" style="opacity: 0.2; transform-origin: 401.862px 331.79px;" class="animable" id="elkjn9gpbk1vj"></path></g><path d="M397.81,334.75a10.63,10.63,0,0,1,5.8-7.68c2.83-1.19,4.82.31,4.44,3.35a10.66,10.66,0,0,1-5.81,7.69C399.41,339.3,397.43,337.8,397.81,334.75Z" style="fill: #B465C3; transform-origin: 402.93px 332.59px;" id="ellm54l9b1h98" class="animable"></path><path d="M392.76,356.42a10.63,10.63,0,0,1,5.81-7.68,3.34,3.34,0,0,1,3.39.08c.37.27,1.78,1.35,2.14,1.62a3.38,3.38,0,0,1,1,3.25,10.66,10.66,0,0,1-5.81,7.68,3.38,3.38,0,0,1-3.4-.09l-2.14-1.62A3.36,3.36,0,0,1,392.76,356.42Z" style="fill: #B465C3; transform-origin: 398.929px 355.051px;" id="el6ryb9e83y67" class="animable"></path><g id="ellu484o7ita"><path d="M392.76,356.42a10.63,10.63,0,0,1,5.81-7.68,3.34,3.34,0,0,1,3.39.08c.37.27,1.78,1.35,2.14,1.62a3.38,3.38,0,0,1,1,3.25,10.66,10.66,0,0,1-5.81,7.68,3.38,3.38,0,0,1-3.4-.09l-2.14-1.62A3.36,3.36,0,0,1,392.76,356.42Z" style="opacity: 0.2; transform-origin: 398.929px 355.051px;" class="animable" id="elg6xmz8esy6d"></path></g><path d="M394.88,358a10.62,10.62,0,0,1,5.8-7.69c2.83-1.19,4.82.31,4.44,3.36a10.66,10.66,0,0,1-5.81,7.68C396.48,362.56,394.5,361.06,394.88,358Z" style="fill: #B465C3; transform-origin: 400px 355.835px;" id="elgyettl9pybo" class="animable"></path><path d="M435,88.09c.56-4.53.79-14.44.85-17.53a7.44,7.44,0,0,0,0-.94,8.19,8.19,0,0,0-16-2,7.35,7.35,0,0,0-.21.92c-.7,3-2.88,12.68-3.44,17.21h.05c-.16,1.39.58,2.88,2.27,4.16a14.76,14.76,0,0,0,13.26,1.65c2-.83,3.05-2.1,3.22-3.49Z" style="fill: rgb(69, 90, 100); transform-origin: 426.032px 77.1471px;" id="eljqeob5z33ue" class="animable"></path><path d="M420.84,89.12c-.44-1.91.25-6.4,1.36-14.3s3-12.6,6.48-12.92a8.19,8.19,0,0,0-8.84,5.74,7.35,7.35,0,0,0-.21.92c-.7,3-2.88,12.68-3.44,17.21h.05c-.16,1.39.58,2.88,2.27,4.16a15,15,0,0,0,11.62,2.18C427.2,92.26,421.27,91,420.84,89.12Z" style="fill: rgb(55, 71, 79); transform-origin: 423.16px 77.1542px;" id="el87k0s8eiqa3" class="animable"></path><g id="elh8cc4rowg0h"><path d="M428.46,64.08a3.06,3.06,0,0,0-2.36,2.8c0,1.64,1.75,2.78,2.71,4a13.89,13.89,0,0,1,2.75,5.36c.2.75.3,1.94.9,2.51s1.21.11,1.48-.47a5.81,5.81,0,0,0,.4-1.89,40.12,40.12,0,0,0,.13-4.65,9.77,9.77,0,0,0-1.6-5.41c-.94-1.42-2.41-2.57-4.2-2.25Z" style="fill: rgb(255, 255, 255); opacity: 0.1; transform-origin: 430.294px 71.5184px;" class="animable" id="elc3rtxaswnt4"></path></g></g><g id="freepik--Bottom--inject-2" class="animable" style="transform-origin: 317.305px 308.39px;"><path d="M285.71,351.38c1.23-1.59,11.8-17.74,19.53-32.29l20.08,16.58c-12,13-22.87,25-24.22,26.56-6.08,7.19-5.42,11.7-5.15,14.8.56,6.48,3,12.18,6.05,19.49-2,1.07-11-5-12.62-8.41-2.59-5.41-5.22-15.92-5.93-18.08-3.43-10.43.54-16.84.54-16.84Z" style="fill: rgb(255, 189, 167); transform-origin: 303.687px 357.867px;" id="els0ulrr2knj" class="animable"></path><path d="M300.6,404.5c-.57.58-1.67,3.09-4.48,3.18-2.5.08-8.62-1.94-13.18-7.89s-5.56-10.16-5.93-14,.75-8.15-1.76-12.9c-1.5-2.82-3.13-6.06-3.17-7.43S275.9,361,275.9,361Z" style="fill: rgb(38, 50, 56); transform-origin: 286.34px 384.341px;" id="el4nhb4to59zx" class="animable"></path><path d="M285.71,351.38a1.18,1.18,0,0,0-1.48-.12c-1,.63-.8,1.43-3.51,4.05a46.59,46.59,0,0,0-6.53,7.13c-1.33,1.7.48,5.55,2.73,9.59,1.72,3.1,2.06,8.25,2.3,13.06.41,8.25,5.72,14.75,12.8,18.78,2.05,1.17,4.68,2.31,7,1.38a4,4,0,0,0,2.37-2.46,9,9,0,0,0,1.08-4,17,17,0,0,0-1.25-4.69c-.65-1.77-1.23-3.57-1.8-5.37-1.63-5.16-3.28-10.58-2.28-15.84a17.53,17.53,0,0,1,.49-2.6,10.46,10.46,0,0,1,1.44-2.7,11.61,11.61,0,0,0,.94-1.35,2.22,2.22,0,0,0,.26-1.59,2.86,2.86,0,0,0-.9-1.28,15,15,0,0,0-2.33-1.71,34.25,34.25,0,0,0-4-2.1,8.26,8.26,0,0,0-2.88-.86,4.7,4.7,0,0,0-3.62,1.36,9.82,9.82,0,0,1-1.84,1.91q.24-1.4.6-2.76a14.32,14.32,0,0,0,.66-2.41,6.32,6.32,0,0,0-.38-3.1,13.92,13.92,0,0,1-.59-1.3Z" style="fill: rgb(55, 71, 79); transform-origin: 288.104px 378.323px;" id="elw3zqy6fofx" class="animable"></path><path d="M301.11,393.76c-8.05-7.14-16.7-2.89-19.85-.45a25.94,25.94,0,0,0,4.25,6.5c5.13,5.35,10.29,6.73,13.17,6C302,404.94,304.46,401.12,301.11,393.76Z" style="fill: rgb(250, 250, 250); transform-origin: 291.983px 397.901px;" id="el4rsc31s7i9h" class="animable"></path><path d="M289.27,384.34a.51.51,0,0,1-.15-.31.48.48,0,0,1,.45-.55c2.32-.17,7.8.9,10.25,4a.51.51,0,0,1-.07.72.53.53,0,0,1-.73-.1c-2.29-2.85-7.5-3.69-9.34-3.56A.52.52,0,0,1,289.27,384.34Z" style="fill: rgb(240, 240, 240); transform-origin: 294.526px 385.883px;" id="elna3q5kqeog7" class="animable"></path><path d="M288,379.13a.56.56,0,0,1-.15-.32.51.51,0,0,1,.46-.55c2.31-.16,7.81.9,10.24,4a.5.5,0,0,1-.07.72.51.51,0,0,1-.72-.1c-2.29-2.85-7.5-3.7-9.34-3.56A.54.54,0,0,1,288,379.13Z" style="fill: rgb(240, 240, 240); transform-origin: 293.26px 380.665px;" id="els9bnidxjpk" class="animable"></path><path d="M287,374.17a.56.56,0,0,1-.15-.32.49.49,0,0,1,.45-.55c2.32-.17,7.82.91,10.25,4a.51.51,0,0,1-.07.72.53.53,0,0,1-.73-.09c-2.28-2.85-7.5-3.7-9.33-3.57A.53.53,0,0,1,287,374.17Z" style="fill: rgb(240, 240, 240); transform-origin: 292.257px 375.705px;" id="elej1ay0j0dae" class="animable"></path><path d="M286.5,368.12a.54.54,0,0,1-.15-.3.5.5,0,0,1,.45-.56c3.24-.29,8.47,1.5,10.91,4.56a.51.51,0,0,1-.07.72.53.53,0,0,1-.73-.1c-2.2-2.75-7.11-4.41-10-4.16A.52.52,0,0,1,286.5,368.12Z" style="fill: rgb(240, 240, 240); transform-origin: 292.087px 369.936px;" id="eljksk8tnhsug" class="animable"></path><path d="M303.07,317.17c5.14-10.41,13.3-15.76,16.77-20.5s9.89-14.28,9.89-14.28l2.57.26-5.54,55.83-23.53,22.35a48.22,48.22,0,0,1-8.9-6.68,16.54,16.54,0,0,1-4.86-8.8S297.93,327.58,303.07,317.17Z" style="fill: rgb(38, 50, 56); transform-origin: 310.885px 321.61px;" id="elf6izzbgr7qj" class="animable"></path><path d="M303.42,390.85c0-2.1-1.15-22.35-3.73-39.48L327,352.81c-1.94,18.48-3.68,35.38-3.82,37.58-.63,9.88,2.74,13.27,4.91,15.71,4.53,5.12,10.13,8.42,17.31,12.68-1,2.13-12.43,2.63-15.92.79-5.57-2.95-14.37-10.17-16.32-11.55-9.42-6.65-10.08-14.56-10.08-14.56Z" style="fill: rgb(255, 189, 167); transform-origin: 322.545px 386.036px;" id="elrcxsc7vylb" class="animable"></path><path d="M349.23,426.38c-.12.86.52,3.65-1.79,5.49-2.06,1.64-8.49,3.75-16.07,1.59s-11.05-5.1-13.74-8.07-4.47-7.36-9.56-9.79c-3-1.45-6.44-3.16-7.32-4.29s.39-6.21.39-6.21Z" style="fill: rgb(38, 50, 56); transform-origin: 324.835px 419.74px;" id="elzoj83tia0m" class="animable"></path><path d="M303.42,390.85a1.27,1.27,0,0,0-1.33.83c-.43,1.15.22,1.71-.43,5.62a49.61,49.61,0,0,0-1.05,10.11c-.05,2.27,3.88,4.38,8.31,6.39,3.39,1.53,6.91,5.67,10.12,9.58,5.51,6.71,14.06,8.88,22.55,7.84,2.47-.3,5.4-1,6.78-3.21a4.24,4.24,0,0,0,.46-3.56c-.4-1.5-.57-2.83-1.61-4.08a17.73,17.73,0,0,0-4-3.18c-1.65-1.09-3.27-2.24-4.88-3.41-4.6-3.33-9.39-6.88-11.83-11.94a18.55,18.55,0,0,1-1.21-2.5,10.75,10.75,0,0,1-.48-3.18,12.46,12.46,0,0,0-.05-1.73,2.37,2.37,0,0,0-.78-1.51,2.93,2.93,0,0,0-1.56-.51,15.44,15.44,0,0,0-3,0,36.79,36.79,0,0,0-4.67.7,9,9,0,0,0-3,1.08,4.91,4.91,0,0,0-2.2,3.42,10.42,10.42,0,0,1-.36,2.75c-.45-.88-.86-1.78-1.22-2.7a15.08,15.08,0,0,0-1-2.44,6.45,6.45,0,0,0-2.26-2.38,14,14,0,0,1-1.31-.73Z" style="fill: rgb(55, 71, 79); transform-origin: 324.82px 411.155px;" id="ely45fs80ufr" class="animable"></path><path d="M342.94,417c-11.26-1-15.9,8-17,12a27.44,27.44,0,0,0,7.66,2.83c7.67,1.3,12.89-.76,14.86-3.19C350.72,425.85,350.37,421.12,342.94,417Z" style="fill: rgb(250, 250, 250); transform-origin: 337.812px 424.578px;" id="elcvjln4fa136" class="animable"></path><path d="M327.05,416.46a.62.62,0,0,1-.33-.17.52.52,0,0,1,0-.75c1.84-1.59,7.14-4.12,11.12-3.07a.53.53,0,0,1,.39.65.54.54,0,0,1-.67.38c-3.72-1-8.64,1.57-10.11,2.83A.57.57,0,0,1,327.05,416.46Z" style="fill: rgb(240, 240, 240); transform-origin: 332.404px 414.342px;" id="elj902luy8jic" class="animable"></path><path d="M322.73,412.84a.56.56,0,0,1-.33-.17.52.52,0,0,1,.05-.75c1.84-1.59,7.15-4.12,11.12-3.06a.52.52,0,0,1,.39.65.53.53,0,0,1-.67.37c-3.72-1-8.65,1.58-10.11,2.84A.53.53,0,0,1,322.73,412.84Z" style="fill: rgb(240, 240, 240); transform-origin: 328.122px 410.729px;" id="el6oscd2qsi8v" class="animable"></path><path d="M318.8,409.26a.56.56,0,0,1-.33-.17.52.52,0,0,1,0-.75c1.84-1.59,7.16-4.12,11.12-3.06a.52.52,0,0,1,.39.65.54.54,0,0,1-.67.37c-3.71-1-8.64,1.58-10.11,2.84A.53.53,0,0,1,318.8,409.26Z" style="fill: rgb(240, 240, 240); transform-origin: 324.155px 407.146px;" id="elnuusfafnjh" class="animable"></path><path d="M314.56,404.5a.63.63,0,0,1-.32-.17.53.53,0,0,1,0-.75c2.56-2.26,8.09-4,12.07-3a.53.53,0,0,1,.39.65.56.56,0,0,1-.68.37c-3.58-.94-8.76.73-11,2.74A.6.6,0,0,1,314.56,404.5Z" style="fill: rgb(240, 240, 240); transform-origin: 320.401px 402.397px;" id="el6lhwosjk4y3" class="animable"></path><path d="M362.53,279.68c0-9.78-1-43.47-2.44-55a214.38,214.38,0,0,0-3.93-24.79c-1.45-6.27-2.8-11.69-3.75-16.49-10.56,7-41.67,6.87-53.74-1-2,3.16-5.24,10.26-8.83,21.89-3.15,10.17-4.86,17.1-4.67,29.27.18,11.13,7.79,45,12.31,59,2.61,14.14.46,23.23-.16,31.32s.76,27.94,4.85,53.65c0,0,6.46,4.12,13.47,4.12s9.63-3.33,9.63-3.33L331.53,334s11.73-14.95,18-23S362.57,294.94,362.53,279.68Z" style="fill: rgb(55, 71, 79); transform-origin: 323.843px 282.025px;" id="els8dbx3nmi1h" class="animable"></path><path d="M331.53,334c2.73-18.1,2.73-37.15,2.73-49.38s-1.7-53.89-1.7-53.89,10.8-4.53,16.49-14.56C345.21,229.06,337,233.62,337,233.62s1,36.06.43,57.62S331.53,334,331.53,334Z" style="fill: rgb(38, 50, 56); transform-origin: 340.29px 275.085px;" id="el79upiw7z1yu" class="animable"></path></g><g id="freepik--Top--inject-2" class="animable" style="transform-origin: 316.75px 176.197px;"><g id="freepik--Hair--inject-2" class="animable" style="transform-origin: 295.135px 103.99px;"><path d="M275.57,99.54c-1.19-3.28-.73-7.43,2-9.54,2-1.53,5-1.85,6.37-4,1.2-1.82.75-4.28,1.57-6.29a7.1,7.1,0,0,1,5.73-3.93c5.27-.73,13.57,1.19,13.3,7.85-.06,1.36-.52,2.86.22,4a4.3,4.3,0,0,0,1.3,1.17c2.37,1.59,4.9,3,6.8,5.18s3.06,5.19,2.13,7.89c-.88,2.54-3.44,4.35-3.88,7s1.34,5.68,1.67,8.42,1.68,5.37,1.5,8.27-2.05,6-4.95,6.65c-3.28.73-6.45-1.74-9.81-1.8-1.81,0-3.56.71-5.37.65-1.26,0-2.05-.75-3.11-1.35-2.56-1.44-4.6-3.59-4.68-6.71a7.27,7.27,0,0,0-.27-2.8c-.52-1.13-1.78-1.67-2.82-2.35a8.81,8.81,0,0,1-3.85-8.1,6.27,6.27,0,0,0,1,7.43,5.64,5.64,0,0,1-3.95-7.76c.3-.68.73-1.3,1-2,.89-2.59-.94-5.22-1.91-7.79A.58.58,0,0,1,275.57,99.54Z" style="fill: rgb(38, 50, 56); transform-origin: 295.135px 103.99px;" id="el6lx04wx2zut" class="animable"></path><path d="M295.27,81.3C290.17,84.11,290.6,94,297,98.23S302.93,76.48,295.27,81.3Z" style="fill: #B465C3; transform-origin: 296.612px 89.6994px;" id="elawrjs1y2eo" class="animable"></path></g><g id="freepik--Head--inject-2" class="animable" style="transform-origin: 323.591px 104.704px;"><path d="M347.75,73.08c-1-6.61-8.48-6.85-10.46-6.6a9.4,9.4,0,0,1-7.69-3.18,9.51,9.51,0,0,0-9.19-2.67c-5.31,1.42-4.06,3.64-8.55,5.19-4,1.38-7,.08-10.62,3.58a10.41,10.41,0,0,0-2.66,8.73c-2.73,1.71-6.33,11.8-.64,22.83,2.92,5.66,6.41,8.29,10.77,13l4.19,0c1.34-3.56,4.91-2.91,8.17-3.75,2.07-1,3.25-3.29,5.32-4.24s4.59-.27,6.88-.69c1.77-.32,3.55-1.39,5.4-.93,4.22,1.68,10.52-2,10-6.87-.16-1.47-1-2.89-.71-4.34.36-1.91,2.38-3,3.45-4.58a5.07,5.07,0,0,0-.34-6.08C348,79.2,348.31,76.84,347.75,73.08Z" style="fill: rgb(38, 50, 56); transform-origin: 323.591px 87.1536px;" id="el6bh5yz0npo2" class="animable"></path><path d="M333.22,126.15,331,125.9c-1.87-.22-1.73-2.34-1.91-4.17l-.19-2.84a12.67,12.67,0,0,0,9.28-3c3.83-3.4,5.84-10.09,5.41-17.27-.29-4.77-1.54-7-1.48-8.07.35-6.4-.15-7.53-1.67-10.82-2.72-5.25-9.48-7.11-12.34-1.43-8.39-6.43-17.54,2.19-17.1,12,1.19,8.13-1.31,8.55-2.89,8.62-2.39-5.06-7.65-4.94-9.83-1.64-2,3-1.89,7.56,2,11.69s8,1.38,8,.56c0,0,.71,11,.81,13.15s-.12,3.48-2.83,4.4h0l-3.9,1.32s.22.28.65.74c1,1.14,3.17,3.65,6.84,7.92,9.29,3.39,20.39,8.14,27,12a120.93,120.93,0,0,0,4.09-14.35A52,52,0,0,0,333.22,126.15Z" style="fill: rgb(177, 102, 104); transform-origin: 320.323px 111.943px;" id="elp382ght8wp" class="animable"></path><path d="M328.94,118.89c-7.76,0-12.57-2.56-16.16-7.77,0,0,.6,4.12,3.6,6.18a22.26,22.26,0,0,0,12.72,4Z" style="fill: rgb(154, 74, 77); transform-origin: 320.94px 116.21px;" id="el6tc9symnx0b" class="animable"></path><path d="M331.09,106.89l-7.51-2.29a3.74,3.74,0,0,0,2.45,4.86A4.14,4.14,0,0,0,331.09,106.89Z" style="fill: rgb(154, 74, 77); transform-origin: 327.223px 107.114px;" id="elk14d3cm02t" class="animable"></path><path d="M327.72,109.59a4.06,4.06,0,0,1-1.69-.13,3.71,3.71,0,0,1-2.61-3A4.52,4.52,0,0,1,327.72,109.59Z" style="fill: rgb(242, 143, 143); transform-origin: 325.57px 108.043px;" id="el0ktks41y0o6" class="animable"></path><polygon points="328.56 90 330.14 102.12 336.19 100.37 328.56 90" style="fill: rgb(154, 74, 77); transform-origin: 332.375px 96.06px;" id="elwfxdvlg5z8" class="animable"></polygon><path d="M340.67,87.67l-4.78-1a2.35,2.35,0,0,1,2.82-1.91A2.58,2.58,0,0,1,340.67,87.67Z" style="fill: rgb(38, 50, 56); transform-origin: 338.295px 86.1879px;" id="elcbb7xxypdfq" class="animable"></path><path d="M335.38,91.44a2,2,0,0,1,1.34-.86,2.79,2.79,0,0,1,2.54,1c.24.3.53.78.95.79-.18.32-.79.41-1.12.42s-.62,0-.93,0a5.79,5.79,0,0,0-2.17.43.91.91,0,0,1-.72,0,.7.7,0,0,1-.25-.64A2.13,2.13,0,0,1,335.38,91.44Z" style="fill: rgb(154, 74, 77); transform-origin: 337.612px 91.9242px;" id="el5lu5ckylly3" class="animable"></path><path d="M335.31,93.61a2.17,2.17,0,0,0,2.64.88,1.62,1.62,0,0,0,1.18-2.17,2.17,2.17,0,0,0-2.64-.87A1.62,1.62,0,0,0,335.31,93.61Z" style="fill: rgb(38, 50, 56); transform-origin: 337.222px 92.969px;" id="elbbvjtvydhdc" class="animable"></path><path d="M337.22,91.32c1.28-.07,2.17,1.59,3.34.81a1.84,1.84,0,0,1-2.4,1.21C337.56,93.09,337.22,91.32,337.22,91.32Z" style="fill: rgb(38, 50, 56); transform-origin: 338.89px 92.3853px;" id="elqa65elh19t" class="animable"></path><path d="M322.29,87.06l-4.84,2a2.51,2.51,0,0,1,1.33-3.39A2.76,2.76,0,0,1,322.29,87.06Z" style="fill: rgb(38, 50, 56); transform-origin: 319.752px 87.2686px;" id="el0qt2z0ml5tu" class="animable"></path><path d="M323.5,90a.91.91,0,0,0-.21-.15,1.48,1.48,0,0,0-.62-.14,3.52,3.52,0,0,0-2.59.76,3.8,3.8,0,0,0-.84,1.08c-.1.21-.21.42-.29.64s-.11.46,0,.4a.09.09,0,0,0,.06-.06,5.24,5.24,0,0,1,.74-1,3.89,3.89,0,0,1,1-.74,4.1,4.1,0,0,1,2.44-.37c.13,0,.35.09.42-.08A.37.37,0,0,0,323.5,90Z" style="fill: rgb(154, 74, 77); transform-origin: 321.248px 91.1444px;" id="elxo1bj4ur5mh" class="animable"></path><path d="M335.48,88.92a1,1,0,0,1,.19-.17,1.61,1.61,0,0,1,.61-.19,3.58,3.58,0,0,1,2.65.55,3.82,3.82,0,0,1,.91,1,4.09,4.09,0,0,1,.34.61c.09.18.16.45,0,.4s-.05,0-.06,0a4.72,4.72,0,0,0-.83-1,4,4,0,0,0-1-.66,4.12,4.12,0,0,0-2.46-.17c-.13,0-.35.12-.43,0A.36.36,0,0,1,335.48,88.92Z" style="fill: rgb(154, 74, 77); transform-origin: 337.827px 89.8132px;" id="el4u7w7u8g1j4" class="animable"></path><path d="M323.83,91.91a2,2,0,0,0-1.49-.58,2.78,2.78,0,0,0-2.29,1.48c-.18.33-.36.87-.78,1,.24.28.86.24,1.19.18s.6-.16.9-.23a6.08,6.08,0,0,1,2.21,0,.83.83,0,0,0,.71-.09.69.69,0,0,0,.13-.67A2.15,2.15,0,0,0,323.83,91.91Z" style="fill: rgb(154, 74, 77); transform-origin: 321.858px 92.6808px;" id="el3ju3mlac2st" class="animable"></path><path d="M324.32,94a2.17,2.17,0,0,1-2.41,1.39,1.62,1.62,0,0,1-1.58-1.89,2.17,2.17,0,0,1,2.41-1.39A1.62,1.62,0,0,1,324.32,94Z" style="fill: rgb(38, 50, 56); transform-origin: 322.325px 93.75px;" id="el6ogxbgdmbcr" class="animable"></path><path d="M322,92.15c-1.26.19-1.81,2-3.12,1.46a1.85,1.85,0,0,0,2.6.71C322,94,322,92.15,322,92.15Z" style="fill: rgb(38, 50, 56); transform-origin: 320.44px 93.3711px;" id="elwpyu1j31dy8" class="animable"></path></g><g id="freepik--Chest--inject-2" class="animable" style="transform-origin: 324.823px 167.539px;"><path d="M296.06,176.57A84.37,84.37,0,0,1,292.11,198c3.92,6.16,20.33,11.51,36,11.14,12.17-.29,20.69-3.08,29-8.88l-1.79-10.21a48.8,48.8,0,0,1-.72-7.82c-.05-3.39-.5-8.21,0-12.52A18.65,18.65,0,0,0,358.15,159c.28-7.24-1.68-12.87-9.78-21.71-7.25-7.91-11.48-11.12-11.48-11.12l-5.77-.25s3.51,7.33,1.11,11.75c-11.84-1.34-21.83-6.85-25.88-10.56l-10,1.57s-6.51,12.43-4.49,23C293,157.39,296.29,168.65,296.06,176.57Z" style="fill: rgb(245, 245, 245); transform-origin: 324.823px 167.539px;" id="el67oly4ybzty" class="animable"></path></g><path d="M291.25,200l2.15-6.32s2.6,3.8,6.61,2.24,4.4-14.27,4.18-28,.57-23.11-5.62-39.56a29,29,0,0,1,6.65-1.06c4.22,7.76,7,18.27,7,18.27,22.51,0,34.15-2,34.15-2C344.13,135.37,334,125.9,334,125.9l6.31.61s15.9,14.43,17.86,22.51c4.2,17.33-4.55,20.13,1.27,53.55,5.27,30.24,6.43,82.9,6.43,82.9s-9.59,4.71-32.37,6.27a154.24,154.24,0,0,1-42.06-3.12l5.11-83.51Z" style="fill: rgb(69, 90, 100); transform-origin: 328.56px 208.974px;" id="elxmvrtczaka" class="animable"></path><path d="M302.67,239.93s35.33,1.28,55.76-1.8l2.19,36.43s-22.54,6.94-59.69,3.85Z" style="fill: rgb(55, 71, 79); transform-origin: 330.775px 258.666px;" id="elx7mtbtx6g0o" class="animable"></path><rect x="317.36" y="240.19" width="1" height="39" style="fill: rgb(38, 50, 56); transform-origin: 317.86px 259.69px;" id="elmikxz79mba" class="animable"></rect><path d="M294.59,285a154.38,154.38,0,0,0,26.05,2c19.94,0,38.41-3,43.95-5.33l-.48-1.12c-7.63,3.21-42.63,7.88-69.31,3.22ZM312,158.72l16-1-.53-6.1-15.92.89Z" style="fill: rgb(55, 71, 79); transform-origin: 329.59px 219.313px;" id="el7rc8td02yyh" class="animable"></path><path d="M268.64,225.2c.07,5.58-1,10.4-.79,13.18a59.61,59.61,0,0,0,.58,6.52,15.79,15.79,0,0,0,2,4.74,32.24,32.24,0,0,0,2,5.56,28.16,28.16,0,0,0,4,5c.9,2.7.86,3,1.25,4.13a2.14,2.14,0,0,0,.57,1.07,1,1,0,0,0,1-.05,2.46,2.46,0,0,0,1-1.64c.45-1.68-.1-3.35-.42-5.06a41.76,41.76,0,0,1-1-6.94,4.62,4.62,0,0,0,.43,1.23c.24.62.33,1.28.55,1.91l3.15,9.1a1.58,1.58,0,0,0,.44.75,1,1,0,0,0,1,0,1.81,1.81,0,0,0,.7-.75,6.19,6.19,0,0,0,.33-3.86,45.79,45.79,0,0,0-1-5,38.26,38.26,0,0,1-1-5.41,29.26,29.26,0,0,1-.21-5.37c.06-.75,0-4,1.59-2.64a2.76,2.76,0,0,1,.68,1.23,11.59,11.59,0,0,0,2,3.67,5,5,0,0,0,3.62,1.83,1.34,1.34,0,0,0,.63-.12,1.12,1.12,0,0,0,.47-1.18,4.14,4.14,0,0,0-.54-1.24l-.15-.3c-1.91-3.91-2-8.07-3.67-11.57-.53-1.1-1.48-3.39-2.08-5-.52-1.42-1.59-2.95-1.72-5.95s3.27-34.61,3.27-34.61l9.17-23.31c7.35-17.6,3.14-30.63-.06-35.93-7.43.63-12.3,3.63-14.77,9.49-1.6,3.81-3,7.69-6.53,19.44-3.3,11.06-4.45,14.06-6.42,23.14-1.06,4.89-1.28,7.22-.92,18.65C268,209.81,268.57,219.62,268.64,225.2Z" style="fill: rgb(177, 102, 104); transform-origin: 284.098px 197.35px;" id="elxkm0cu2t6ia" class="animable"></path><path d="M276.41,260.17a43.26,43.26,0,0,1-2.62-8.3,28.76,28.76,0,0,1-.39-6.42c.21,2.14.43,4.25.81,6.35S275.8,258.12,276.41,260.17Z" style="fill: rgb(154, 74, 77); transform-origin: 274.886px 252.81px;" id="elx5urbvwoytg" class="animable"></path><path d="M270.42,249.64a11.18,11.18,0,0,1-.83-3.11,14.34,14.34,0,0,1-.07-3.21c.23,1.06.34,2.11.5,3.16Z" style="fill: rgb(154, 74, 77); transform-origin: 269.941px 246.48px;" id="el0q47kqn62y8k" class="animable"></path><path d="M278.83,251.68a29.26,29.26,0,0,1-1.22-5.42,11.7,11.7,0,0,0,1.32,7.27Z" style="fill: rgb(154, 74, 77); transform-origin: 278.211px 249.895px;" id="els4qyslottje" class="animable"></path><path d="M296.39,128.66c-9.1,1.46-13,2.73-16.83,13.93s-8.09,25.52-8.09,25.52a21.53,21.53,0,0,0,9,7.43,21.93,21.93,0,0,0,11.78,1.7s5.77-15,7.39-19.64S302.37,134.59,296.39,128.66Z" style="fill: #B465C3; transform-origin: 286.197px 153.045px;" id="el6z6ay3m8kq3" class="animable"></path></g></g></g><g id="freepik--character-1--inject-2" class="animable" style="transform-origin: 142.789px 247.838px;"><g id="freepik--character--inject-2" class="animable" style="transform-origin: 142.789px 247.838px;"><g id="freepik--arm--inject-2" class="animable" style="transform-origin: 117.378px 159.818px;"><path d="M77,156.88c.7-.06,1.25.3,2.65.66a13.44,13.44,0,0,1-4.85-3.86,2.14,2.14,0,0,1-.37-1c0-.3.14-1.16.61-1.36,0,0-.78-.79-1.47-1.46s-1.74-1.9-.69-2.49c.82-.47,2-.11,3.37.57a3.28,3.28,0,0,1-1.16-1.66c0-1.24.73-1.91,3.17-.8s8.53,4.16,13.38,4.14c.87,0,2.61.22,3.33-.37h0c1-.81-.47-2.13-1.08-2.7a16.71,16.71,0,0,1-1.64-1.73,6.72,6.72,0,0,1-1.36-2.28,3,3,0,0,1,.27-2.56c.27-.4.71-.71,1.14-.39,1.7,1.27,3.45,2.48,5.16,3.74a34.32,34.32,0,0,1,4.75,3.83c1.6,1.69,2.9,4,5.21,6.37s4.8,4.43,10.56,8.25c3.18,2.1,11.62,7.77,11.62,7.77s10.5-20.31,14.3-27.85c5.76-11.43,11.1-15.1,18.42-15.72l-3,34.93s-9.41,15.2-13.68,22.46c-5.87,10-10,11-12.81,10.91h0c-8.9-.29-16.43-11-30.28-26.4a10.77,10.77,0,0,0-8-3.65c-1.65,0-3.5-.12-4.59-.17a29.91,29.91,0,0,1-5-.88c-2.69-.73-2.71-.53-6.61-3.15-.48-.32-2.43-1.79-2.32-2.36A1,1,0,0,1,77,156.88Z" style="fill: rgb(255, 189, 167); transform-origin: 117.378px 160.133px;" id="el84ilj30gy0s" class="animable"></path><path d="M162.19,125.35c-5.16.42-9.51,2.08-13.95,8.28s-13.42,24.93-13.42,24.93a22.29,22.29,0,0,0,7.13,8.28,37.73,37.73,0,0,0,10.82,5.46l7.87-12.72Z" style="fill: #B465C3; transform-origin: 148.505px 148.825px;" id="elp9yd1wvmqy" class="animable"></path><path d="M79.67,157.54a23.91,23.91,0,0,0,3.72,1.17c1.26.34,2.55.52,3.83.85a15,15,0,0,1-3.94-.37A9.66,9.66,0,0,1,79.67,157.54Z" style="fill: rgb(240, 153, 122); transform-origin: 83.445px 158.556px;" id="eloegdoz9aiug" class="animable"></path><path d="M103,158.37a3,3,0,0,0-.2-.73,4.87,4.87,0,0,0-.81-1.25,6.31,6.31,0,0,0-8.5-1s-.08.24,0,.21c1.94-.55,3.9-1,5.85-.18a6.61,6.61,0,0,1,3.35,3.78c.06.14.22.08.23-.06A2.59,2.59,0,0,0,103,158.37Z" style="fill: rgb(240, 153, 122); transform-origin: 98.2286px 156.733px;" id="elj6k4q6rf63j" class="animable"></path><path d="M88.48,152.61a46,46,0,0,1-6.14-2c-1.91-.73-3.78-1.61-5.64-2.45,0,0,0,0,0,.06a25.86,25.86,0,0,0,5.9,3,37.27,37.27,0,0,0,5.89,1.46S88.5,152.61,88.48,152.61Z" style="fill: rgb(240, 153, 122); transform-origin: 82.5963px 150.42px;" id="elcemur992tjr" class="animable"></path><path d="M88.68,156.23a46,46,0,0,1-6.14-2c-.77-.29-1.52-.61-2.28-.94s-1.49-.62-2.19-1l-.65-.37a4.73,4.73,0,0,0-.83-.44,2.66,2.66,0,0,0-1-.15s-.08,0-.06,0a3.55,3.55,0,0,1,1.17.41c.24.14.47.29.7.45s.41.26.62.39a22.23,22.23,0,0,0,2,1.1,28.73,28.73,0,0,0,2.68,1.14,37.27,37.27,0,0,0,5.89,1.46S88.7,156.23,88.68,156.23Z" style="fill: rgb(240, 153, 122); transform-origin: 82.1046px 153.804px;" id="el21lkct93yqp" class="animable"></path><path d="M129.62,169.52c4.68,2.36,7.26,6.88,8,12.25.68-5.2.33-10.42-6.93-14.33Z" style="fill: rgb(240, 153, 122); transform-origin: 133.739px 174.605px;" id="ellc7gv0gz94" class="animable"></path></g><g id="freepik--Scissors--inject-2" class="animable" style="transform-origin: 112.494px 244.563px;"><path d="M104.52,296.2l-6.2,5.18.77,9.15c.32,3.21-1,6.73-3,8a7.68,7.68,0,0,0-.77.53c-9.31,7.43-15.62,27.37-14.51,47.43,1,18.1,7.75,30.73,16.15,32.14,1.43.25,7.14,1.19,8.59,1.44a10.24,10.24,0,0,0,6-.87c11-5,18.94-27.14,17.7-49.42-.81-14.52-5.3-25.52-11.38-30a8.76,8.76,0,0,1-3-5.52,121.2,121.2,0,0,1-1.78-16.56Zm-6,83.21A50,50,0,0,1,95.79,365c-.88-15.72,4.17-31.72,11.14-35.79a20.73,20.73,0,0,1,4.57,7.62,49.57,49.57,0,0,1,2.78,14.41C115.15,367,110.1,383,103.13,387A21,21,0,0,1,98.56,379.41Z" style="fill: #B465C3; transform-origin: 105.031px 348.198px;" id="el826qasksuuf" class="animable"></path><g id="elc1nn31o1u0u"><path d="M104.52,296.2l-6.2,5.18.77,9.15c.32,3.21-1,6.73-3,8a7.68,7.68,0,0,0-.77.53c-9.31,7.43-15.62,27.37-14.51,47.43,1,18.1,7.75,30.73,16.15,32.14,1.43.25,7.14,1.19,8.59,1.44a10.24,10.24,0,0,0,6-.87c11-5,18.94-27.14,17.7-49.42-.81-14.52-5.3-25.52-11.38-30a8.76,8.76,0,0,1-3-5.52,121.2,121.2,0,0,1-1.78-16.56Zm-6,83.21A50,50,0,0,1,95.79,365c-.88-15.72,4.17-31.72,11.14-35.79a20.73,20.73,0,0,1,4.57,7.62,49.57,49.57,0,0,1,2.78,14.41C115.15,367,110.1,383,103.13,387A21,21,0,0,1,98.56,379.41Z" style="opacity: 0.4; transform-origin: 105.031px 348.198px;" class="animable" id="elw7mmetw7ave"></path></g><path d="M113.12,297.64l-6.2,5.18.77,9.15c.32,3.21-1,6.72-3,8-.3.19-.56.37-.76.52-9.31,7.43-15.62,27.37-14.51,47.43,1.24,22.29,11.17,36.29,22.18,31.28s18.94-27.14,17.7-49.42c-.81-14.52-5.3-25.52-11.38-30a8.76,8.76,0,0,1-3-5.52A121.2,121.2,0,0,1,113.12,297.64Zm7,40.61a50,50,0,0,1,2.77,14.42c.91,16.26-4.53,32.83-11.87,36.17-4.69,2.14-9.46-1.48-12.44-9.43A50,50,0,0,1,95.79,365c-.91-16.26,4.53-32.83,11.87-36.17C112.35,326.68,117.12,330.3,120.1,338.25Z" style="fill: #B465C3; transform-origin: 109.361px 348.928px;" id="eloor49o53cr" class="animable"></path><path d="M106.91,302.82l.78,9.15c.31,3.21-1,6.72-3,8-.3.19-.57.37-.77.52-9.3,7.43-15.61,27.37-14.49,47.43,1,17.94,7.61,30.5,15.91,32.11l-8.37-1.39c-8.39-1.42-15.14-14-16.15-32.15C79.68,346.41,86,326.47,95.3,319c.2-.15.47-.33.76-.52,2-1.27,3.35-4.77,3-8l-.77-9.14,6.21-5.18,8.59,1.43Z" style="fill: #B465C3; transform-origin: 96.8886px 348.095px;" id="elx8f52526no" class="animable"></path><g id="el99mc2b6q449"><path d="M106.91,302.82l.78,9.15c.31,3.21-1,6.72-3,8-.3.19-.57.37-.77.52-9.3,7.43-15.61,27.37-14.49,47.43,1,17.94,7.61,30.5,15.91,32.11l-8.37-1.39c-8.39-1.42-15.14-14-16.15-32.15C79.68,346.41,86,326.47,95.3,319c.2-.15.47-.33.76-.52,2-1.27,3.35-4.77,3-8l-.77-9.14,6.21-5.18,8.59,1.43Z" style="opacity: 0.2; transform-origin: 96.8886px 348.095px;" class="animable" id="ell85jexvnhkq"></path></g><g id="elo01dsme9fod"><polygon points="106.92 302.82 98.32 301.39 104.53 296.21 113.12 297.64 106.92 302.82" style="opacity: 0.2; transform-origin: 105.72px 299.515px;" class="animable" id="el1wmilzb83z9"></polygon></g><path d="M77.93,88.91c2.21.41,6,1,6,1,6.7,1.24,11.87,10.92,17.31,37.19S115.12,217.81,118,264c-4.93,7.41-6.91,19.67-6.21,33.38l-6.2,5.18-6-1S79.83,133.57,77.93,88.91Z" style="fill: rgb(38, 50, 56); transform-origin: 97.965px 195.735px;" id="el3420ld383gw" class="animable"></path><path d="M111.83,297.42c-.7-13.71,1.28-26,6.21-33.38-2.92-46.23-11.34-110.66-16.77-136.93S90.66,91.16,84,89.92c1.89,44.66,21.67,212.68,21.67,212.68Z" style="fill: rgb(69, 90, 100); transform-origin: 101.02px 196.26px;" id="el34kqhllczl2" class="animable"></path><g id="el0jqbuf4eprg"><path d="M118,263.54c-.34-5.38-.76-11-1.24-16.76l-17.2,3c1.1,9.8,2.12,18.75,3,26.39l7.16,1.83a5.73,5.73,0,0,1,3.86-3.17A34.66,34.66,0,0,1,118,264.18Z" style="opacity: 0.1; transform-origin: 108.78px 262.39px;" class="animable" id="elgxmzawt4e2t"></path></g><path d="M153.79,255.88c-7.25-1.22-13.89,3.65-18.6,13l0,.07c-.1.21-.21.4-.32.59l-.37-.52-8.6-1.44-5,8.43,8.23,13.21a25,25,0,0,1,3.13,9.06,85.38,85.38,0,0,0,10.42,28.45c6.09,10.43,13.35,17.3,20,18.39l8.63,1.44c7,1.13,13.34-4.14,17-18.42,4.57-17.95.81-44.54-11.46-60.5-4.79-6.24-9.69-9.53-14.34-10.32Zm2.63,12.38a27.24,27.24,0,0,1,7.24,6.86,50.22,50.22,0,0,1,7,13c4.36,11.63,5.59,26.09,3.07,36-1.83,7.17-4,9-5.41,9.76h0c-4-2.56-8.32-7.41-12.15-13.95a78.86,78.86,0,0,1-5.66-11.92c-4.77-12.74-5.6-24.92-2.15-31.77C150.55,272,153.31,269.22,156.42,268.26Z" style="fill: #B465C3; transform-origin: 155.543px 301.201px;" id="elb9ou9h86wem" class="animable"></path><g id="el42ruls5dgkn"><path d="M153.79,255.88c-7.25-1.22-13.89,3.65-18.6,13l0,.07c-.1.21-.21.4-.32.59l-.37-.52-8.6-1.44-5,8.43,8.23,13.21a25,25,0,0,1,3.13,9.06,85.38,85.38,0,0,0,10.42,28.45c6.09,10.43,13.35,17.3,20,18.39l8.63,1.44c7,1.13,13.34-4.14,17-18.42,4.57-17.95.81-44.54-11.46-60.5-4.79-6.24-9.69-9.53-14.34-10.32Zm2.63,12.38a27.24,27.24,0,0,1,7.24,6.86,50.22,50.22,0,0,1,7,13c4.36,11.63,5.59,26.09,3.07,36-1.83,7.17-4,9-5.41,9.76h0c-4-2.56-8.32-7.41-12.15-13.95a78.86,78.86,0,0,1-5.66-11.92c-4.77-12.74-5.6-24.92-2.15-31.77C150.55,272,153.31,269.22,156.42,268.26Z" style="opacity: 0.2; transform-origin: 155.543px 301.201px;" class="animable" id="el5zrhv1zny3p"></path></g><g id="el18ipj1gjidp"><polygon points="129.42 277.44 120.83 276.01 125.86 267.58 134.46 269.02 129.42 277.44" style="opacity: 0.2; transform-origin: 127.645px 272.51px;" class="animable" id="elf6in3sba9gp"></polygon></g><path d="M162.36,257.31l-8.57-1.43c-7.25-1.22-13.89,3.65-18.6,13l0,.08c-.1.2-.21.4-.32.59l2.18,3c1.86,2.59,4.89,1.53,6.74-2.18l0-.07C148.49,261,155.12,256.1,162.36,257.31Zm16.94,32.27a50.07,50.07,0,0,0-7.05-13c-4.79-6.25-9.76-9.23-14.37-8.63a8.32,8.32,0,0,0-1.46.33,27.1,27.1,0,0,1,7.24,6.86,50.23,50.23,0,0,1,7.05,13c4.34,11.62,5.58,26.09,3.06,36-1.82,7.18-4,9-5.41,9.77h0c3.22,2.08,6.25,2.67,8.63,1.43,1.44-.75,3.57-2.59,5.39-9.76C184.88,315.67,183.66,301.21,179.3,289.58Z" style="fill: #B465C3; transform-origin: 159.267px 295.84px;" id="el1ipyet7yikf" class="animable"></path><g id="el2s6quzf9moi"><path d="M162.36,257.31l-8.57-1.43c-7.25-1.22-13.89,3.65-18.6,13l0,.08c-.1.2-.21.4-.32.59l2.18,3c1.86,2.59,4.89,1.53,6.74-2.18l0-.07C148.49,261,155.12,256.1,162.36,257.31Zm16.94,32.27a50.07,50.07,0,0,0-7.05-13c-4.79-6.25-9.76-9.23-14.37-8.63a8.32,8.32,0,0,0-1.46.33,27.1,27.1,0,0,1,7.24,6.86,50.23,50.23,0,0,1,7.05,13c4.34,11.62,5.58,26.09,3.06,36-1.82,7.18-4,9-5.41,9.77h0c3.22,2.08,6.25,2.67,8.63,1.43,1.44-.75,3.57-2.59,5.39-9.76C184.88,315.67,183.66,301.21,179.3,289.58Z" style="opacity: 0.4; transform-origin: 159.267px 295.84px;" class="animable" id="elq4gwgju42y9"></path></g><path d="M188.21,328.14c4.57-17.95.81-44.54-11.46-60.5s-25.23-12.69-33,2.67l0,.08c-1.86,3.7-4.89,4.77-6.74,2.19L134.46,269l-5,8.42,8.24,13.21a25.26,25.26,0,0,1,3.13,9.07,85.58,85.58,0,0,0,10.41,28.45C163.72,349.59,181.13,356,188.21,328.14ZM177,335.34c-5.33,2.77-13.87-3.55-20.78-15.37a78.86,78.86,0,0,1-5.66-11.92c-4.77-12.74-5.6-24.92-2.15-31.77,2.51-5,5.8-7.87,9.51-8.35,4.61-.6,9.58,2.38,14.38,8.63a50.05,50.05,0,0,1,7,13c4.35,11.62,5.59,26.09,3.07,36C180.54,332.76,178.41,334.59,177,335.34Z" style="fill: #B465C3; transform-origin: 159.773px 301.917px;" id="elr0lpunh6ncl" class="animable"></path><path d="M41.81,135c19.67,22.84,85.88,124.85,91.68,133.8l-5,8.31-6-1a24,24,0,0,0-8-6.61,10.48,10.48,0,0,0-4.93,2.19l-6-1c-20.85-26.3-47.88-70.05-58-91.14s-12.33-34-9.8-45.55Z" style="fill: rgb(55, 71, 79); transform-origin: 84.1453px 205.555px;" id="elspjekthbzs" class="animable"></path><path d="M133.49,268.84c-5.8-8.95-72-111-91.68-133.8-.15.68-.28,1.37-.4,2.07-1.83,11,.71,23.63,10.2,43.47,10.09,21.1,37.12,64.85,58,91.14,5.86-4.59,12.67-2.09,18.94,5.43l5-8.31Z" style="fill: rgb(69, 90, 100); transform-origin: 87.2035px 206.095px;" id="eld2qn5nt2e3" class="animable"></path><g id="elnfe1g6klfyj"><path d="M41.81,135c-.15.68-.28,1.37-.4,2.07a47.71,47.71,0,0,0,1.12,19.49c-1.31-13.94,1.79-14.28,12.42,1,11.26,16.22,72.34,101.68,72.37,101.72C109.17,231.53,58.58,154.51,41.81,135Z" style="fill: rgb(255, 255, 255); opacity: 0.2; transform-origin: 84.1019px 197.14px;" class="animable" id="eld9ihkd9cr85"></path></g><path d="M110.78,246.78a2.69,2.69,0,0,1,1.89,1.92,8.49,8.49,0,0,1-1.26,7.57,2.71,2.71,0,0,1-2.45,1.2l-2.12-.35a2.7,2.7,0,0,1-1.92-1.93,8.49,8.49,0,0,1,1.26-7.57,2.69,2.69,0,0,1,2.46-1.2C109.43,246.56,110,246.63,110.78,246.78Z" style="fill: rgb(38, 50, 56); transform-origin: 108.795px 251.944px;" id="eldvtpq819wtg" class="animable"></path><path d="M107,255.54A8.49,8.49,0,0,1,108.3,248c1.56-1.88,3.51-1.56,4.37.73a8.49,8.49,0,0,1-1.26,7.57C109.86,258.16,107.9,257.83,107,255.54Z" style="fill: rgb(55, 71, 79); transform-origin: 109.844px 252.14px;" id="el5r2euzhzr3t" class="animable"></path></g><g id="freepik--bottom--inject-2" class="animable" style="transform-origin: 172.773px 309.943px;"><path d="M221.24,332.58l-27.44-1.86c.44,2.7.86,5.33,1.25,7.81,2.36,19.72,6.1,33.36,6.38,43.17.12,2.35,2.1,26,2.9,31.29s12.82,6.27,14.2-2.68c.92-6,.91-26.58.89-29.46C219.28,365.83,220.92,355.5,221.24,332.58Z" style="fill: rgb(255, 189, 167); transform-origin: 207.52px 373.865px;" id="el3mgxrzywemo" class="animable"></path><path d="M169.83,371.22c.07-2.1,2.31-22.26,5.79-39.23H148.25c1,18.56,1.83,35.53,1.85,37.73.12,9.9-3.44,13.11-5.73,15.44-4.79,4.87-10.56,7.88-17.94,11.75.87,2.17,12.27,3.28,15.85,1.62,5.72-2.65,14.88-9.4,16.9-10.67,9.76-6.16,10.83-14,10.83-14Z" style="fill: rgb(255, 189, 167); transform-origin: 151.025px 365.66px;" id="ely5waq89fmys" class="animable"></path><path d="M182,252.75l-4.51-27.67s-17.43-2-23.77-7.73c0,0,8,10.69,19.82,12.43l5,22.94-2.63,38.06Z" style="fill: rgb(255, 189, 167); transform-origin: 167.86px 254.065px;" id="elzh940k18ocd" class="animable"></path><path d="M122.22,404.3c.07.86-.72,3.62,1.5,5.58,2,1.74,8.28,4.19,16,2.43S151,407.8,153.83,405s4.85-7.11,10.06-9.27c3.1-1.28,6.59-2.82,7.53-3.9s-.06-6.22-.06-6.22Z" style="fill: rgb(38, 50, 56); transform-origin: 146.981px 399.264px;" id="el7o2arvix8h8" class="animable"></path><path d="M169.83,371.22a1.25,1.25,0,0,1,1.28.9c.37,1.17-.31,1.69.14,5.63a50.6,50.6,0,0,1,.52,10.15c-.07,2.27-4.1,4.18-8.63,6-3.47,1.35-7.2,5.3-10.61,9-5.86,6.4-14.51,8.12-22.93,6.65-2.46-.43-5.34-1.27-6.61-3.57a4.25,4.25,0,0,1-.27-3.58c.48-1.47.72-2.8,1.83-4a17.67,17.67,0,0,1,4.15-3c1.71-1,3.39-2.07,5.05-3.15,4.78-3.09,9.74-6.38,12.44-11.31a17.47,17.47,0,0,0,1.35-2.43,11,11,0,0,0,.64-3.15,12.22,12.22,0,0,1,.14-1.72,2.34,2.34,0,0,1,.86-1.47,3,3,0,0,1,1.58-.43,15.33,15.33,0,0,1,3,.18,36.16,36.16,0,0,1,4.63.94,9.17,9.17,0,0,1,2.91,1.24,4.89,4.89,0,0,1,2,3.52,10.7,10.7,0,0,0,.22,2.78c.49-.86.95-1.74,1.36-2.64a16,16,0,0,1,1.08-2.39,6.51,6.51,0,0,1,2.38-2.25,14.11,14.11,0,0,0,1.35-.67Z" style="fill: rgb(55, 71, 79); transform-origin: 147.139px 390.629px;" id="el0k83bj5jhcqp" class="animable"></path><path d="M129,395.26c11.29-.4,15.45,8.84,16.38,12.92a27.5,27.5,0,0,1-7.8,2.42c-7.73.9-12.84-1.43-14.67-4C120.76,403.69,121.36,399,129,395.26Z" style="fill: rgb(250, 250, 250); transform-origin: 133.605px 403.022px;" id="elroiaev4dpbc" class="animable"></path><path d="M144.89,395.55a.53.53,0,0,0,.33-.15.51.51,0,0,0,0-.75c-1.76-1.68-6.92-4.49-10.95-3.65a.53.53,0,0,0-.42.64.54.54,0,0,0,.65.4c3.76-.77,8.55,2,9.95,3.36A.52.52,0,0,0,144.89,395.55Z" style="fill: rgb(240, 240, 240); transform-origin: 139.61px 393.201px;" id="elnjvh1c4b1c" class="animable"></path><path d="M149.39,392.17a.56.56,0,0,0,.34-.15.54.54,0,0,0,0-.76c-1.77-1.68-6.93-4.49-11-3.64a.53.53,0,0,0-.42.63.54.54,0,0,0,.65.41c3.77-.78,8.55,2,9.95,3.36A.53.53,0,0,0,149.39,392.17Z" style="fill: rgb(240, 240, 240); transform-origin: 144.092px 389.822px;" id="eltv5u4znvyhd" class="animable"></path><path d="M153.51,388.8a.53.53,0,0,0,.33-.15.52.52,0,0,0,0-.75c-1.76-1.69-6.94-4.49-11-3.65a.54.54,0,0,0-.42.63.55.55,0,0,0,.66.41c3.75-.78,8.55,2,9.94,3.36A.54.54,0,0,0,153.51,388.8Z" style="fill: rgb(240, 240, 240); transform-origin: 148.205px 386.453px;" id="elrch0rqjpwkq" class="animable"></path><path d="M158,384.26a.58.58,0,0,0,.32-.14.53.53,0,0,0,0-.76c-2.43-2.39-7.86-4.44-11.89-3.6a.52.52,0,0,0-.42.63.55.55,0,0,0,.65.41c3.63-.76,8.72,1.18,10.88,3.31A.53.53,0,0,0,158,384.26Z" style="fill: rgb(240, 240, 240); transform-origin: 152.239px 381.917px;" id="eln1y4i0pj3ic" class="animable"></path><path d="M200.27,416.81c0,5.24.58,8.75,2.33,11.95s5.37,4.4,9.16,3.76,8.74-2.72,10.11-7.14,2.21-7.47,1.69-12.37Z" style="fill: rgb(38, 50, 56); transform-origin: 211.993px 422.848px;" id="elapzfu8tn5x" class="animable"></path><path d="M219.41,379c1.53.22.62,8.39,1,15.46.44,7.58,2.6,10.85,3,17.07.49,7.11-.95,10.17-3.84,14.25s-12.4,7.63-16.53,1.23c-3.36-5.23-3.14-10.75-2.33-17.75a148.94,148.94,0,0,0,.71-17.85c.06-5.3-1.56-11.29-.18-11.79,0,.78.08,1.77.14,2.54a11.86,11.86,0,0,0,.31,2.85c.13.4.44.83.62.2a3.83,3.83,0,0,0,.09-1.31c-.09-1.95.95-2,1.52-2.16,1.23-.24,7.68-1,8.84-1s5.25.12,5.73.79a4.13,4.13,0,0,1,.38,2.07c.06,1.07.26,1.86.32,1.53.12-.75.1-2.74.11-3.22s0-1.08,0-1.54S219.41,379.43,219.41,379Z" style="fill: rgb(55, 71, 79); transform-origin: 211.854px 404.759px;" id="elnd4pk934lj" class="animable"></path><path d="M223.62,415.61a16.89,16.89,0,0,1-3.6,10.5c-2.89,4.08-13.14,7.6-17.27,1.19-2.06-3.18-2.42-6.81-2.48-10.49C203.31,412.29,219.6,411.32,223.62,415.61Z" style="fill: rgb(250, 250, 250); transform-origin: 211.945px 421.841px;" id="elg1grzg64h1r" class="animable"></path><path d="M204.14,409.38a.48.48,0,0,0,.2,0c.06,0,7.37-2.32,14.19-.34a.57.57,0,0,0,.71-.36.53.53,0,0,0-.38-.67c-7.22-2.1-14.67.26-15,.36a.54.54,0,0,0-.32.71A.57.57,0,0,0,204.14,409.38Z" style="fill: rgb(240, 240, 240); transform-origin: 211.382px 408.267px;" id="elz73oh8egffj" class="animable"></path><path d="M218.54,403.73a.56.56,0,0,0,.51-.33.54.54,0,0,0-.31-.71c-6.75-2.68-14.62.12-14.92.25a.52.52,0,0,0-.29.71.6.6,0,0,0,.75.28c.07,0,7.75-2.74,14-.24A.67.67,0,0,0,218.54,403.73Z" style="fill: rgb(240, 240, 240); transform-origin: 211.285px 402.752px;" id="elu9k3igk5hh9" class="animable"></path><path d="M218.63,398.77a.59.59,0,0,0,.51-.32.54.54,0,0,0-.3-.72c-7.41-3.09-14.92,0-15.2.19a.52.52,0,0,0-.24.73.59.59,0,0,0,.77.23c.06,0,7.32-3,14.21-.16A.59.59,0,0,0,218.63,398.77Z" style="fill: rgb(240, 240, 240); transform-origin: 211.259px 397.652px;" id="elmlxl2570bq" class="animable"></path><path d="M218.59,393.87a.57.57,0,0,0,.5-.31.53.53,0,0,0-.29-.72c-6.94-3-15,.19-15.31.33a.52.52,0,0,0-.26.72.58.58,0,0,0,.77.25c.07,0,7.89-3.11,14.33-.32A.58.58,0,0,0,218.59,393.87Z" style="fill: rgb(235, 235, 235); transform-origin: 211.156px 392.879px;" id="elnkfrqyigyd" class="animable"></path><path d="M208.69,187.2c6.34,11,12.75,19.92,11.69,52.49-.58,17.87-.8,39.4-.66,43.33s1.9,6,2.92,25.42c1.1,21.12-2.54,52.24-2.54,52.24s-2.36,2.25-10.17,2.92a18.85,18.85,0,0,1-12-2.92s-6.77-40.44-8.83-52.24c-3.23-18.61-7.12-47.89-7.12-47.89l-3.36,31.39s1.12,11.28-1.08,28.25-5.74,37.8-5.74,37.8A20,20,0,0,1,161,361.21c-9.16-.09-12.12-3.17-12.12-3.17s-3-55.66-3-74.89-2.13-68,6.29-95.95Z" style="fill: rgb(55, 71, 79); transform-origin: 184.243px 275.443px;" id="ellt98cqgud4" class="animable"></path><path d="M182,260.55l-6.43-37s-13.58-.92-21.13-8.4c3.06,8,14.2,13.51,19.1,14.62l5.75,30.35-.65,31.81Z" style="fill: rgb(38, 50, 56); transform-origin: 168.22px 253.54px;" id="elm50vcxr7rk" class="animable"></path><path d="M195.64,192.62a45,45,0,0,1,4.41,8.84,81.76,81.76,0,0,1,2.93,9.36,92.21,92.21,0,0,1,1.86,9.59,58.59,58.59,0,0,1,.68,9.73c-.82-3.17-1.58-6.31-2.34-9.45s-1.5-6.28-2.3-9.4-1.59-6.25-2.44-9.36S196.67,195.73,195.64,192.62Z" style="fill: rgb(38, 50, 56); transform-origin: 200.583px 211.38px;" id="elogae2rplfmp" class="animable"></path><path d="M200.13,193.8a35.47,35.47,0,0,1,4.64,4.94,46.12,46.12,0,0,1,3.78,5.56,40.71,40.71,0,0,1,2.87,6A25.21,25.21,0,0,1,213,216.8L209.86,211c-1.05-1.91-2.1-3.81-3.21-5.69s-2.2-3.77-3.29-5.68S201.14,195.8,200.13,193.8Z" style="fill: rgb(38, 50, 56); transform-origin: 206.565px 205.3px;" id="elgsq579h2eug" class="animable"></path></g><g id="freepik--top--inject-2" class="animable" style="transform-origin: 195.743px 177.508px;"><path d="M163.13,116.61a4.35,4.35,0,0,0-.6,3,10.87,10.87,0,0,1-8-10.69c.18-3.82,2.38-7.22,3.32-10.93a13.21,13.21,0,0,0-.93-9.69c-1.45-3.26-4-6.61-2.84-10.37,2-6.4,8.58-10.71,14.54-13a33.18,33.18,0,0,1,12-1.93c7.41.17,17.46,3.29,20,10.89,0-.08,2.57.4,5.2,3,3.65,3.64,3.62,8.35,3.81,11.27.25,3.79.12,5.43.5,9.22.26,2.57,1,3.88,1.48,5.76.56,2.24,1.81,4.28,2.25,6.56,1.25,6.43-4.24,11.12-10.26,11.54a8.23,8.23,0,0,0,1.77-4c-.27,1.11-1.72,2.38-2.56,3.07a13.72,13.72,0,0,1-3.62,1.93A34.89,34.89,0,0,1,185.05,125c-6.39.08-9.34-.3-13.71-1.56a19.67,19.67,0,0,1-5.44-2.52A6.68,6.68,0,0,1,163.13,116.61Z" style="fill: rgb(38, 50, 56); transform-origin: 183.913px 94px;" id="elk07derfva6i" class="animable"></path><g id="freepik--chest--inject-2" class="animable" style="transform-origin: 183.011px 170.294px;"><path d="M173.63,124.12s19.11,1,25.84,2.3a86.67,86.67,0,0,1,11.39,2.84c2.19,2.7,6.38,13.81,7.11,24.21.35,5.07-6.81,19.79-7,25.67-.19,5,3.62,16.1,6.67,23.86-13.69,20.5-63.09,16-69.2-2.76l3-16.85s.58-9.84.37-13.49c0,0-3.82-6.33-3.77-13.33s1.61-12.13,8.28-21.67c2.46-3.51,8-9.65,8-9.65S170.54,124.42,173.63,124.12Z" style="fill: rgb(245, 245, 245); transform-origin: 183.011px 170.294px;" id="elie10sw3r3j" class="animable"></path><g id="elmjioyemnwcc"><path d="M173.21,169.47a12.66,12.66,0,0,0,6.69,4.25,20.28,20.28,0,0,0,8.9.32,15.35,15.35,0,0,0,9.9-6.42c.11-.15.27-.32.44-.26s.2.35.14.55a11.37,11.37,0,0,1-3.73,5.82c-2.09,1.73-4.68,2.28-7.31,2.66a19.39,19.39,0,0,1-9.75-1.23,9.07,9.07,0,0,1-5.41-5.55C173.05,169.53,173.11,169.39,173.21,169.47Z" style="opacity: 0.2; transform-origin: 186.19px 171.952px;" class="animable" id="eloqx5526e8e"></path></g></g><g id="freepik--head--inject-2" class="animable" style="transform-origin: 184.093px 105.984px;"><path d="M195,120.54c.24-6.8.22-13.51.22-13.51.72,1.23,5,3.25,9.05-.42a8.62,8.62,0,0,0,1.05-11.37c-2.57-3.1-6.64-2.84-9.23,1.33-.15.25-1.31,0-1.53-.13a2.11,2.11,0,0,1-1-.89,3.55,3.55,0,0,1-.44-1.66,8.74,8.74,0,0,1,.18-1.9,19.64,19.64,0,0,1-12.46-4.3c-5.15-4.48-7.19-12.17-7-13-3.9.62-6.22,2-7.09,2.79a12.85,12.85,0,0,0-3.63,5.47c-.91,2.48-.47,5.31-.63,7.77-.09,1.49-.61,4.14-.9,6-1.06,7,0,15.34,3.88,18.56,1.91,1.58,5.81,3.64,8.92,3.6,0,0-.16,1.39-.28,3.22s-.47,1.83-2.45,2.24c-2.15,2.34-5.54,10.79,5,12.62,11,1.91,21.1-5.17,22.77-10.53C197.08,125.45,194.87,125.1,195,120.54Z" style="fill: rgb(255, 189, 167); transform-origin: 184.093px 105.984px;" id="elnh24r0n174" class="animable"></path><path d="M191.18,98.68a4.61,4.61,0,1,1-4.6-4.61A4.6,4.6,0,0,1,191.18,98.68Z" style="fill: rgb(255, 168, 167); transform-origin: 186.57px 98.68px;" id="el5sg1j0bzgy4" class="animable"></path><path d="M163,101.35a4.61,4.61,0,0,0,0-9.21,4.48,4.48,0,0,0-.65.06c-.2,1.43-.52,3.16-.73,4.51a35.44,35.44,0,0,0-.37,4.29A4.63,4.63,0,0,0,163,101.35Z" style="fill: rgb(255, 168, 167); transform-origin: 164.323px 96.745px;" id="elq6kd7tkowo" class="animable"></path><path d="M174.41,118.87c7.76.14,14-2.14,17.68-7.29,0,0-.68,4.11-3.71,6.12a25.63,25.63,0,0,1-14.21,3.8Z" style="fill: rgb(240, 153, 122); transform-origin: 183.13px 116.546px;" id="elu3qes0idj2c" class="animable"></path><path d="M173.85,107l7.55-2.15a3.74,3.74,0,0,1-2.53,4.82A4.14,4.14,0,0,1,173.85,107Z" style="fill: rgb(177, 102, 104); transform-origin: 177.727px 107.334px;" id="elkzpzgdkuhyc" class="animable"></path><path d="M177.17,109.78a3.92,3.92,0,0,0,1.7-.09,3.72,3.72,0,0,0,2.66-3A4.54,4.54,0,0,0,177.17,109.78Z" style="fill: rgb(242, 143, 143); transform-origin: 179.35px 108.262px;" id="elyvaj1cxp4rf" class="animable"></path><polygon points="176.69 90.18 174.89 102.27 168.88 100.42 176.69 90.18" style="fill: rgb(240, 153, 122); transform-origin: 172.785px 96.225px;" id="el8tinealcblt" class="animable"></polygon><path d="M164.63,87.63l4.79-.94a2.35,2.35,0,0,0-2.78-2A2.57,2.57,0,0,0,164.63,87.63Z" style="fill: rgb(38, 50, 56); transform-origin: 167.007px 86.1382px;" id="elkdt1anltgst" class="animable"></path><path d="M169.85,91.5a2,2,0,0,0-1.33-.88,2.76,2.76,0,0,0-2.55.94c-.25.29-.55.77-1,.77.17.33.78.42,1.11.44s.63,0,.94,0a5.77,5.77,0,0,1,2.16.46.86.86,0,0,0,.71.07.7.7,0,0,0,.27-.63A2.15,2.15,0,0,0,169.85,91.5Z" style="fill: rgb(177, 102, 104); transform-origin: 167.567px 91.9651px;" id="eluqwxi02fb2i" class="animable"></path><path d="M169.87,93.67a2.15,2.15,0,0,1-2.65.83,1.61,1.61,0,0,1-1.14-2.18,2.16,2.16,0,0,1,2.66-.83A1.61,1.61,0,0,1,169.87,93.67Z" style="fill: rgb(38, 50, 56); transform-origin: 167.975px 92.9946px;" id="elirat2fanffe" class="animable"></path><path d="M168,91.35c-1.28-.1-2.2,1.55-3.36.74A1.86,1.86,0,0,0,167,93.35C167.64,93.11,168,91.35,168,91.35Z" style="fill: rgb(38, 50, 56); transform-origin: 166.32px 92.3928px;" id="elbq4610wayzn" class="animable"></path><path d="M183,87.36l4.79,2.07A2.51,2.51,0,0,0,186.55,86,2.75,2.75,0,0,0,183,87.36Z" style="fill: rgb(38, 50, 56); transform-origin: 185.529px 87.6079px;" id="elocvhukid3h8" class="animable"></path><path d="M181.75,90.29a.83.83,0,0,1,.21-.15,1.48,1.48,0,0,1,.63-.13,3.59,3.59,0,0,1,2.58.81,3.82,3.82,0,0,1,.81,1.1c.1.21.2.42.28.64s.1.46,0,.4,0,0-.06-.06a4.36,4.36,0,0,0-.72-1,3.92,3.92,0,0,0-1-.77A4.2,4.2,0,0,0,182,90.7c-.13,0-.35.08-.41-.09S181.68,90.36,181.75,90.29Z" style="fill: rgb(240, 153, 122); transform-origin: 183.952px 91.4837px;" id="el66kjpdjxcov" class="animable"></path><path d="M169.8,89a1,1,0,0,0-.2-.17,1.59,1.59,0,0,0-.6-.21,3.6,3.6,0,0,0-2.66.51,3.65,3.65,0,0,0-.93,1,6.21,6.21,0,0,0-.35.6c-.09.18-.16.45,0,.41l.06-.06a4.63,4.63,0,0,1,.84-.93,3.74,3.74,0,0,1,1-.64,4.21,4.21,0,0,1,2.47-.13c.13,0,.34.13.42,0S169.86,89.06,169.8,89Z" style="fill: rgb(240, 153, 122); transform-origin: 167.425px 89.8474px;" id="elqgir685jb0q" class="animable"></path><path d="M181.39,92.18a2,2,0,0,1,1.49-.55,2.76,2.76,0,0,1,2.27,1.52c.17.33.35.87.76,1-.25.28-.87.23-1.19.16s-.6-.17-.9-.24a5.86,5.86,0,0,0-2.21-.06.83.83,0,0,1-.71-.1.69.69,0,0,1-.11-.67A2.11,2.11,0,0,1,181.39,92.18Z" style="fill: rgb(177, 102, 104); transform-origin: 183.329px 92.9958px;" id="eleyxszawtirf" class="animable"></path><path d="M180.85,94.28a2.18,2.18,0,0,0,2.39,1.43,1.62,1.62,0,0,0,1.62-1.86,2.18,2.18,0,0,0-2.39-1.43A1.62,1.62,0,0,0,180.85,94.28Z" style="fill: rgb(38, 50, 56); transform-origin: 182.855px 94.065px;" id="elv5c4p5nb5qo" class="animable"></path><path d="M183.21,92.46c1.26.21,1.78,2,3.09,1.51a1.84,1.84,0,0,1-2.61.66C183.16,94.26,183.21,92.46,183.21,92.46Z" style="fill: rgb(38, 50, 56); transform-origin: 184.754px 93.6919px;" id="elcx6ok5wnnq8" class="animable"></path></g><path d="M216.92,198.82l-2.49-6s-2.86,5.33-6.87,3.77-2.63-17.28-2.41-31S205,141,209.64,128.23c-1.92-.29-4-.72-6-1.09-4.22,7.76-6.4,18.68-6.4,18.68a317.46,317.46,0,0,1-39-2.27,46.19,46.19,0,0,1,10.51-18.86l-6.49.66A49.57,49.57,0,0,0,148.41,149c-4.07,17.36,4.54,20.13-1.27,53.55-5.27,30.24-6.43,82.9-6.43,82.9s9.58,4.71,32.36,6.27a154.34,154.34,0,0,0,42.07-3.12L210,205.11Z" style="fill: rgb(69, 90, 100); transform-origin: 178.815px 208.358px;" id="elvqotzdmd5dl" class="animable"></path><path d="M203.79,240.8S168.46,242.09,148,239l-2.19,36.43s22.55,6.94,59.69,3.85Z" style="fill: rgb(55, 71, 79); transform-origin: 175.655px 259.536px;" id="el4wytspna55c" class="animable"></path><rect x="188.1" y="241.06" width="1" height="39" style="fill: rgb(38, 50, 56); transform-origin: 188.6px 260.56px;" id="elebqosxxdf3" class="animable"></rect><path d="M212.44,284.3c-26.68,4.65-61.68,0-69.31-3.23l-.48,1.13c5.54,2.33,24,5.32,43.95,5.32a154.38,154.38,0,0,0,26.05-2Zm-12.5-131.51L184,151.9l-.53,6.09,16,1Z" style="fill: rgb(55, 71, 79); transform-origin: 177.65px 219.713px;" id="elxc0p8h57q3a" class="animable"></path><g id="freepik--arm--inject-2" class="animable" style="transform-origin: 228.922px 175.085px;"><path d="M223.89,220.09c1.25-1.36,2.86-2.57,3.38-4.43a3.16,3.16,0,0,0-.45-2.83,1.57,1.57,0,0,1-.34-.51,1.26,1.26,0,0,1,0-.51,3.45,3.45,0,0,0-.14-2.11,2.14,2.14,0,0,0-1.34-1.14,5.12,5.12,0,0,0,0-3.19c-.42-1.21-1.67-2.17-2.49-.82a10.86,10.86,0,0,0-.94,2.12c-.64,1.81-2.08,3.49-2.27,5.41s.38,7.91,3.48,8.17C223,220.27,223.71,220.29,223.89,220.09Z" style="fill: rgb(240, 153, 122); transform-origin: 223.345px 212.078px;" id="el445o2zcp3zj" class="animable"></path><path d="M210.67,129.14c11.94,2.26,12.22,5,19.33,14.78s16.59,23.12,18.81,27.89c2.75,5.9,3.33,8.16-3,14.45-3.25,3.24-7.79,7.1-12.41,11.46-3.65,3.44-8,7.08-11.56,10.64a3.21,3.21,0,0,0-1.1,3.26,22.69,22.69,0,0,1,.62,2.39,20.14,20.14,0,0,1-.25,3.18,2.78,2.78,0,0,0,1.25,2.73,3.12,3.12,0,0,0,1.52.17,10.51,10.51,0,0,1-2.92,1.59,4.44,4.44,0,0,1-3.25-.1c-1-.47-1.71-1.39-2.74-1.7-.56-.17-1.16-.14-1.72-.29a2.88,2.88,0,0,1-1.48-1c-.59-.75-.83-1.81-1.66-2.27a11.43,11.43,0,0,0-1.29-.42,2.91,2.91,0,0,1-1.61-2.13,7.83,7.83,0,0,1,.07-2.77,67.21,67.21,0,0,1,1.51-7.31,6.93,6.93,0,0,1,1.18-2.25c.56-.81,1.09-1.64,1.69-2.41,4.11-5.23,17.11-22.67,17.11-22.67l-15.17-19S202.94,146.17,210.67,129.14Z" style="fill: rgb(255, 189, 167); transform-origin: 228.948px 175.54px;" id="elwnj3xbxzfd8" class="animable"></path><path d="M209.64,128.23c6.3,1.26,8.83,2.15,12.12,4.54s7,8.54,9.85,12.58,8.22,12.16,8.22,12.16-.15,3.46-5.76,8.45-11,4.18-11,4.18l-12.53-15.26C207.73,151.45,204.83,136.57,209.64,128.23Z" style="fill: #B465C3; transform-origin: 223.449px 149.209px;" id="elibxoxug6xag" class="animable"></path><path d="M228.78,176.4c3.63,3.56,9.27,3.85,11.34,3.72A11.9,11.9,0,0,1,227.61,178Z" style="fill: rgb(240, 153, 122); transform-origin: 233.865px 178.717px;" id="el2m5vc2l6kso" class="animable"></path></g></g></g></g><g id="freepik--Sparkles--inject-2" class="animable" style="transform-origin: 247.72px 135.435px;"><g id="freepik--Shine--inject-2" class="animable" style="transform-origin: 247.72px 135.435px;"><path id="freepik--shine--inject-2" d="M460.93,200.2a.38.38,0,0,0-.34-.37l-8.17-.9a1.86,1.86,0,0,1-1.64-1.67l-.94-10.43a.38.38,0,0,0-.75,0l-.94,10.43a1.86,1.86,0,0,1-1.64,1.67l-8.17.9a.38.38,0,0,0,0,.75l8.17.9a1.86,1.86,0,0,1,1.64,1.68l.94,10.42a.38.38,0,0,0,.75,0l.94-10.42a1.86,1.86,0,0,1,1.64-1.68l8.17-.9A.38.38,0,0,0,460.93,200.2Zm-8.59.53a2.62,2.62,0,0,0-2.31,2.36l-.56,6.27-.57-6.27a2.62,2.62,0,0,0-2.3-2.36l-4.79-.53,4.79-.52a2.62,2.62,0,0,0,2.3-2.36l.57-6.27.56,6.27a2.62,2.62,0,0,0,2.31,2.36l4.79.52ZM49.09,231l-6-.67A1.23,1.23,0,0,1,42,229.21l-.69-7.7a.41.41,0,0,0-.82,0l-.69,7.7a1.23,1.23,0,0,1-1.09,1.11l-6,.67a.42.42,0,0,0-.37.41.4.4,0,0,0,.37.4l6,.67a1.23,1.23,0,0,1,1.09,1.12l.69,7.69a.41.41,0,0,0,.82,0l.69-7.69a1.23,1.23,0,0,1,1.09-1.12l6-.67a.4.4,0,0,0,.36-.4A.42.42,0,0,0,49.09,231Zm-6,.69a2.18,2.18,0,0,0-1.94,2l-.31,3.41-.31-3.41a2.18,2.18,0,0,0-1.94-2l-2.52-.28,2.52-.28a2.19,2.19,0,0,0,1.94-2h0l.31-3.41.31,3.41a2.19,2.19,0,0,0,1.94,2l2.52.28Zm343.09-109-5.25-.58A1.19,1.19,0,0,1,379.9,121l-.6-6.69a.25.25,0,0,0-.24-.22.24.24,0,0,0-.24.22l-.6,6.69a1.19,1.19,0,0,1-1.06,1.07l-5.24.58a.25.25,0,0,0-.21.25.23.23,0,0,0,.21.23l5.24.58a1.21,1.21,0,0,1,1.06,1.08l.6,6.69a.24.24,0,0,0,.24.22.25.25,0,0,0,.24-.22l.6-6.69A1.21,1.21,0,0,1,381,123.7l5.25-.58a.23.23,0,0,0,.21-.23A.25.25,0,0,0,386.2,122.64Zm-5.3.58a1.69,1.69,0,0,0-1.48,1.51l-.36,4-.36-4a1.69,1.69,0,0,0-1.48-1.51l-3.07-.33,3.07-.34A1.69,1.69,0,0,0,378.7,121l.36-4,.36,4a1.69,1.69,0,0,0,1.48,1.51l3.07.34Zm.74-78.77-9.42-1a2.13,2.13,0,0,1-1.89-1.93l-1.08-12a.44.44,0,0,0-.44-.39.43.43,0,0,0-.43.39l-1.08,12a2.14,2.14,0,0,1-1.89,1.93l-9.42,1a.43.43,0,0,0,0,.86l9.42,1a2.14,2.14,0,0,1,1.89,1.93l1.08,12a.43.43,0,0,0,.43.39.44.44,0,0,0,.44-.39l1.08-12a2.13,2.13,0,0,1,1.89-1.93l9.42-1a.43.43,0,0,0,0-.86Zm-9.52,1a3,3,0,0,0-2.66,2.71l-.65,7.22-.65-7.22a3,3,0,0,0-2.66-2.71L360,44.88l5.51-.61a3,3,0,0,0,2.66-2.71l.65-7.22.65,7.22a3,3,0,0,0,2.66,2.71l5.52.61ZM151.54,47.37l-5.45-.61a1.1,1.1,0,0,1-1-1l-.63-6.95a.37.37,0,0,0-.37-.34.35.35,0,0,0-.36.34l-.63,6.95a1.11,1.11,0,0,1-1,1l-5.45.61a.37.37,0,0,0,0,.73l5.45.6a1.13,1.13,0,0,1,1,1l.63,6.95a.36.36,0,0,0,.36.34.38.38,0,0,0,.37-.34l.63-6.95a1.12,1.12,0,0,1,1-1l5.45-.6a.37.37,0,0,0,0-.73ZM146,48a1.86,1.86,0,0,0-1.64,1.67l-.26,2.88-.26-2.87A1.86,1.86,0,0,0,142.21,48l-2.13-.24,2.13-.23a1.86,1.86,0,0,0,1.64-1.68h0l.26-2.88.26,2.88A1.86,1.86,0,0,0,146,47.5l2.14.23ZM476.12,157.69l-5.45-.61a1.11,1.11,0,0,1-1-1l-.63-7a.35.35,0,0,0-.36-.34.37.37,0,0,0-.37.34l-.63,7a1.11,1.11,0,0,1-1,1l-5.44.61a.37.37,0,0,0,0,.73l5.44.6a1.12,1.12,0,0,1,1,1l.63,6.95a.38.38,0,0,0,.37.34.36.36,0,0,0,.36-.34l.63-6.95a1.13,1.13,0,0,1,1-1l5.45-.6a.37.37,0,0,0,0-.73Zm-5.53.6A1.86,1.86,0,0,0,469,160l-.26,2.88-.26-2.87a1.86,1.86,0,0,0-1.64-1.68l-2.14-.24,2.14-.23a1.86,1.86,0,0,0,1.64-1.68h0l.26-2.88.26,2.88a1.86,1.86,0,0,0,1.64,1.68l2.13.23ZM263.11,82.37l-5.45-.6a1.13,1.13,0,0,1-1-1l-.62-7a.37.37,0,0,0-.74,0l-.62,7a1.13,1.13,0,0,1-1,1l-5.45.6a.37.37,0,0,0-.33.37.38.38,0,0,0,.33.37l5.45.6a1.13,1.13,0,0,1,1,1l.62,7a.37.37,0,0,0,.74,0l.62-7a1.13,1.13,0,0,1,1-1l5.45-.6a.38.38,0,0,0,.33-.37A.37.37,0,0,0,263.11,82.37Zm-5.53.61a1.85,1.85,0,0,0-1.64,1.67l-.26,2.88-.26-2.88A1.85,1.85,0,0,0,253.78,83l-2.13-.24,2.13-.24a1.85,1.85,0,0,0,1.64-1.67h0l.26-2.88.26,2.88a1.85,1.85,0,0,0,1.64,1.67l2.14.24Zm144.68,17.45-5.45-.6a1.13,1.13,0,0,1-1-1l-.62-6.95a.37.37,0,0,0-.74,0l-.63,6.95a1.11,1.11,0,0,1-1,1l-5.45.6a.37.37,0,0,0,0,.74l5.45.6a1.11,1.11,0,0,1,1,1l.63,7a.37.37,0,0,0,.74,0l.62-7a1.13,1.13,0,0,1,1-1l5.45-.6a.37.37,0,0,0,0-.74Zm-5.53.61a1.85,1.85,0,0,0-1.64,1.67l-.26,2.88-.26-2.88a1.85,1.85,0,0,0-1.64-1.67l-2.14-.24,2.14-.24a1.85,1.85,0,0,0,1.64-1.67h0l.26-2.88.26,2.88a1.85,1.85,0,0,0,1.64,1.67l2.13.24Zm-147.84-45-7.77-.86a1.77,1.77,0,0,1-1.56-1.59l-.89-9.92a.36.36,0,0,0-.36-.32.35.35,0,0,0-.35.32l-.9,9.92a1.76,1.76,0,0,1-1.56,1.59l-7.77.86a.36.36,0,0,0,0,.71l7.77.86a1.76,1.76,0,0,1,1.56,1.59l.9,9.92a.35.35,0,0,0,.35.32.36.36,0,0,0,.36-.32l.89-9.92a1.77,1.77,0,0,1,1.56-1.59l7.77-.86a.36.36,0,0,0,0-.71Zm-7.85.86a2.49,2.49,0,0,0-2.19,2.24l-.54,6-.53-6a2.49,2.49,0,0,0-2.2-2.24L231,56.43l4.55-.5a2.49,2.49,0,0,0,2.2-2.24l.53-6,.54,6A2.49,2.49,0,0,0,241,55.93l4.55.5ZM130.17,78.52l-6.12-.67a1.27,1.27,0,0,1-1.11-1.13l-.7-7.8a.41.41,0,0,0-.41-.38.4.4,0,0,0-.41.38l-.71,7.8a1.26,1.26,0,0,1-1.11,1.13l-6.11.67a.42.42,0,0,0,0,.83l6.11.67a1.26,1.26,0,0,1,1.11,1.13l.71,7.8a.4.4,0,0,0,.41.38.41.41,0,0,0,.41-.38l.7-7.8A1.27,1.27,0,0,1,124.05,80l6.12-.67a.42.42,0,0,0,0-.83Zm-5.87.72a2.43,2.43,0,0,0-2.14,2.18l-.33,3.74-.34-3.74a2.42,2.42,0,0,0-2.13-2.18l-2.77-.31,2.77-.3a2.42,2.42,0,0,0,2.13-2.18h0l.34-3.74.33,3.74a2.43,2.43,0,0,0,2.14,2.18l2.77.3ZM66.89,47.3l-9.42-1a2.14,2.14,0,0,1-1.89-1.93l-1.08-12a.44.44,0,0,0-.87,0l-1.08,12a2.13,2.13,0,0,1-1.89,1.93l-9.42,1a.44.44,0,0,0,0,.87l9.42,1a2.13,2.13,0,0,1,1.89,1.92l1.08,12a.44.44,0,0,0,.87,0l1.08-12a2.14,2.14,0,0,1,1.89-1.92l9.42-1a.44.44,0,0,0,0-.87Zm-9.51,1a3,3,0,0,0-2.66,2.72l-.65,7.22-.65-7.22a3,3,0,0,0-2.66-2.72l-5.52-.61,5.52-.61a3,3,0,0,0,2.66-2.71l.65-7.22.65,7.22a3,3,0,0,0,2.66,2.71l5.51.61Z" style="fill: rgb(230, 230, 230); transform-origin: 254.385px 135.435px;" class="animable"></path><path d="M467.27,82.21a7,7,0,1,1,7-7A7,7,0,0,1,467.27,82.21Zm0-13a6,6,0,1,0,6,6A6,6,0,0,0,467.27,69.23Z" style="fill: rgb(240, 240, 240); transform-origin: 467.27px 75.21px;" id="elr52yaiyafdm" class="animable"></path><path d="M129.42,118.45a7,7,0,1,1,7-7A7,7,0,0,1,129.42,118.45Zm0-13a6,6,0,1,0,6,6A6,6,0,0,0,129.42,105.46Z" style="fill: rgb(240, 240, 240); transform-origin: 129.42px 111.45px;" id="elwo4n87dt0td" class="animable"></path><path d="M38.75,100a7,7,0,1,1,7-7A7,7,0,0,1,38.75,100Zm0-13a6,6,0,1,0,6,6A6,6,0,0,0,38.75,87.05Z" style="fill: rgb(240, 240, 240); transform-origin: 38.75px 93px;" id="eleanxrdlp5gu" class="animable"></path><path d="M282.05,50.38a7,7,0,1,1,7-7A7,7,0,0,1,282.05,50.38Zm0-13a6,6,0,1,0,6,6A6,6,0,0,0,282.05,37.39Z" style="fill: rgb(240, 240, 240); transform-origin: 282.05px 43.38px;" id="el83n5n6sj83j" class="animable"></path><path d="M255,130.64a3.38,3.38,0,1,1-3.37-3.38A3.37,3.37,0,0,1,255,130.64Z" style="fill: rgb(240, 240, 240); transform-origin: 251.62px 130.64px;" id="el65hmuntqiio" class="animable"></path><path d="M99.07,46.32a3.38,3.38,0,1,1-3.38-3.38A3.38,3.38,0,0,1,99.07,46.32Z" style="fill: rgb(240, 240, 240); transform-origin: 95.69px 46.32px;" id="el3vr132nwni4" class="animable"></path><path d="M441.38,34.34A3.38,3.38,0,1,1,438,31,3.37,3.37,0,0,1,441.38,34.34Z" style="fill: rgb(240, 240, 240); transform-origin: 438px 34.38px;" id="elzkhkhhdzmlr" class="animable"></path><path d="M25.77,184.66a3.38,3.38,0,1,1-3.38-3.38A3.37,3.37,0,0,1,25.77,184.66Z" style="fill: rgb(240, 240, 240); transform-origin: 22.39px 184.66px;" id="eljw4butjuer" class="animable"></path><path d="M459.45,110.88a3.38,3.38,0,1,1-3.38-3.38A3.37,3.37,0,0,1,459.45,110.88Z" style="fill: rgb(240, 240, 240); transform-origin: 456.07px 110.88px;" id="el6ufoo886dl9" class="animable"></path></g></g><defs>     <filter id="active" height="200%">         <feMorphology in="SourceAlpha" result="DILATED" operator="dilate" radius="2"></feMorphology>                <feFlood flood-color="#32DFEC" flood-opacity="1" result="PINK"></feFlood>        <feComposite in="PINK" in2="DILATED" operator="in" result="OUTLINE"></feComposite>        <feMerge>            <feMergeNode in="OUTLINE"></feMergeNode>            <feMergeNode in="SourceGraphic"></feMergeNode>        </feMerge>    </filter>    <filter id="hover" height="200%">        <feMorphology in="SourceAlpha" result="DILATED" operator="dilate" radius="2"></feMorphology>                <feFlood flood-color="#ff0000" flood-opacity="0.5" result="PINK"></feFlood>        <feComposite in="PINK" in2="DILATED" operator="in" result="OUTLINE"></feComposite>        <feMerge>            <feMergeNode in="OUTLINE"></feMergeNode>            <feMergeNode in="SourceGraphic"></feMergeNode>        </feMerge>            <feColorMatrix type="matrix" values="0   0   0   0   0                0   1   0   0   0                0   0   0   0   0                0   0   0   1   0 "></feColorMatrix>    </filter></defs></svg>