<svg class="animated" id="freepik_stories-barber" xmlns="http://www.w3.org/2000/svg" viewBox="0 0 500 500" version="1.1" xmlns:xlink="http://www.w3.org/1999/xlink" xmlns:svgjs="http://svgjs.com/svgjs"><style>svg#freepik_stories-barber:not(.animated) .animable {opacity: 0;}svg#freepik_stories-barber.animated #freepik--character-1--inject-70 {animation: 1s 1 forwards cubic-bezier(.36,-0.01,.5,1.38) fadeIn;animation-delay: 0s;}svg#freepik_stories-barber.animated #freepik--character-2--inject-70 {animation: 1.6s 1 forwards ease-out lightSpeedRight,3s Infinite  linear wind;animation-delay: 0s,1.6s;}            @keyframes fadeIn {                0% {                    opacity: 0;                }                100% {                    opacity: 1;                }            }                    @keyframes lightSpeedRight {              from {                transform: translate3d(50%, 0, 0) skewX(-20deg);                opacity: 0;              }              60% {                transform: skewX(10deg);                opacity: 1;              }              80% {                transform: skewX(-2deg);              }              to {                opacity: 1;                transform: translate3d(0, 0, 0);              }            }                    @keyframes wind {                0% {                    transform: rotate( 0deg );                }                25% {                    transform: rotate( 1deg );                }                75% {                    transform: rotate( -1deg );                }            }        .animator-hidden { display: none; }</style><g id="freepik--background-complete--inject-70" class="animable animator-hidden" style="transform-origin: 250px 227.39px;"><rect y="382.4" width="500" height="0.25" style="fill: rgb(235, 235, 235); transform-origin: 250px 382.525px;" id="elc1x8r6kjmx" class="animable"></rect><rect x="52.46" y="391.92" width="33.12" height="0.25" style="fill: rgb(235, 235, 235); transform-origin: 69.02px 392.045px;" id="elfm8vos0gee9" class="animable"></rect><rect x="136.33" y="389.21" width="43.5" height="0.25" style="fill: rgb(235, 235, 235); transform-origin: 158.08px 389.335px;" id="elrnyw196dy7" class="animable"></rect><rect x="81.58" y="397.08" width="38.75" height="0.25" style="fill: rgb(235, 235, 235); transform-origin: 100.955px 397.205px;" id="elzbz357j9se" class="animable"></rect><rect x="406.71" y="399.53" width="43.19" height="0.25" style="fill: rgb(235, 235, 235); transform-origin: 428.305px 399.655px;" id="els4xx1fuhhti" class="animable"></rect><rect x="379" y="399.53" width="18.8" height="0.25" style="fill: rgb(235, 235, 235); transform-origin: 388.4px 399.655px;" id="eluhpj4x6p3ji" class="animable"></rect><rect x="238.44" y="395.31" width="36.56" height="0.25" style="fill: rgb(235, 235, 235); transform-origin: 256.72px 395.435px;" id="elgrd1mshxlr" class="animable"></rect><path d="M237,337.8H43.91a5.71,5.71,0,0,1-5.7-5.71V60.66A5.71,5.71,0,0,1,43.91,55H237a5.71,5.71,0,0,1,5.71,5.71V332.09A5.71,5.71,0,0,1,237,337.8ZM43.91,55.2a5.46,5.46,0,0,0-5.45,5.46V332.09a5.46,5.46,0,0,0,5.45,5.46H237a5.47,5.47,0,0,0,5.46-5.46V60.66A5.47,5.47,0,0,0,237,55.2Z" style="fill: rgb(235, 235, 235); transform-origin: 140.46px 196.4px;" id="elaaz3uff6bqj" class="animable"></path><path d="M453.31,337.8H260.21a5.72,5.72,0,0,1-5.71-5.71V60.66A5.72,5.72,0,0,1,260.21,55h193.1A5.71,5.71,0,0,1,459,60.66V332.09A5.71,5.71,0,0,1,453.31,337.8ZM260.21,55.2a5.47,5.47,0,0,0-5.46,5.46V332.09a5.47,5.47,0,0,0,5.46,5.46h193.1a5.47,5.47,0,0,0,5.46-5.46V60.66a5.47,5.47,0,0,0-5.46-5.46Z" style="fill: rgb(235, 235, 235); transform-origin: 356.75px 196.4px;" id="elmd9hehqcsw" class="animable"></path><rect x="286.07" y="76.99" width="64.91" height="82.24" style="fill: rgb(235, 235, 235); transform-origin: 318.525px 118.11px;" id="elybfe33xcu" class="animable"></rect><g id="el5f5qj3n35zk"><rect x="283.71" y="76.99" width="2.36" height="82.24" style="fill: rgb(224, 224, 224); transform-origin: 284.89px 118.11px; transform: rotate(180deg);" class="animable" id="elil0s9ldq6q9"></rect></g><g id="elnlxso646aw"><rect x="284.84" y="93.09" width="67.36" height="50.04" style="fill: rgb(255, 255, 255); transform-origin: 318.52px 118.11px; transform: rotate(90deg);" class="animable" id="elbu78x03jcst"></rect></g><g id="el9id3zudj61k"><circle cx="318.53" cy="105.28" r="10.15" style="fill: rgb(240, 240, 240); transform-origin: 318.53px 105.28px; transform: rotate(-45deg);" class="animable" id="el4e348p17v5v"></circle></g><rect x="303.22" y="125.7" width="30.62" height="4.65" style="fill: rgb(240, 240, 240); transform-origin: 318.53px 128.025px;" id="elq8mcgb3ths" class="animable"></rect><rect x="303.22" y="133.49" width="30.62" height="4.65" style="fill: rgb(240, 240, 240); transform-origin: 318.53px 135.815px;" id="el3i95xcgr455" class="animable"></rect><rect x="371.82" y="125.54" width="64.91" height="82.24" style="fill: rgb(235, 235, 235); transform-origin: 404.275px 166.66px;" id="elz7154i53tb" class="animable"></rect><g id="el92fvw8serkk"><rect x="369.46" y="125.54" width="2.36" height="82.24" style="fill: rgb(224, 224, 224); transform-origin: 370.64px 166.66px; transform: rotate(180deg);" class="animable" id="ell0fp2sqzuk"></rect></g><g id="eldgyeuq3vk8k"><rect x="370.6" y="141.64" width="67.36" height="50.04" style="fill: rgb(255, 255, 255); transform-origin: 404.28px 166.66px; transform: rotate(90deg);" class="animable" id="elaspixx4h1s"></rect></g><path d="M404.28,190A12.75,12.75,0,1,1,417,177.24,12.76,12.76,0,0,1,404.28,190Zm0-24.4a11.65,11.65,0,1,0,11.65,11.65A11.66,11.66,0,0,0,404.28,165.59Z" style="fill: rgb(240, 240, 240); transform-origin: 404.25px 177.25px;" id="eliusu551tzc" class="animable"></path><g id="el3nkrvojbzr1"><rect x="388.97" y="153.94" width="30.62" height="3.03" style="fill: rgb(240, 240, 240); transform-origin: 404.28px 155.455px; transform: rotate(180deg);" class="animable" id="eltoe9b9x56n"></rect></g><g id="elsz34kngmosg"><rect x="388.97" y="148.85" width="30.62" height="3.03" style="fill: rgb(240, 240, 240); transform-origin: 404.28px 150.365px; transform: rotate(180deg);" class="animable" id="elvo4jur9hegi"></rect></g><g id="ell5ylfirc8q"><rect x="394.13" y="143.77" width="20.29" height="3.03" style="fill: rgb(240, 240, 240); transform-origin: 404.275px 145.285px; transform: rotate(180deg);" class="animable" id="elurhl120hqt"></rect></g><rect x="64.33" y="266.41" width="376" height="5.44" style="fill: rgb(245, 245, 245); transform-origin: 252.33px 269.13px;" id="elvo51iq74ap" class="animable"></rect><rect x="64.33" y="266.41" width="20" height="5.44" style="fill: rgb(230, 230, 230); transform-origin: 74.33px 269.13px;" id="elgsxpuqbrheb" class="animable"></rect><path d="M97.66,245.66h7.25a3.24,3.24,0,0,1,3.24,3.24v17.51a0,0,0,0,1,0,0H94.42a0,0,0,0,1,0,0V248.9A3.24,3.24,0,0,1,97.66,245.66Z" style="fill: rgb(245, 245, 245); transform-origin: 101.285px 256.035px;" id="el92vsdr40ewn" class="animable"></path><rect x="97.24" y="242.44" width="8.1" height="3.23" rx="0.54" style="fill: rgb(230, 230, 230); transform-origin: 101.29px 244.055px;" id="el1ekacwu5dqo" class="animable"></rect><path d="M79.24,239.81h7.25A3.24,3.24,0,0,1,89.72,243v23.37a0,0,0,0,1,0,0H76a0,0,0,0,1,0,0V243A3.24,3.24,0,0,1,79.24,239.81Z" style="fill: rgb(230, 230, 230); transform-origin: 82.86px 253.09px;" id="elz2tygdxmwo9" class="animable"></path><path d="M81.72,234.22H84a1,1,0,0,1,1,1v7.38a0,0,0,0,1,0,0H80.7a0,0,0,0,1,0,0v-7.38A1,1,0,0,1,81.72,234.22Z" style="fill: rgb(230, 230, 230); transform-origin: 82.85px 238.41px;" id="elmjgbzkgw4mr" class="animable"></path><g id="elo1y8dh1ak"><path d="M390.64,238.56h11.28a0,0,0,0,1,0,0V263a3.4,3.4,0,0,1-3.4,3.4H394a3.4,3.4,0,0,1-3.4-3.4V238.56A0,0,0,0,1,390.64,238.56Z" style="fill: rgb(245, 245, 245); transform-origin: 396.26px 252.48px; transform: rotate(180deg);" class="animable" id="elzmar4li0x7"></path></g><g id="elftzt2o1u88w"><rect x="392.95" y="234.22" width="6.65" height="4.33" rx="0.57" style="fill: rgb(230, 230, 230); transform-origin: 396.275px 236.385px; transform: rotate(180deg);" class="animable" id="elsa2yy2ogxd8"></rect></g><g id="elcer8qmva1fl"><path d="M377.16,242h9.89a0,0,0,0,1,0,0v21.45a3,3,0,0,1-3,3h-3.93a3,3,0,0,1-3-3V242A0,0,0,0,1,377.16,242Z" style="fill: rgb(245, 245, 245); transform-origin: 382.085px 254.225px; transform: rotate(180deg);" class="animable" id="elg9ky0n1r5m9"></path></g><g id="eljv1yjlz26uc"><rect x="379.19" y="238.18" width="5.84" height="3.8" rx="0.5" style="fill: rgb(230, 230, 230); transform-origin: 382.11px 240.08px; transform: rotate(180deg);" class="animable" id="elh97568qjrjp"></rect></g><g id="el4h2hliq0461"><path d="M406.34,239.81H425.5a0,0,0,0,1,0,0v22.78a3.83,3.83,0,0,1-3.83,3.83H410.16a3.83,3.83,0,0,1-3.83-3.83V239.81A0,0,0,0,1,406.34,239.81Z" style="fill: rgb(230, 230, 230); transform-origin: 415.915px 253.115px; transform: rotate(180deg);" class="animable" id="eljsndsytc83"></path></g><g id="elkwhujs01z3f"><path d="M412.89,234.22h6.05a0,0,0,0,1,0,0v7.19a1.21,1.21,0,0,1-1.21,1.21H414.1a1.21,1.21,0,0,1-1.21-1.21v-7.19A0,0,0,0,1,412.89,234.22Z" style="fill: rgb(230, 230, 230); transform-origin: 415.915px 238.42px; transform: rotate(180deg);" class="animable" id="elmohxkecvci9"></path></g><path d="M305.94,245.16h3.63a2.64,2.64,0,0,1,2.64,2.64v18.61a0,0,0,0,1,0,0H303.3a0,0,0,0,1,0,0V247.8A2.64,2.64,0,0,1,305.94,245.16Z" style="fill: rgb(245, 245, 245); transform-origin: 307.755px 255.785px;" id="el26smoiq760o" class="animable"></path><rect x="305.13" y="241.86" width="5.26" height="3.31" rx="0.44" style="fill: rgb(230, 230, 230); transform-origin: 307.76px 243.515px;" id="el6085037xs83" class="animable"></rect><path d="M317.35,247.78h3.18a2.31,2.31,0,0,1,2.31,2.31v16.32a0,0,0,0,1,0,0H315a0,0,0,0,1,0,0V250.09A2.31,2.31,0,0,1,317.35,247.78Z" style="fill: rgb(245, 245, 245); transform-origin: 318.92px 257.095px;" id="elu460cic3njs" class="animable"></path><rect x="316.64" y="244.88" width="4.61" height="2.9" rx="0.39" style="fill: rgb(230, 230, 230); transform-origin: 318.945px 246.33px;" id="elqjoledrhtxb" class="animable"></rect><path d="M287.65,246.12h9.2a3,3,0,0,1,3,3v17.33a0,0,0,0,1,0,0H284.68a0,0,0,0,1,0,0V249.09A3,3,0,0,1,287.65,246.12Z" style="fill: rgb(230, 230, 230); transform-origin: 292.265px 256.285px;" id="elc6ht7gvjrw" class="animable"></path><path d="M290.8,241.86h2.9a.94.94,0,0,1,.94.94v5.47a0,0,0,0,1,0,0h-4.78a0,0,0,0,1,0,0V242.8A.94.94,0,0,1,290.8,241.86Z" style="fill: rgb(230, 230, 230); transform-origin: 292.25px 245.065px;" id="el8768mj0wttd" class="animable"></path><path d="M97.68,304.53l3.87,4.1s2.4-5.37,5.94-7.49a1.43,1.43,0,0,0,.11-2.34l-2.14-1.69a1.43,1.43,0,0,0-1.82,0C102.08,298.49,99,301.44,97.68,304.53Z" style="fill: rgb(230, 230, 230); transform-origin: 102.918px 302.707px;" id="elwxggx7cqjfl" class="animable"></path><path d="M97,297.6l14.1,20.75-8,8L82.3,312.26a10.56,10.56,0,0,1-1.53-16.19h0A10.56,10.56,0,0,1,97,297.6Z" style="fill: rgb(240, 240, 240); transform-origin: 94.3915px 309.655px;" id="eltn3q0mlu7uf" class="animable"></path><path d="M92.93,297.5l7.32,9.86s6.57-11,14.77-14.68a3.11,3.11,0,0,0,.85-5l-4.21-4.21a3.12,3.12,0,0,0-4-.38C104,285.57,96.48,291.14,92.93,297.5Z" style="fill: rgb(240, 240, 240); transform-origin: 104.855px 294.948px;" id="elrxaa94fenjl" class="animable"></path><path d="M394.21,304.53l3.87,4.1s2.4-5.37,5.94-7.49a1.43,1.43,0,0,0,.11-2.34L402,297.11a1.45,1.45,0,0,0-1.83,0C398.61,298.49,395.48,301.44,394.21,304.53Z" style="fill: rgb(230, 230, 230); transform-origin: 399.448px 302.707px;" id="elp52jp4c2nn" class="animable"></path><path d="M393.49,297.6l14.1,20.75-8,8-20.75-14.1a10.56,10.56,0,0,1-1.53-16.19h0A10.56,10.56,0,0,1,393.49,297.6Z" style="fill: rgb(240, 240, 240); transform-origin: 390.907px 309.667px;" id="elpa2u8sb7kw" class="animable"></path><path d="M389.46,297.5l7.32,9.86s6.57-11,14.77-14.68a3.11,3.11,0,0,0,.85-5l-4.21-4.21a3.12,3.12,0,0,0-3.95-.38C400.52,285.57,393,291.14,389.46,297.5Z" style="fill: rgb(240, 240, 240); transform-origin: 401.385px 294.958px;" id="elfmbcmz5oiat" class="animable"></path></g><g id="freepik--Shadow--inject-70" class="animable" style="transform-origin: 250px 416.24px;"><ellipse id="freepik--path--inject-70" cx="250" cy="416.24" rx="193.89" ry="11.32" style="fill: rgb(245, 245, 245); transform-origin: 250px 416.24px;" class="animable"></ellipse></g><g id="freepik--Mirror--inject-70" class="animable" style="transform-origin: 175.565px 161.16px;"><rect x="251.66" y="131.89" width="1" height="6.78" style="fill: #B465C3; transform-origin: 252.16px 135.28px;" id="el9x1besqxfyh" class="animable"></rect><rect x="251.66" y="109.44" width="1" height="17.11" style="fill: #B465C3; transform-origin: 252.16px 117.995px;" id="elxag3yilbdp" class="animable"></rect><rect x="100.2" y="96.95" width="148.96" height="128.42" style="fill: #B465C3; transform-origin: 174.68px 161.16px;" id="elyuaf6d52mq" class="animable"></rect><g id="eliey67jfrku8"><rect x="98.47" y="96.95" width="1.73" height="128.42" style="fill: #B465C3; transform-origin: 99.335px 161.16px; transform: rotate(180deg);" class="animable" id="elqqd413enlb8"></rect></g><g id="el93ui2dasgg"><rect x="98.47" y="96.95" width="1.73" height="128.42" style="opacity: 0.2; transform-origin: 99.335px 161.16px; transform: rotate(180deg);" class="animable" id="elq5u21anwll"></rect></g><g id="elwukjmq596cp"><rect x="111.11" y="87.39" width="127.13" height="147.53" style="fill: rgb(255, 255, 255); opacity: 0.8; transform-origin: 174.675px 161.155px; transform: rotate(90deg);" class="animable" id="el4iwmr49u20k"></rect></g><g id="el5i859ijjdqo"><g style="opacity: 0.4; transform-origin: 173.621px 172.606px;" class="animable" id="elh2bexxfg0gu"><g id="elsqyx8wlnbd"><path d="M239,161.31l-.76-1.74a3.72,3.72,0,0,0-.19-.34,3.87,3.87,0,0,0-.3-1c-.61-1.39-1.83-2.2-2.73-1.8a1.39,1.39,0,0,0-.72.83l-1.92-4.39.76-2,2.52-1.1a28.5,28.5,0,0,0,1.78-12l-5.5,14.1-5.8-13.22a28.57,28.57,0,0,0,2.27,12l2.56,1,.56,1.27-1.49,3.8a1.39,1.39,0,0,0-.75-.79,1.41,1.41,0,0,0-1.19.13l-.05,0-.14-.1a1.65,1.65,0,0,0-.47-.21.57.57,0,0,0-.25,0h0a.42.42,0,0,0-.15.12l0,0a1.16,1.16,0,0,0-.06.22v0a1.59,1.59,0,0,0,0,.31v.07c0,.11,0,.23,0,.35a.17.17,0,0,1,0,.08,1.7,1.7,0,0,1,0,.22,3.64,3.64,0,0,0-.36.71,2.66,2.66,0,0,0,.37,3c-.25,1.26-.62,2.57-.73,3.54v0a2.29,2.29,0,0,0,0,.25,7.68,7.68,0,0,0,0,1c-.44,2-.9,4-1.38,6-.54,2.35-1.12,4.68-1.77,7a68.63,68.63,0,0,1-2.09,6.63c-.25.66-.53,1.29-.81,1.86-.29-.22-.58-.45-.86-.7a31.39,31.39,0,0,1-2.38-2.24c-.78-.79-1.51-1.62-2.21-2.48s-1.4-1.74-2.06-2.66a58.23,58.23,0,0,1-3.58-5.75c-.56-1-1.07-2-1.56-3-.11-.22-.2-.43-.31-.66l.75-1.26a14.64,14.64,0,0,0-4-3.92,10.06,10.06,0,0,0-3.54-1.77h0a15.3,15.3,0,0,0-1.86-.38l-.52-.05c.19-.64.32-1,.32-1a13.22,13.22,0,0,0-2.35-.59,4,4,0,0,0-.29.55c-.83-.46-1.67-.95-1.67-.95s-.2.1-.51.29a14.34,14.34,0,0,1-1.21-6c6.62.35,12.57-3.33,12-8.48a3.09,3.09,0,0,0,.69-.48c2-1.81.77-3.46-1.1-4.41,4.51-6.44,1.39-15.18-5.57-18.65-5.58-2.77-15.84-2.87-15.18.75-6.37,1-5.38,13.15-13.61,14.54,1.42,3.8,3.8,5.23,5.81,5.7,0,.33,0,.64,0,.94a9.3,9.3,0,0,0,9,9l.06.21c.05.21.09.41.14.63s.06.32.08.47a9.79,9.79,0,0,1,.14,1.07c.23,2.64-.56,5-4.2,6-.08-.26-.12-.43-.12-.43a15.5,15.5,0,0,0-2.62.32c.06-.19.1-.36.16-.54a18.13,18.13,0,0,0-2.58.75c-.1.21-.2.42-.29.63a10.4,10.4,0,0,0-3.45,1.25,15.48,15.48,0,0,0-5.75,3.51,12.2,12.2,0,0,0-1.88,2.19s.49.77,1.17,2c-.23,1.29-.49,2.62-.78,3.9-.47,2.07-.94,4.14-1.49,6.18s-1.17,4.06-1.8,6.08-1.35,4-2.13,5.93c-.19.45-.42,1.07-.52,1.27a11.74,11.74,0,0,1-.61,1.1c-.49.8-1.07,1.63-1.69,2.46-1.25,1.65-2.59,3.33-4,5-2.35,2.81-4.8,5.61-7.22,8.41a8.78,8.78,0,0,0-4.9-1l-3,.26a3.53,3.53,0,0,0-3.21,3.87l.2,1.88a3,3,0,0,0,2.29,2.62,5.62,5.62,0,0,0,2.38,0l4.38-.87a5.61,5.61,0,0,0,3.89-2.92l.05-.1c3.3-2.54,6.45-5.2,9.5-8.06,1.62-1.54,3.24-3.11,4.78-4.84.78-.87,1.54-1.76,2.29-2.77a16.87,16.87,0,0,0,1.11-1.71,18.19,18.19,0,0,0,.86-1.72c.78-1.63,1.49-3.29,2.16-5l.18.52c.6,4.59,1.37,9.91,2.35,16.11h-1l.85,3.2c.14,2.75-.11,7.48-.51,13.4h39.8c-3.13-8.5-5.69-13.88-5.69-13.88l.07-2.72h-1.57a107.25,107.25,0,0,1,.32-16.67.27.27,0,0,0,.06-.1,5.71,5.71,0,0,0,.61-4.93q.42-2.67,1-5.74c.67,1,1.35,2,2.09,3a44.4,44.4,0,0,0,5.27,5.89,34.83,34.83,0,0,0,3.07,2.6c.54.41,1.09.81,1.65,1.18.28.2.57.37.85.55l.43.27.21.14.14.08.32.17a3.41,3.41,0,0,0,.69.3,4,4,0,0,0,.83.21,4.74,4.74,0,0,0,1.8-.06,5.42,5.42,0,0,0,2.38-1.26,8.21,8.21,0,0,0,1.76-2.41,20.94,20.94,0,0,0,1.53-4,59.78,59.78,0,0,0,1.63-7.48c.39-2.46.69-4.93.95-7.38.15-1.64.27-3.25.37-4.89a5.73,5.73,0,0,0,1.73-.27l4.25-1.38a5.83,5.83,0,0,0,2-1.19A3,3,0,0,0,239,161.31Zm-19.69,27.11h0S219.3,188.45,219.32,188.42Zm7.87-28.51a2.11,2.11,0,0,1-.08-2l.06-.13.06.26a.2.2,0,0,0,0,.07l0,.23a.2.2,0,0,1,0,.07c0,.1,0,.19,0,.26A11.25,11.25,0,0,1,227.19,159.91Zm2.42-1.41a6.57,6.57,0,0,0-.51-1.28h0a1.27,1.27,0,0,0-.07-.12c-.07-.12-.13-.23-.2-.33l-.12-.19a.24.24,0,0,1-.06-.08,1.09,1.09,0,0,1,.36.06C229.6,156.79,229.84,157.61,229.61,158.5Zm2.54-.11-1.29.59a9.16,9.16,0,0,0-1,.53s0-.11,0-.16A2.89,2.89,0,0,0,230,159l2-5.19,1.63,3.7A2.14,2.14,0,0,0,232.15,158.39Zm3.88-.78a0,0,0,0,0,0,0l-.12,0a3.44,3.44,0,0,0-1-.13,1,1,0,0,1,.41-.36c.62-.27,1.45.25,1.9,1.17A3.53,3.53,0,0,0,236,157.61Z" style="fill: #B465C3; opacity: 0.2; transform-origin: 186.573px 172.601px;" class="animable" id="elxrpid925d1"></path></g><path d="M168.18,224.72H108a6.64,6.64,0,0,1,7-6h43.76A11.21,11.21,0,0,1,168.18,224.72Z" style="fill: #B465C3; transform-origin: 138.09px 221.714px;" id="el211tcx87u55" class="animable"></path><path d="M162.05,191.43c3.43.31,3.12-2.25,3.12-2.25s-2.83-7-5.27-8.17c2.64-1.35,5.38-4,3.86-7.95s-7.39-6-12.48-5.16c1.13,2-4.16,4.18-10.52,3.73s-11.12,4.08-7.3,7c-6.17,0-6.81,8.33-2.3,13.54,7.89,9.12,12.89,16.31,18.23,17.3S167.72,202.83,162.05,191.43Z" style="fill: rgb(38, 50, 56); transform-origin: 146.703px 188.635px;" id="elh7gf7xyui9f" class="animable"></path><path d="M185.17,224.72H119.58c3.57-5.13,9.89-8.86,20.53-9.69l4.3-.34h.16a.71.71,0,0,0,0-.14,4.92,4.92,0,0,1,.12-1.07c-1.56,0-4.4-.17-3.77-2.05.37-1.1.83-1.45,1.46-1.35a1.17,1.17,0,0,1,.29-1.67c2-1.63,2.43.17,3.65,2.9a59.53,59.53,0,0,1,16.68,3,37.72,37.72,0,0,1,14.33,3.47A19.81,19.81,0,0,1,185.17,224.72Z" style="fill: #B465C3; transform-origin: 152.375px 216.255px;" id="elel2p4rcg1kj" class="animable"></path><g id="el69y1icgyuyt"><path d="M185.17,224.72H119.58c3.57-5.13,9.89-8.86,20.53-9.69l4.3-.34h.16a.71.71,0,0,0,0-.14,4.92,4.92,0,0,1,.12-1.07c-1.56,0-4.4-.17-3.77-2.05.37-1.1.83-1.45,1.46-1.35a1.17,1.17,0,0,1,.29-1.67c2-1.63,2.43.17,3.65,2.9a59.53,59.53,0,0,1,16.68,3,37.72,37.72,0,0,1,14.33,3.47A19.81,19.81,0,0,1,185.17,224.72Z" style="fill: rgb(255, 255, 255); opacity: 0.4; transform-origin: 152.375px 216.255px;" class="animable" id="elqjvsa6z1f2"></path></g><path d="M147.1,194.61c1.33,6.82,2.67,19.3-2.1,23.85,0,0,2,5,14.63,5,13.92,0,6.54-5,6.54-5-7.59-1.82-7.4-7.45-6.07-12.75Z" style="fill: rgb(255, 139, 123); transform-origin: 156.562px 209.035px;" id="el8i0ytkl69nm" class="animable"></path><g id="elfy9mark3lsl"><path d="M160.09,205.72l-13-11.1a63.62,63.62,0,0,1,1.24,12.73,14.12,14.12,0,0,0,5.1,4.69,11.67,11.67,0,0,0,6.41,1.52C159,211.23,159.41,208.43,160.09,205.72Z" style="opacity: 0.2; transform-origin: 153.59px 204.098px;" class="animable" id="el0odtwhqgyzfc"></path></g><path d="M139.85,192c3.17,8.68,4.58,13.93,10.39,17.14,8.75,4.83,18.46-2.45,17.95-11.91-.46-8.51-5.56-21.28-15.26-22.23A12.6,12.6,0,0,0,139.85,192Z" style="fill: rgb(255, 139, 123); transform-origin: 153.62px 192.804px;" id="eln7fey7sdiks" class="animable"></path><path d="M143.61,196.88c2.22-2.1,3-10.79-.12-13.65,6.59,2.76,16.77-1.26,19.49-4.65-6.38-6-18.23-6.38-24.75,0S134.93,192.74,143.61,196.88Z" style="fill: rgb(38, 50, 56); transform-origin: 148.878px 185.408px;" id="eli1rlujl9cq" class="animable"></path><path d="M139.08,198.12a10.49,10.49,0,0,0,5.47,3.87c2.91.83,4-1.47,2.85-4-1-2.25-3.76-5.4-6.52-5.14S137.48,195.85,139.08,198.12Z" style="fill: rgb(255, 139, 123); transform-origin: 143.034px 197.499px;" id="ely07d0qlkia" class="animable"></path><path d="M159.67,200.42a6.84,6.84,0,0,1-5-1.74.23.23,0,0,1,.32-.32,6.51,6.51,0,0,0,5.47,1.51.24.24,0,0,1,.27.19.23.23,0,0,1-.18.26A5.76,5.76,0,0,1,159.67,200.42Z" style="fill: rgb(38, 50, 56); transform-origin: 157.681px 199.376px;" id="elf5ewv8vy3jj" class="animable"></path><path d="M153.78,191.32c.24.75.84,1.24,1.32,1.1s.67-.86.42-1.61-.84-1.24-1.32-1.1S153.53,190.57,153.78,191.32Z" style="fill: rgb(38, 50, 56); transform-origin: 154.65px 191.065px;" id="elfp5qwgx1zkv" class="animable"></path><path d="M162.56,188.75c.25.75.84,1.25,1.33,1.11s.67-.86.42-1.61-.84-1.24-1.32-1.1S162.31,188,162.56,188.75Z" style="fill: rgb(38, 50, 56); transform-origin: 163.437px 188.505px;" id="el8srl2la6n4" class="animable"></path><path d="M160.32,189.8s3.11,3.84,5.65,5.39c-.9,1.61-3.3,1.69-3.3,1.69Z" style="fill: rgb(255, 86, 82); transform-origin: 163.145px 193.34px;" id="elsnzrm5e3eib" class="animable"></path><path d="M150.77,190.41a.44.44,0,0,0,.27-.29,3.38,3.38,0,0,1,2.11-2.44.44.44,0,0,0,.29-.56.49.49,0,0,0-.59-.31,4.23,4.23,0,0,0-2.7,3,.48.48,0,0,0,.33.57A.41.41,0,0,0,150.77,190.41Z" style="fill: rgb(38, 50, 56); transform-origin: 151.8px 188.608px;" id="eltugh6w615h" class="animable"></path><path d="M165,185.31a.48.48,0,0,0,.17-.12.46.46,0,0,0,0-.64,4.65,4.65,0,0,0-4-1.33.44.44,0,0,0-.33.54.48.48,0,0,0,.56.35h0a3.75,3.75,0,0,1,3.17,1.09A.48.48,0,0,0,165,185.31Z" style="fill: rgb(38, 50, 56); transform-origin: 163.063px 184.245px;" id="elqaq6l4rnt5" class="animable"></path><path d="M173.68,224.72h-33.1c-1-3.81,1.13-7.5,3.83-10a1.06,1.06,0,0,0,.15-.15,17.55,17.55,0,0,1,2.82-2.06c.13,4.45,16.25,7.46,14.59,3.5C166.9,216.92,173.14,220.83,173.68,224.72Z" style="fill: #B465C3; transform-origin: 157.004px 218.615px;" id="elhteyl7frfvo" class="animable"></path><g id="elpy4gbzjdukd"><path d="M173.68,224.72h-33.1c-1-3.81,1.13-7.5,3.83-10a1.06,1.06,0,0,0,.15-.15,17.55,17.55,0,0,1,2.82-2.06c.13,4.45,16.25,7.46,14.59,3.5C166.9,216.92,173.14,220.83,173.68,224.72Z" style="fill: rgb(255, 255, 255); opacity: 0.4; transform-origin: 157.004px 218.615px;" class="animable" id="elie8q8m5dwjc"></path></g></g></g><g id="elk2bjw68b4w"><polygon points="184.15 224.72 156.27 224.72 178.12 97.59 206.01 97.59 184.15 224.72" style="fill: rgb(255, 255, 255); opacity: 0.2; transform-origin: 181.14px 161.155px;" class="animable" id="elvzyk4r05kah"></polygon></g><g id="el7l89zo91pjq"><polygon points="205.6 224.72 193.84 224.72 215.7 97.59 227.46 97.59 205.6 224.72" style="fill: rgb(255, 255, 255); opacity: 0.2; transform-origin: 210.65px 161.155px;" class="animable" id="el8fau0iqkhv"></polygon></g></g><g id="freepik--character-1--inject-70" class="animable animator-active" style="transform-origin: 226.931px 291.322px;"><path d="M262.45,231.17c.56,2,1,3.74,1.42,5.61s.8,3.71,1.17,5.57c.7,3.73,1.29,7.49,1.69,11.3a103.31,103.31,0,0,1,.65,11.61,61.16,61.16,0,0,1-1.11,12.1l-.07.33a4.71,4.71,0,0,1-.45,1.24,15.82,15.82,0,0,1-4.27,4.94,30.38,30.38,0,0,1-4.35,2.81,55.33,55.33,0,0,1-8.59,3.6c-2.86.94-5.71,1.71-8.59,2.35-1.43.32-2.87.59-4.32.85s-2.86.48-4.38.66a3.22,3.22,0,0,1-1.59-6.19l.09,0c2.52-1,5.15-2.06,7.67-3.18s5-2.23,7.42-3.45a56.13,56.13,0,0,0,6.7-3.88,17.58,17.58,0,0,0,2.59-2.1,4.56,4.56,0,0,0,1.16-1.55l-.52,1.57a56.48,56.48,0,0,0,.27-9.8c-.07-1.69-.22-3.41-.4-5.12s-.38-3.45-.62-5.18q-.75-5.19-1.78-10.39-.5-2.61-1.08-5.19c-.39-1.7-.79-3.49-1.18-5.06l0-.1a6.47,6.47,0,0,1,12.5-3.31Z" style="fill: rgb(255, 139, 123); transform-origin: 247.501px 260.398px;" id="eliyujl4z2keg" class="animable"></path><path d="M233.2,287.05l-8.09.94,2.28,9.37s7.08-1.29,8.12-5.68Z" style="fill: rgb(255, 139, 123); transform-origin: 230.31px 292.205px;" id="el7oov5fvnwxj" class="animable"></path><path d="M221.36,292.08l1.38,3.51a2.37,2.37,0,0,0,2,1.49l2.69.28L225.11,288l-2.47,1A2.37,2.37,0,0,0,221.36,292.08Z" style="fill: rgb(255, 139, 123); transform-origin: 224.308px 292.68px;" id="eljp6v3a9dxi" class="animable"></path><path d="M258.6,218.17c10.4,7.42,11.63,25.63,11.63,25.63L249.91,250s-3.68-8.23-4.48-15.67C244.15,222.37,251.15,212.86,258.6,218.17Z" style="fill: #B465C3; transform-origin: 257.754px 233.331px;" id="els2i5s3zbpgm" class="animable"></path><polygon points="215.22 406.64 205.91 406.64 201.23 385.08 210.54 385.08 215.22 406.64" style="fill: rgb(255, 139, 123); transform-origin: 208.225px 395.86px;" id="elr5bf2wbq0g" class="animable"></polygon><path d="M205.25,403.13h10.46a.81.81,0,0,1,.79.64l1.84,8.28A1.36,1.36,0,0,1,217,413.7c-3.65-.06-5.43-.27-10-.27-2.83,0-6.46.29-10.37.29s-4.42-3.86-2.82-4.21c7.18-1.57,7.68-3.74,10-5.8A2.21,2.21,0,0,1,205.25,403.13Z" style="fill: rgb(38, 50, 56); transform-origin: 205.666px 408.425px;" id="eljahj2ad3kpq" class="animable"></path><g id="elfrxllw2k10g"><g style="opacity: 0.2; transform-origin: 207.095px 391.055px;" class="animable" id="elvh3i34479p9"><polygon points="210.55 385.08 201.23 385.08 203.83 397.03 212.96 396.2 210.55 385.08" id="elpkz0o71c1j" class="animable" style="transform-origin: 207.095px 391.055px;"></polygon></g></g><polygon points="181.94 406.64 172.63 406.64 167.95 385.08 177.26 385.08 181.94 406.64" style="fill: rgb(255, 139, 123); transform-origin: 174.945px 395.86px;" id="el3b9ywxk4si1" class="animable"></polygon><path d="M172,403.13h10.46a.81.81,0,0,1,.79.64l1.84,8.28a1.36,1.36,0,0,1-1.36,1.65c-3.66-.06-5.43-.27-10-.27-2.83,0-12.07.29-16,.29s-4.42-3.86-2.82-4.21c7.17-1.57,13.28-3.74,15.57-5.8A2.25,2.25,0,0,1,172,403.13Z" style="fill: rgb(38, 50, 56); transform-origin: 169.589px 408.425px;" id="eluvu23gfq1m" class="animable"></path><g id="elgqg55u3pum"><g style="opacity: 0.2; transform-origin: 173.815px 391.055px;" class="animable" id="elaqfolftl5al"><polygon points="177.26 385.08 167.95 385.08 170.54 397.03 179.68 396.2 177.26 385.08" id="el4b30tvjragw" class="animable" style="transform-origin: 173.815px 391.055px;"></polygon></g></g><path d="M232.07,287.31S189.66,302,188.7,316.24c-2.56,38.21,12.1,75.23,12.1,75.23h14s-2.15-13.08-4.06-47.7c-2.39-43.51,71.45,1,56.25-56.46Z" style="fill: rgb(38, 50, 56); transform-origin: 228.727px 339.39px;" id="ellogv0tvnysr" class="animable"></path><path d="M197.9,388c-.07,0,2.12,6.37,2.12,6.37l16.2-1.59-.87-5.78Z" style="fill: #B465C3; transform-origin: 207.059px 390.685px;" id="elbtzyuw0krsm" class="animable"></path><path d="M217.15,287.31s-64.75,6-64,41.62c.79,37,14.31,63.55,14.31,63.55h13.84s-5.53-24.08-5.07-60.52c.14-10.92,19.3-11,40.85-12.23,18.61-1.1,36-11.71,43.26-28.9l1.48-3.52Z" style="fill: rgb(38, 50, 56); transform-origin: 207.482px 339.895px;" id="elu190ikpgyfj" class="animable"></path><path d="M163.7,388.15c-.06,0,2.38,6.4,2.38,6.4l16.7-1.2-1-5.79Z" style="fill: #B465C3; transform-origin: 173.239px 391.055px;" id="eld0c4cqlk80j" class="animable"></path><path d="M230.26,186.44c-.21.72-.77,1.19-1.24,1.05s-.68-.84-.47-1.56.77-1.19,1.24-1.05S230.47,185.72,230.26,186.44Z" style="fill: rgb(38, 50, 56); transform-origin: 229.405px 186.185px;" id="el5561ef2ked8" class="animable"></path><path d="M229.56,187.65s-2.87,3.67-5.27,5.14c.92,1.57,3.25,1.66,3.25,1.66Z" style="fill: rgb(255, 86, 82); transform-origin: 226.925px 191.05px;" id="elwfwnoqcweml" class="animable"></path><path d="M234,182.3a.48.48,0,0,1-.25-.09,3.49,3.49,0,0,0-3.11-.71.44.44,0,0,1-.56-.28.45.45,0,0,1,.28-.56,4.39,4.39,0,0,1,3.93.85.44.44,0,0,1,.08.62A.42.42,0,0,1,234,182.3Z" style="fill: rgb(38, 50, 56); transform-origin: 232.261px 181.405px;" id="ell7b6f2zle4" class="animable"></path><path d="M247.48,194.61c-1.33,6.82-2.67,19.3,2.1,23.85,0,0-1.86,6.91-14.52,6.91-13.92,0-6.65-6.91-6.65-6.91,7.59-1.82,7.4-7.45,6.07-12.75Z" style="fill: rgb(255, 139, 123); transform-origin: 238.046px 209.99px;" id="elzybn27tlanh" class="animable"></path><path d="M249.17,215.09a142,142,0,0,0-21.63,1A17.55,17.55,0,0,0,212.21,233c-.26,10.17.6,27.06,4.94,54.34,15.12,3.71,41.06,6.42,49.81,0,.28-6.38-3.79-25.49-.83-52.62A17.64,17.64,0,0,0,249.17,215.09Z" style="fill: #B465C3; transform-origin: 239.571px 253.115px;" id="elsv8wfbdaw5" class="animable"></path><path d="M225.84,234.27c-.49,3.84-1.12,7.58-1.74,11.37s-1.34,7.54-2.12,11.3-1.62,7.53-2.57,11.31a97.06,97.06,0,0,1-3.55,11.57l-.24.61-.18.29a23.25,23.25,0,0,1-6.21,6.38,41.62,41.62,0,0,1-6.7,3.87,59.59,59.59,0,0,1-6.86,2.67,55.56,55.56,0,0,1-7.08,1.8l-2-6.08c1.85-1,3.84-2.15,5.69-3.29s3.7-2.31,5.42-3.54a40.88,40.88,0,0,0,4.69-3.82,14,14,0,0,0,2.93-3.79l-.42.89a105.4,105.4,0,0,0,2.49-10.31q1.06-5.42,2-10.94l1.85-11.07L213,232.42Z" style="fill: rgb(255, 139, 123); transform-origin: 206.215px 263.93px;" id="elpavy65i73pl" class="animable"></path><path d="M193.54,286.45l-10.85,3.21,6,8.74s3.27-.19,5.82-6.48Z" style="fill: rgb(255, 139, 123); transform-origin: 188.6px 292.425px;" id="elvkyw2alnrab" class="animable"></path><path d="M179.23,296.41l1.06,2.08a3.46,3.46,0,0,0,4.41,1.6l4-1.69-6-8.74-2.79,2.7A3.44,3.44,0,0,0,179.23,296.41Z" style="fill: rgb(255, 139, 123); transform-origin: 183.776px 295.009px;" id="elmzbmb449kdq" class="animable"></path><path d="M231.89,222.55c4.27,7.81-3,27.48-3,27.48l-21.69-5.35s.18-5.5,4.94-16C217.61,216.71,227.25,214,231.89,222.55Z" style="fill: #B465C3; transform-origin: 220.217px 233.798px;" id="el8mz4gl8txb7" class="animable"></path><path d="M254.73,192c-3.17,8.68-4.58,13.93-10.39,17.14-8.75,4.83-18.46-2.45-18-11.91.45-8.51,5.56-21.28,15.26-22.23A12.6,12.6,0,0,1,254.73,192Z" style="fill: rgb(255, 139, 123); transform-origin: 240.937px 192.801px;" id="elaa83c3p5krr" class="animable"></path><path d="M234.15,193.49c-3.14.32-3.32-1.72-3.32-1.72s-1.23-6.66,3.41-10.76c-2.42-1.35-4.93-4-3.54-7.95s6.78-6,11.45-5.16c-1,2,3.81,4.18,9.65,3.73s10.19,4.08,6.69,7c5.66,0,8.48,9.64,2.77,14.26-10.8,8.73-11,15.28-16,16.27S229,204.9,234.15,193.49Z" style="fill: rgb(38, 50, 56); transform-origin: 247.344px 188.496px;" id="elvgo1scfncp" class="animable"></path><path d="M235,193.31a9,9,0,0,1-3.53,4.48c-1.92,1.11-2.43-1-2.07-3.85.33-2.64,2.32-6.5,4.16-6.12S236,190.85,235,193.31Z" style="fill: rgb(255, 139, 123); transform-origin: 232.387px 192.943px;" id="elu0bjse6sxqh" class="animable"></path><path d="M276.7,257.1c3.12-14.37,7.42-39.75-22.51-42.08l-4.46-.34a4.08,4.08,0,0,0-.11-1.2c1.56,0,4.41-.18,3.78-2.07-.37-1.09-.83-1.44-1.46-1.34a1.18,1.18,0,0,0-.29-1.67c-2-1.63-2.43.17-3.66,2.9a59.13,59.13,0,0,0-16.67,3h0c-10.59.75-19.69,4-23.82,13.49-7,16.08.43,48-18.81,54.06-15.94,5-18.46,12.5-23.91,19.12a3.94,3.94,0,0,0,1.71,6.24c11,3.83,24.72,5.26,35.92,5.26h73.22C288.32,312.47,273.59,271.46,276.7,257.1Z" style="fill: #B465C3; transform-origin: 222.37px 260.125px;" id="el0wu80fzeddn" class="animable"></path><g id="elvjfmjb1aut"><path d="M276.7,257.1c3.12-14.37,7.42-39.75-22.51-42.08l-4.46-.34a4.08,4.08,0,0,0-.11-1.2c1.56,0,4.41-.18,3.78-2.07-.37-1.09-.83-1.44-1.46-1.34a1.18,1.18,0,0,0-.29-1.67c-2-1.63-2.43.17-3.66,2.9a59.13,59.13,0,0,0-16.67,3h0c-10.59.75-19.69,4-23.82,13.49-7,16.08.43,48-18.81,54.06-15.94,5-18.46,12.5-23.91,19.12a3.94,3.94,0,0,0,1.71,6.24c11,3.83,24.72,5.26,35.92,5.26h73.22C288.32,312.47,273.59,271.46,276.7,257.1Z" style="fill: rgb(255, 255, 255); opacity: 0.4; transform-origin: 222.37px 260.125px;" class="animable" id="el4rs116ruumm"></path></g><g id="el9vvv4s2kf1"><path d="M249.62,213.47c-2.94-.27-11.87.94-11.87.94s8.74.06,12,.27A4.2,4.2,0,0,0,249.62,213.47Z" style="fill: #B465C3; opacity: 0.3; transform-origin: 243.752px 214.055px;" class="animable" id="elizr6g3tskd9"></path></g><rect x="172.06" y="310.01" width="116.25" height="18.09" rx="6.03" style="fill: #B465C3; transform-origin: 230.185px 319.055px;" id="elf94g0zqfwn5" class="animable"></rect><g id="elvruiycowtd"><rect x="172.06" y="310.01" width="116.25" height="18.09" rx="6.03" style="opacity: 0.3; transform-origin: 230.185px 319.055px;" class="animable" id="el1e76445sjir"></rect></g><path d="M288.12,218.74H244.35a11.12,11.12,0,0,0-10.44,8.6,341.39,341.39,0,0,0-5.75,89,9.47,9.47,0,0,0,9.34,8.6h43.76a7.86,7.86,0,0,0,7.95-8.6,341.82,341.82,0,0,1,5.74-89C295.89,222.58,292.9,218.74,288.12,218.74Z" style="fill: #B465C3; transform-origin: 261.264px 271.841px;" id="el4m7thzt1eo5" class="animable"></path><g id="elvrrtb6g2x7"><path d="M288.12,218.74H244.35a11.12,11.12,0,0,0-10.44,8.6,341.39,341.39,0,0,0-5.75,89,9.47,9.47,0,0,0,9.34,8.6h43.76a7.86,7.86,0,0,0,7.95-8.6,341.82,341.82,0,0,1,5.74-89C295.89,222.58,292.9,218.74,288.12,218.74Z" style="opacity: 0.3; transform-origin: 261.264px 271.841px;" class="animable" id="el937f8x60p2w"></path></g><path d="M294.19,222.35H253.41a10.37,10.37,0,0,0-9.74,8,318,318,0,0,0-5.35,83,8.81,8.81,0,0,0,8.7,8H287.8a7.33,7.33,0,0,0,7.41-8,318.89,318.89,0,0,1,5.35-83C301.43,225.94,298.64,222.35,294.19,222.35Z" style="fill: #B465C3; transform-origin: 269.165px 271.85px;" id="elz3affi6o58" class="animable"></path><path d="M235.38,339.39H224.77a4.53,4.53,0,0,1-3.67-1.87l-6.82-9.43h31.59l-6.82,9.43A4.53,4.53,0,0,1,235.38,339.39Z" style="fill: #B465C3; transform-origin: 230.075px 333.74px;" id="elrhuzh95kkj" class="animable"></path><g id="elm9hpahz1k4"><polygon points="214.28 328.1 217.11 332 244.46 330.05 245.87 328.1 214.28 328.1" style="opacity: 0.5; transform-origin: 230.075px 330.05px;" class="animable" id="elu3kq0mxayjd"></polygon></g><polygon points="222.45 406.04 237.69 406.04 245.87 414.93 214.28 414.93 222.45 406.04" style="fill: #B465C3; transform-origin: 230.075px 410.485px;" id="el7xa9w0anc2n" class="animable"></polygon><rect x="225.77" y="339.39" width="8.61" height="66.64" style="fill: rgb(38, 50, 56); transform-origin: 230.075px 372.71px;" id="eldxus7zu2emt" class="animable"></rect><g id="elqml3mp9zcxa"><rect x="225.77" y="339.39" width="8.61" height="66.64" style="fill: rgb(255, 255, 255); opacity: 0.6; transform-origin: 230.075px 372.71px;" class="animable" id="elrywhharlb1c"></rect></g></g><g id="freepik--character-2--inject-70" class="animable" style="transform-origin: 336.414px 259.54px;"><path d="M318.34,161.62c-.2,1.51-.41,2.82-.68,4.2s-.54,2.71-.83,4.05c-.6,2.69-1.34,5.35-2.11,8a103.78,103.78,0,0,1-5.9,15.52c-.32.65-.52,1.15-1,2.08a24.57,24.57,0,0,1-1.35,2.06c-.91,1.23-1.84,2.32-2.78,3.37-1.88,2.1-3.84,4-5.81,5.89a156.2,156.2,0,0,1-12.4,10.46,2.4,2.4,0,0,1-3.27-3.49l0,0c3.46-4,7-8,10.31-12,1.69-2,3.32-4,4.83-6,.75-1,1.46-2,2.05-3a11.94,11.94,0,0,0,.75-1.34c.11-.25.4-1,.62-1.54,1-2.36,1.78-4.78,2.6-7.2s1.52-4.89,2.18-7.38,1.24-5,1.8-7.49c.27-1.26.54-2.51.78-3.77s.48-2.55.66-3.68l0-.11a4.83,4.83,0,0,1,9.55,1.41Z" style="fill: rgb(255, 195, 189); transform-origin: 299.982px 187.033px;" id="elqyzp7acg2w" class="animable"></path><path d="M316.12,153.69a18.72,18.72,0,0,0-9.26,6.92s6.05,9.67,7.07,16C319,170.79,324,158.5,316.12,153.69Z" style="fill: #B465C3; transform-origin: 313.543px 165.15px;" id="eljwtp45700h9" class="animable"></path><path d="M270.31,215.77a4.29,4.29,0,0,1,3.9-4.7l3.58-.3s6.76-.88,9.06,4.77l-.59,1.13a6.83,6.83,0,0,1-4.73,3.55l-5.31,1.06a6.87,6.87,0,0,1-2.89-.05h0a3.63,3.63,0,0,1-2.79-3.17Z" style="fill: rgb(255, 195, 189); transform-origin: 278.569px 216.065px;" id="el2divfuomxya" class="animable"></path><path d="M309.51,165.68c.35,8.16,1.76,21.92,5.53,45.15h38.35c-.57-13.86-1.22-23.52,4.86-47.59,1.49-5.93-2.7-10.54-9.53-11.46-1.53-.21-3.15-.29-4.81-.37a121.82,121.82,0,0,0-17.42,0c-1.88.17-3.82.41-5.68.67A13.15,13.15,0,0,0,309.51,165.68Z" style="fill: #B465C3; transform-origin: 334.024px 180.964px;" id="elwqhuxldn52b" class="animable"></path><path d="M323.8,150.5c-3.89,12.12-.15,19.84-.15,19.84,3.68,1.11,11.88,1.41,16.31.49,0,0,3.19-17.12,5.67-21.05a15.69,15.69,0,0,1,2.84.72,104.38,104.38,0,0,0-4.25,21.77,20,20,0,0,1,9.46,7.28,7,7,0,0,1,0,7.63c-2.68,4.17-6.74,12.55-3.25,21.41H316.74s-2.24-13.64-5.92-22.87a7.38,7.38,0,0,1,1-7.32,24,24,0,0,1,8.05-6.24s-3.84-11.23.75-20.74A21.4,21.4,0,0,1,323.8,150.5Z" style="fill: rgb(38, 50, 56); transform-origin: 332.541px 179.185px;" id="el7qpdcossgn" class="animable"></path><path d="M351.6,125.15c3.53.19,8.56,3.06,5,6.36S348.36,128.61,351.6,125.15Z" style="fill: #B465C3; transform-origin: 354.164px 128.799px;" id="elremhst7qcl" class="animable"></path><path d="M330.05,104.42c-7.73,1.16-6.53,16-16.51,17.64,3.41,9.16,11.44,7,11.44,7s-1.71,7.49,10.07,12,25.71-3.25,19-13.4c7.18-7.9,3.47-19.66-5.55-24.15C341.7,100.15,329.25,100,330.05,104.42Z" style="fill: rgb(38, 50, 56); transform-origin: 335.686px 121.707px;" id="el5naibwris5" class="animable"></path><path d="M342.18,131.81c-1.1,5.6-2.19,15.87,1.73,19.6a122.55,122.55,0,0,0-13.86,5,6,6,0,0,1-3.56-5c6.25-1.5,6.09-6.13,5-10.49Z" style="fill: rgb(255, 195, 189); transform-origin: 335.2px 144.11px;" id="eluyl9o6rrayb" class="animable"></path><path d="M330.05,156.42s5.15,2.61,7.67,6.82c9-3.85,10.46-9.08,9.27-12a36.35,36.35,0,0,1-3.75-2S335.53,153.84,330.05,156.42Z" style="fill: rgb(255, 255, 255); transform-origin: 338.699px 156.24px;" id="elerb1y677mtr" class="animable"></path><path d="M330.05,156.42a18.36,18.36,0,0,0-7.64,6.2c-3-1.22-3.26-8.53-1-10.81a15.82,15.82,0,0,1,5.32-1S327.73,154.55,330.05,156.42Z" style="fill: rgb(255, 255, 255); transform-origin: 324.98px 156.715px;" id="el0kwgw2zjeiwa" class="animable"></path><g id="elbhhnuxbdv2p"><path d="M337.82,135.53l-6.32,5.4A17.69,17.69,0,0,1,332,144c2.39-.35,5.67-3,5.92-5.46A8.18,8.18,0,0,0,337.82,135.53Z" style="opacity: 0.2; transform-origin: 334.757px 139.765px;" class="animable" id="elz6wogi2q9i"></path></g><path d="M348.09,121.53c-2.18,9.11-2.92,13-8.32,16.93-8.12,5.9-18.61,1.25-19.14-8.33-.47-8.62,3.18-22.07,12.67-24.17S350.28,112.42,348.09,121.53Z" style="fill: rgb(255, 195, 189); transform-origin: 334.532px 123.357px;" id="el5f35nkzlirh" class="animable"></path><path d="M330.05,105.64c4.55,7,13.59,10.94,13.59,10.94-2.1,1.76-5.27,11.45.83,12.59,9.7-2.21,8.56-15.26,6.53-18.68S338.14,102.35,330.05,105.64Z" style="fill: rgb(38, 50, 56); transform-origin: 341.217px 116.848px;" id="eledks65by4q5" class="animable"></path><path d="M315,210.83s3.24,71.1,3.86,99.9c.65,29.95.93,99.9.93,99.9h7.56s12.06-58.13,8.49-99.9c5.4-32.07,9.05-99.9,9.05-99.9Z" style="fill: rgb(255, 195, 189); transform-origin: 329.945px 310.73px;" id="el6kblq3onafu" class="animable"></path><path d="M325.07,210.83s27.32,74.46,38.17,102.31c11.4,29.24,30.11,95.32,30.44,97.49h6.54s-7.49-76.34-21.09-102.31c-4.11-32.52-25.74-97.49-25.74-97.49Z" style="fill: rgb(255, 195, 189); transform-origin: 362.645px 310.73px;" id="el3ocp4mce08o" class="animable"></path><path d="M319.89,409.46l8.1.12a.58.58,0,0,1,.58.52l.7,6.63a1.21,1.21,0,0,1-1.22,1.31c-2.91-.1-7.12-.34-10.79-.4-4.3-.06-3.88.11-8.92,0-3,0-3.54-3.14-2.23-3.4,5.95-1.18,6.55-1.24,11.93-4.26A3.68,3.68,0,0,1,319.89,409.46Z" style="fill: rgb(38, 50, 56); transform-origin: 317.357px 413.75px;" id="elkdvtgtpcvt9" class="animable"></path><path d="M392.89,409.46l8.1.12a.59.59,0,0,1,.59.52l.95,6.63a1.17,1.17,0,0,1-1.18,1.31c-2.92-.1-3.84-.34-7.52-.4-4.3-.06-2.31.11-7.35,0-3.05,0-3.65-3.13-2.35-3.4,4.1-.86,5.12-2.51,6.92-4.26A2.54,2.54,0,0,1,392.89,409.46Z" style="fill: rgb(38, 50, 56); transform-origin: 393.011px 413.742px;" id="el1aimwdekd5c" class="animable"></path><path d="M394.44,410.24c-1.29,0-2,0-2.31-.59s-1.49-2.29-1.41-2.93,5.31-1.16,5.83-.13S397.06,410.16,394.44,410.24Z" style="fill: rgb(38, 50, 56); transform-origin: 393.768px 408.123px;" id="elpi3qgbaw2ve" class="animable"></path><path d="M319.61,410.24c-.81,0-1.24,0-1.43-.59a11.93,11.93,0,0,1-.82-2.93c.06-.65,3.34-1.16,3.64-.13S321.24,410.16,319.61,410.24Z" style="fill: rgb(38, 50, 56); transform-origin: 319.25px 408.122px;" id="el6onp3bxb0np" class="animable"></path><g id="el3r1v3xsl7ql"><path d="M353.4,210.82H315.05s3.23,71.11,3.85,99.91c.08,3.63.16,7.85.22,12.45,3.09-3.18,9.43-9.51,17.38-16.33,2.12-14,3.94-33.09,5.35-50.59,4.51,12.18,9.3,25.06,13.52,36.24a85.28,85.28,0,0,1,18.84-9.62C366.47,250.11,353.4,210.82,353.4,210.82Z" style="opacity: 0.2; transform-origin: 344.63px 267px;" class="animable" id="ely8q3o5ob4no"></path></g><path d="M355.17,207.52l-.09,3.31s15.57,32.62,19.58,67.15c-26.19,8.5-57.56,47.33-57.56,47.33-13.33-17.08-1.92-96.84-2.8-113.91l-1-3.88Z" style="fill: rgb(38, 50, 56); transform-origin: 342.624px 266.415px;" id="el8gf9e479833" class="animable"></path><path d="M335.94,121.63c-.13.75-.64,1.29-1.13,1.2s-.78-.77-.64-1.52.63-1.28,1.12-1.2S336.07,120.88,335.94,121.63Z" style="fill: rgb(38, 50, 56); transform-origin: 335.053px 121.471px;" id="elvg1dq6h6o6o" class="animable"></path><path d="M326.69,120.13c-.13.75-.63,1.28-1.12,1.2s-.78-.77-.65-1.52.64-1.29,1.13-1.2S326.83,119.38,326.69,120.13Z" style="fill: rgb(38, 50, 56); transform-origin: 325.807px 119.969px;" id="elomlvftehlqi" class="animable"></path><path d="M326.26,118.69l-1.71-.84S325.22,119.42,326.26,118.69Z" style="fill: rgb(38, 50, 56); transform-origin: 325.405px 118.367px;" id="eli88ftp1dske" class="animable"></path><path d="M329.05,121.81a20.58,20.58,0,0,1-3.52,4.31,3.27,3.27,0,0,0,2.58,1Z" style="fill: rgb(237, 132, 126); transform-origin: 327.29px 124.469px;" id="el8vk3bjxu44f" class="animable"></path><path d="M331.93,130.64a7.24,7.24,0,0,1-1.27-.12.23.23,0,0,1-.19-.26.23.23,0,0,1,.26-.18,6,6,0,0,0,5.26-1.46.21.21,0,0,1,.31,0,.22.22,0,0,1,0,.31A6.28,6.28,0,0,1,331.93,130.64Z" style="fill: rgb(38, 50, 56); transform-origin: 333.416px 129.596px;" id="ellwvwd6vvsfa" class="animable"></path><path d="M349.94,131.4a6.68,6.68,0,0,1-4.8,2.63c-2.39.1-2.93-2.61-1.72-5,1.09-2.11,3.65-4.71,5.78-3.7S351.48,129.44,349.94,131.4Z" style="fill: rgb(255, 195, 189); transform-origin: 346.882px 129.569px;" id="elkgk7alhhymg" class="animable"></path><path d="M339,118.13a.51.51,0,0,1-.27-.23,3.57,3.57,0,0,0-2.54-2,.45.45,0,1,1,.1-.89,4.43,4.43,0,0,1,3.24,2.48.45.45,0,0,1-.2.6A.47.47,0,0,1,339,118.13Z" style="fill: rgb(38, 50, 56); transform-origin: 337.661px 116.572px;" id="elc2n2sv1gn9d" class="animable"></path><path d="M323.23,114.47a.47.47,0,0,1-.3-.16.46.46,0,0,1,.07-.63,4.48,4.48,0,0,1,4-.93.45.45,0,1,1-.28.86,3.5,3.5,0,0,0-3.14.77A.4.4,0,0,1,323.23,114.47Z" style="fill: rgb(38, 50, 56); transform-origin: 325.074px 113.546px;" id="el51t4qid0j5b" class="animable"></path><path d="M335.5,120.19l-1.71-.84S334.47,120.92,335.5,120.19Z" style="fill: rgb(38, 50, 56); transform-origin: 334.645px 119.867px;" id="eleaqy1czvxxf" class="animable"></path><path d="M358.07,157.87c.19.47.48,1.17.75,1.76s.56,1.24.86,1.86c.59,1.24,1.23,2.47,1.9,3.67a67.53,67.53,0,0,0,4.35,7c.79,1.11,1.62,2.19,2.49,3.22s1.74,2.06,2.67,3,1.91,1.86,2.9,2.72c.5.44,1,.85,1.53,1.25l.79.58.4.29.19.14.08,0-.14-.08a3,3,0,0,0-1.89-.21,1.9,1.9,0,0,0-1,.49,1.91,1.91,0,0,0,.48-.61,20.19,20.19,0,0,0,1.56-3.31c1-2.52,1.79-5.27,2.54-8,1.5-5.56,2.83-11.3,4.1-17v0a2.4,2.4,0,0,1,4.74.62,149,149,0,0,1-1.75,18,78,78,0,0,1-2,9.08,26.89,26.89,0,0,1-1.86,4.84,10.15,10.15,0,0,1-2.15,2.93,6.46,6.46,0,0,1-2.89,1.54,5.69,5.69,0,0,1-2.18.07,5.84,5.84,0,0,1-1-.26,5.57,5.57,0,0,1-.84-.36l-.38-.21-.17-.1-.26-.16-.52-.33c-.35-.22-.7-.44-1-.68-.68-.45-1.35-.93-2-1.42a43.64,43.64,0,0,1-3.72-3.16,52.12,52.12,0,0,1-6.4-7.16,68.34,68.34,0,0,1-5.2-7.92q-1.14-2.07-2.16-4.2c-.34-.72-.67-1.43-1-2.17s-.59-1.43-.93-2.34a4.83,4.83,0,0,1,9-3.44Z" style="fill: rgb(255, 195, 189); transform-origin: 368.063px 172.279px;" id="elzjdvuz5chg" class="animable"></path><path d="M351,152.24a18.66,18.66,0,0,1,9.25,6.92s-6,9.67-7.06,16C348.13,169.34,343.1,157.05,351,152.24Z" style="fill: #B465C3; transform-origin: 353.569px 163.7px;" id="el2ygwxtkkfgb" class="animable"></path><path d="M386.64,152.58c.79-1.3.16-7.94-2.8-8.78-1.37-.39-.16,2.62-.18,3.73,0,3-2.24,8.13-.75,8.56S385.28,154.85,386.64,152.58Z" style="fill: rgb(255, 195, 189); transform-origin: 384.675px 149.962px;" id="elclv8rossnv" class="animable"></path><path d="M397,148.59a4.28,4.28,0,0,0-5.7-2.19L388,147.88s-6.33,2.54-5.57,8.6l1.07.7a6.86,6.86,0,0,0,5.86.78l5.15-1.68a6.76,6.76,0,0,0,2.5-1.45h0a3.62,3.62,0,0,0,.88-4.12Z" style="fill: rgb(255, 195, 189); transform-origin: 390.279px 152.154px;" id="elbgac9wr3007" class="animable"></path><path d="M393,144.72a1.66,1.66,0,0,0-.87,1l-9.9-22.6c-.49,7.37,2.76,14.53,2.76,14.53l3.1,1.22,4.27,9.75h0c.73,1.68,2.21,2.66,3.3,2.18s1.38-2.23.65-3.91S394.14,144.24,393,144.72Zm2.3,5.24c-.78.35-1.86-.36-2.38-1.57s-.32-2.47.46-2.81,1.85.35,2.38,1.57S396.13,149.62,395.34,150Z" style="fill: rgb(38, 50, 56); transform-origin: 389.446px 137.021px;" id="ely9fnccg5v9" class="animable"></path><path d="M394.25,146.2c-1.84-.37-4-.19-4.7,1s.63,1.65,1.4,1.38,3.57,1.19,4,.52S394.25,146.2,394.25,146.2Z" style="fill: rgb(255, 195, 189); transform-origin: 392.2px 147.653px;" id="elr03ufllsupk" class="animable"></path><path d="M386.09,144.07a1.66,1.66,0,0,1,.92,1l9-23c.78,7.35-2.17,14.63-2.17,14.63L390.76,138,386.89,148h0c-.66,1.71-2.1,2.75-3.21,2.31s-1.47-2.17-.8-3.88S385,143.63,386.09,144.07ZM384,149.4c.79.31,1.83-.44,2.31-1.67s.23-2.48-.57-2.79-1.84.43-2.32,1.66S383.2,149.09,384,149.4Z" style="fill: rgb(38, 50, 56); transform-origin: 389.342px 136.24px;" id="el1phvqohifh" class="animable"></path><path d="M383.84,143.8c-1.12-.32-.51,1.66-.26,3a3.67,3.67,0,0,1,.08.74l2.2-1.79A3.54,3.54,0,0,0,383.84,143.8Z" style="fill: rgb(255, 195, 189); transform-origin: 384.524px 145.653px;" id="elzr2adjy8pq" class="animable"></path></g><defs>     <filter id="active" height="200%">         <feMorphology in="SourceAlpha" result="DILATED" operator="dilate" radius="2"></feMorphology>                <feFlood flood-color="#32DFEC" flood-opacity="1" result="PINK"></feFlood>        <feComposite in="PINK" in2="DILATED" operator="in" result="OUTLINE"></feComposite>        <feMerge>            <feMergeNode in="OUTLINE"></feMergeNode>            <feMergeNode in="SourceGraphic"></feMergeNode>        </feMerge>    </filter>    <filter id="hover" height="200%">        <feMorphology in="SourceAlpha" result="DILATED" operator="dilate" radius="2"></feMorphology>                <feFlood flood-color="#ff0000" flood-opacity="0.5" result="PINK"></feFlood>        <feComposite in="PINK" in2="DILATED" operator="in" result="OUTLINE"></feComposite>        <feMerge>            <feMergeNode in="OUTLINE"></feMergeNode>            <feMergeNode in="SourceGraphic"></feMergeNode>        </feMerge>            <feColorMatrix type="matrix" values="0   0   0   0   0                0   1   0   0   0                0   0   0   0   0                0   0   0   1   0 "></feColorMatrix>    </filter></defs></svg>